<?xml version="1.0" encoding="UTF-8"?>
<svg width="74px" height="68px" viewBox="0 0 74 68" version="1.1" xmlns="http://www.w3.org/2000/svg" xmlns:xlink="http://www.w3.org/1999/xlink">
    <title>Trains booking</title>
    <g id="page" stroke="none" stroke-width="1" fill="none" fill-rule="evenodd">
        <g id="icon" transform="translate(14.000000, 7.000000)" fill="#0044D6">
            <path d="M30.7869,4.62656 C30.2155,4.62656 29.7517,5.09031 29.7517,5.66171 C29.7517,6.23312 30.2155,6.69687 30.7869,6.69687 C31.3583,6.69687 31.822,6.23312 31.822,5.66171 C31.822,5.09031 31.3583,4.62656 30.7869,4.62656 Z"></path>
            <path d="M14.2244,4.62656 C13.653,4.62656 13.1892,5.09031 13.1892,5.66171 C13.1892,6.23312 13.653,6.69687 14.2244,6.69687 C14.7958,6.69687 15.2595,6.23312 15.2595,5.66171 C15.2595,5.09031 14.7958,4.62656 14.2244,4.62656 Z"></path>
            <path d="M44.0351,51.735 L37.1853,44.5788 C39.9526,44.4797 42.1736,42.1989 42.1736,39.4078 L42.1736,8.69162 C42.1736,7.01911 41.5891,5.38584 40.5274,4.09262 C39.465,2.79971 37.9767,1.90875 36.3371,1.58444 C32.6631,0.855482 28.9016,0.485931 25.1568,0.485931 L19.6881,0.485931 C16.1264,0.485931 12.4165,0.827119 8.6624,1.5774 C5.28728,2.25263 2.83768,5.24123 2.83768,8.68333 L2.83768,39.4078 C2.83768,42.2224 5.09639,44.5179 7.8962,44.5806 L0.96902,51.7305 C0.67969,52.0291 0.59709,52.4717 0.75929,52.8544 C0.9213,53.2372 1.29675,53.4859 1.71247,53.4859 L9.1138,53.4859 C9.4457,53.4859 9.7574,53.3268 9.9521,53.0581 L13.0921,48.7242 L32.0113,48.7242 L35.1513,53.0582 C35.346,53.3268 35.6578,53.4859 35.9896,53.4859 L43.2874,53.4859 C43.702,53.4859 44.0765,53.2385 44.2394,52.8574 C44.4022,52.476 44.3219,52.0345 44.0351,51.735 Z M4.90799,39.4078 L4.90799,8.68333 C4.90799,6.22453 6.6577,4.08983 9.0683,3.60745 C12.4473,2.93211 16.0179,2.55624 19.688,2.55624 L25.1567,2.55624 C28.7666,2.55624 32.3925,2.91244 35.9345,3.61511 C37.1057,3.84688 38.1688,4.48329 38.9274,5.40655 C39.6856,6.33022 40.1032,7.49684 40.1032,8.69151 L40.1032,39.4078 C40.1032,41.1202 38.7101,42.5133 36.9977,42.5133 L8.0134,42.5133 C6.3011,42.5133 4.90799,41.1202 4.90799,39.4078 Z M8.5856,51.4156 L4.15668,51.4156 L10.7758,44.5836 L13.5357,44.5836 L8.5856,51.4156 Z M14.5922,46.6539 L16.0922,44.5836 L29.0113,44.5836 L30.5112,46.6539 L14.5922,46.6539 Z M36.5178,51.4156 L31.5679,44.5836 L34.324,44.5836 L40.8636,51.4156 L36.5178,51.4156 Z" fill-rule="nonzero"></path>
            <path d="M36.9978,8.76718 L8.0134,8.76718 C7.4418,8.76718 6.9783,9.23072 6.9783,9.80234 L6.9783,26.9859 C6.9783,27.5575 7.4418,28.0211 8.0134,28.0211 L36.9978,28.0211 C37.5694,28.0211 38.033,27.5575 38.033,26.9859 L38.033,9.80234 C38.033,9.23072 37.5694,8.76718 36.9978,8.76718 Z M21.4705,25.9508 L9.0486,25.9508 L9.0486,10.8375 L21.4705,10.8375 L21.4705,25.9508 Z M35.9626,25.9508 L23.5408,25.9508 L23.5408,10.8375 L35.9626,10.8375 L35.9626,25.9508 Z" fill-rule="nonzero"></path>
            <path d="M26.6462,4.62656 L18.365,4.62656 C17.7934,4.62656 17.3298,5.0901 17.3298,5.66171 C17.3298,6.23333 17.7934,6.69687 18.365,6.69687 L26.6462,6.69687 C27.2179,6.69687 27.6814,6.23333 27.6814,5.66171 C27.6814,5.0901 27.2179,4.62656 26.6462,4.62656 Z"></path>
            <path d="M33.8923,31.1266 C31.6092,31.1266 29.7517,32.984 29.7517,35.2672 C29.7517,37.5503 31.6092,39.4078 33.8923,39.4078 C36.1755,39.4078 38.033,37.5503 38.033,35.2672 C38.033,32.984 36.1755,31.1266 33.8923,31.1266 Z M33.8923,37.3375 C32.7508,37.3375 31.822,36.4088 31.822,35.2672 C31.822,34.1256 32.7508,33.1969 33.8923,33.1969 C35.0339,33.1969 35.9626,34.1256 35.9626,35.2672 C35.9626,36.4088 35.0339,37.3375 33.8923,37.3375 Z" fill-rule="nonzero"></path>
            <path d="M11.1189,31.1266 C8.8358,31.1266 6.9783,32.984 6.9783,35.2672 C6.9783,37.5503 8.8359,39.4078 11.1189,39.4078 C13.402,39.4078 15.2595,37.5503 15.2595,35.2672 C15.2595,32.984 13.402,31.1266 11.1189,31.1266 Z M11.1189,37.3375 C9.9773,37.3375 9.0486,36.4088 9.0486,35.2672 C9.0486,34.1256 9.9773,33.1969 11.1189,33.1969 C12.2605,33.1969 13.1892,34.1256 13.1892,35.2672 C13.1892,36.4088 12.2605,37.3375 11.1189,37.3375 Z" fill-rule="nonzero"></path>
            <path d="M26.6462,32.1617 L18.365,32.1617 C17.7934,32.1617 17.3298,32.6253 17.3298,33.1969 C17.3298,33.7685 17.7934,34.232 18.365,34.232 L26.6462,34.232 C27.2179,34.232 27.6814,33.7685 27.6814,33.1969 C27.6814,32.6253 27.218,32.1617 26.6462,32.1617 Z"></path>
            <path d="M26.6462,36.3023 L18.365,36.3023 C17.7934,36.3023 17.3298,36.7659 17.3298,37.3375 C17.3298,37.9091 17.7934,38.3727 18.365,38.3727 L26.6462,38.3727 C27.2179,38.3727 27.6814,37.9091 27.6814,37.3375 C27.6814,36.7659 27.218,36.3023 26.6462,36.3023 Z"></path>
        </g>
    </g>
</svg>
