<?xml version="1.0" encoding="UTF-8"?>
<svg width="74px" height="68px" viewBox="0 0 74 68" version="1.1" xmlns="http://www.w3.org/2000/svg" xmlns:xlink="http://www.w3.org/1999/xlink">
    <title>Air booking</title>
    <g id="page" stroke="none" stroke-width="1" fill="none" fill-rule="evenodd">
        <g id="icon" transform="translate(11.000000, 8.000000)" fill="#0044D6">
            <polygon id="Path" points="47.2015 28.662 46.8311 26.9932 45.1213 27.3727 45.4917 29.0416"></polygon>
            <path d="M47.871,24.922 L47.871,20.5161 L41.8871,20.5161 L41.8871,21.6813 L32.4839,16.5881 L32.4839,9.911 C32.4839,9.51863 32.4445,9.12455 32.3676,8.73731 L31.4273,4.03997 C30.9597,1.69856 28.8876,0 26.5,0 C24.1124,0 22.0403,1.69856 21.5719,4.03997 L20.6315,8.73816 C20.5555,9.12455 20.5161,9.51863 20.5161,9.911 L20.5161,16.5881 L11.1129,21.6813 L11.1129,20.5161 L5.12903,20.5161 L5.12903,24.922 L0,27.7002 L0,32.4839 L1.78319,32.4839 L20.5161,29.2261 L20.5161,35.9938 C20.5161,38.0814 20.8358,40.1424 21.4351,42.1367 L12.8226,48.2856 L12.8226,53 L14.6374,53 L24.2295,50.6013 L25.0288,53 L27.9703,53 L28.7696,50.6013 L38.26,52.9744 L40.1774,53 L40.1774,48.2856 L31.5649,42.1359 C32.1642,40.1415 32.4839,38.0814 32.4839,35.993 L32.4839,29.2252 L51.1441,32.4702 L53,32.4839 L53,27.7002 L47.871,24.922 Z M6.83871,22.2258 L9.40323,22.2258 L9.40323,22.6071 L6.83871,23.9962 L6.83871,22.2258 Z M20.5161,24.1039 L9.21773,26.6145 L9.58873,28.284 L20.5161,25.8563 L20.5161,27.4908 L1.70968,30.7614 L1.70968,28.7183 L20.5161,18.5312 L20.5161,24.1039 Z M14.5323,51.2638 L14.5323,49.166 L21.9788,43.8489 L23.6876,48.9763 L14.5323,51.2638 Z M26.7385,51.2903 L26.2606,51.2903 L23.2345,42.2102 C22.5652,40.2022 22.2258,38.1104 22.2258,35.993 L22.2258,9.911 C22.2258,9.63061 22.2532,9.34852 22.3087,9.07326 L23.2491,4.37592 C23.5576,2.83123 24.9245,1.70968 26.5,1.70968 C28.0755,1.70968 29.4424,2.83123 29.7518,4.37506 L30.6921,9.07155 C30.7468,9.34852 30.7742,9.63061 30.7742,9.911 L30.7742,35.9938 C30.7742,38.1113 30.4348,40.2031 29.7655,42.2102 L26.7385,51.2903 Z M38.4677,49.166 L38.4677,51.2638 L29.3124,48.9754 L31.0212,43.8481 L38.4677,49.166 Z M43.5968,22.2258 L46.1613,22.2258 L46.1613,23.9962 L43.5968,22.6071 L43.5968,22.2258 Z M51.2903,30.7614 L32.4839,27.4908 L32.4839,25.8563 L43.4113,28.2849 L43.7823,26.6154 L32.4839,24.1047 L32.4839,18.532 L51.2903,28.7192 L51.2903,30.7614 Z" id="Shape" fill-rule="nonzero"></path>
            <polygon id="Path" points="7.87614 27.3733 6.16626 26.9934 5.79543 28.6624 7.50531 29.0423"></polygon>
        </g>
    </g>
</svg>