<?xml version="1.0" encoding="UTF-8"?>
<svg width="74px" height="68px" viewBox="0 0 74 68" version="1.1" xmlns="http://www.w3.org/2000/svg" xmlns:xlink="http://www.w3.org/1999/xlink">
    <title>Trip request</title>
    <g id="page" stroke="none" stroke-width="1" fill="none" fill-rule="evenodd">
        <g id="canvas" transform="translate(-251.000000, -62.000000)" fill="#0044D6" fill-rule="nonzero">
            <g id="icon" transform="translate(254.000000, 63.000000)">
                <path d="M45.1599294,10.9960081 C41.6132359,7.44564516 36.8975907,5.49027218 31.8813206,5.49027218 C26.8654435,5.49027218 22.1491431,7.44577621 18.6025806,10.9961391 C11.2815625,18.324627 11.2815625,30.2491129 18.6025806,37.5777319 C22.1494052,41.1282258 26.8653125,43.0835988 31.8813206,43.0835988 C36.8974597,43.0835988 41.6131048,41.1282258 45.1599294,37.5776008 C52.4806855,30.2489819 52.4806855,18.324627 45.1599294,10.9960081 Z M43.5544556,35.9736996 C40.4362903,39.0950101 36.2907056,40.8141028 31.8811895,40.8142339 C27.4716734,40.8142339 23.3260887,39.0951411 20.2079234,35.9736996 C13.7704335,29.5295262 13.7704335,19.0440827 20.2079234,12.5997782 C23.3260887,9.47846774 27.4716734,7.759375 31.8811895,7.759375 C36.2907056,7.759375 40.4361593,9.47846774 43.5544556,12.5995161 C49.9919456,19.0439516 49.9919456,29.5295262 43.5544556,35.9736996 Z" id="Shape"></path>
                <path d="M41.6458669,14.5137399 C39.0377419,11.9027319 35.5698085,10.464869 31.8811895,10.464869 C28.1927016,10.464869 24.724506,11.9028629 22.1165121,14.5136089 C21.6736996,14.9570766 21.6739617,15.6753528 22.1172984,16.1182964 C22.560504,16.5611089 23.2790423,16.5608468 23.7219859,16.1175101 C25.9015827,13.9356855 28.7991935,12.7342339 31.8811895,12.7342339 C34.9633165,12.7342339 37.8606653,13.9356855 40.0403931,16.1175101 C40.261996,16.339244 40.5525302,16.4502419 40.8430645,16.4502419 C41.1332056,16.4502419 41.4233468,16.3396371 41.6450806,16.1182964 C42.0885484,15.6754839 42.0888105,14.9570766 41.6458669,14.5137399 Z" id="Shape"></path>
                <path d="M24.9246169,55.9854435 L1.13461694,55.9854435 C0.507943548,55.9854435 0,56.4935181 0,57.1200605 L0,63.7927823 C0,64.4194556 0.508074597,64.9273992 1.13461694,64.9273992 L6.0615121,64.9273992 C6.68818548,64.9273992 7.19612903,64.4193246 7.19612903,63.7927823 C7.19612903,63.1662399 6.68805444,62.6581653 6.0615121,62.6581653 L2.26923387,62.6581653 L2.26923387,58.2546774 L23.789869,58.2546774 L23.789869,62.6581653 L13.408871,62.6581653 C12.7821976,62.6581653 12.274254,63.1662399 12.274254,63.7927823 C12.274254,64.4193246 12.7823286,64.9273992 13.408871,64.9273992 L24.9244859,64.9273992 C25.5511593,64.9273992 26.0591028,64.4193246 26.0591028,63.7927823 L26.0591028,57.1200605 C26.0592339,56.4933871 25.5512903,55.9854435 24.9246169,55.9854435 Z" id="Shape"></path>
                <path d="M66.7644355,51.6563911 L57.0655444,41.957369 C56.6224698,41.5142944 55.9041935,41.5141633 55.4608569,41.957369 L54.9083569,42.509869 L51.4085786,39.0111391 C57.1053831,31.3748185 57.8940323,20.910998 53.1119456,12.4540524 C52.8034577,11.908498 52.110998,11.716381 51.5658367,12.025 C51.0204133,12.3334879 50.8281653,13.0255544 51.1366532,13.5711089 C55.6848185,21.6144657 54.6745665,31.660373 48.8003226,38.6501008 C48.7809274,38.6732964 48.7619254,38.6963609 48.7425302,38.7194254 C48.6665222,38.8089315 48.5894657,38.8977823 48.5118851,38.9862399 C48.4766331,39.0263407 48.4415121,39.0664415 48.405998,39.1065423 C48.335494,39.1859577 48.2643347,39.2649798 48.1925202,39.3434778 C48.1452117,39.3952419 48.097248,39.4464819 48.0492843,39.4979839 C47.9828427,39.5692742 47.9166633,39.6404335 47.8491734,39.7109375 C47.7975403,39.7649294 47.7447278,39.818004 47.6925706,39.8716028 C47.6305847,39.9351613 47.5689919,39.9989819 47.5060887,40.0618851 C47.2373085,40.3305343 46.9630242,40.5907964 46.6840222,40.8426714 C46.6702621,40.855121 46.6562399,40.8669153 46.6426109,40.8792339 C42.4506351,44.6438609 37.1561492,46.526371 31.8596976,46.5257157 C26.1939516,46.5253226 20.526371,44.370494 16.2133065,40.061754 C12.0339113,35.8870766 9.73243952,30.3367843 9.73243952,24.4330544 C9.73243952,18.5294556 12.0339113,12.9791633 16.2130444,8.80448589 C24.8403528,0.185826613 38.8783871,0.185826613 47.5060887,8.80448589 C47.9496875,9.24742944 48.6680948,9.24703629 49.1106452,8.80356855 C49.5535887,8.3603629 49.5533266,7.6418246 49.1098589,7.1990121 C39.5978427,-2.3031754 24.1210282,-2.30304435 14.6092742,7.1990121 C10.0010887,11.8023488 7.46333669,17.9228327 7.46320565,24.4329234 C7.46320565,27.5339214 8.04021169,30.5460685 9.14141129,33.3484073 L1.13461694,33.3484073 C0.507943548,33.3484073 0,33.8564819 0,34.4830242 L0,41.155746 C0,41.7824194 0.508074597,42.2903629 1.13461694,42.2903629 L15.258619,42.2903629 C16.1294355,43.0989315 17.0448085,43.8331956 17.9977923,44.4909274 L1.13461694,44.4909274 C0.507943548,44.4909274 0,44.999002 0,45.6255444 L0,52.2981351 C0,52.9248085 0.508074597,53.432752 1.13461694,53.432752 L41.8521371,53.432752 C42.4789415,53.432752 42.986754,52.9246774 42.986754,52.2981351 L42.986754,46.1226109 C44.1969859,45.5040625 45.3658065,44.7777923 46.4791935,43.9443246 L49.977006,47.4412198 L49.424244,47.9939819 C49.2115524,48.2066734 49.0920363,48.495373 49.0920363,48.7962601 C49.0920363,49.0971472 49.2115524,49.3858468 49.424244,49.5985383 L59.1232661,59.2975605 C59.3360887,59.5103831 59.6246573,59.6298992 59.9256754,59.6298992 C60.2266935,59.6298992 60.515131,59.5103831 60.7280847,59.2975605 L66.7646976,53.2608165 C67.2075101,52.818004 67.2075101,52.0994657 66.7644355,51.6563911 Z M2.26923387,40.0212601 L2.26923387,35.6177722 L10.1719758,35.6177722 C10.979496,37.1763306 11.960131,38.6520665 13.1044456,40.0212601 L2.26923387,40.0212601 Z M40.7175202,51.1637802 L2.26923387,51.1637802 L2.26923387,46.7605544 L21.4920665,46.7605544 C21.6371371,46.7605544 21.7753931,46.732248 21.9029032,46.6825806 C25.0616935,48.089123 28.4600403,48.7939012 31.8590423,48.7939012 C34.8675202,48.7939012 37.8753427,48.2412702 40.7173891,47.1395464 L40.7175202,51.1637802 Z M48.2393044,42.4954536 C48.3547581,42.390746 48.4685081,42.2839415 48.5822581,42.1771371 C48.6095161,42.1515827 48.6370363,42.1268145 48.6641633,42.100998 C48.8146069,41.9581552 48.9636089,41.8137399 49.110252,41.6673589 C49.1681754,41.6094355 49.2242641,41.5500706 49.2816633,41.491754 C49.351381,41.4205948 49.4214919,41.3498286 49.4901613,41.2781452 C49.5586996,41.2064617 49.6260585,41.134123 49.6935484,41.0617843 C49.7514718,40.9997984 49.8095262,40.9375504 49.8669254,40.8750403 C49.8981149,40.8409677 49.9304839,40.8074194 49.9614113,40.7732157 L53.3039315,44.1146875 L51.5816935,45.8367944 L48.2393044,42.4954536 Z M59.9254133,56.8908569 L51.8309476,48.7963911 L52.3804335,48.2470363 C52.3816129,48.2458569 52.3830544,48.2449395 52.3842339,48.2437601 L55.7110282,44.9169657 C55.7120766,44.9159173 55.7128629,44.914869 55.7139113,44.9138206 L56.2632661,44.3644657 L64.3576008,52.4588004 L59.9254133,56.8908569 Z" id="Shape"></path>
            </g>
        </g>
    </g>
</svg>