<?xml version="1.0" encoding="UTF-8"?>
<svg width="74px" height="68px" viewBox="0 0 74 68" version="1.1" xmlns="http://www.w3.org/2000/svg" xmlns:xlink="http://www.w3.org/1999/xlink">
    <title>Hotel booking</title>
    <g id="page" stroke="none" stroke-width="1" fill="none" fill-rule="evenodd">
        <g id="canvas" transform="translate(0.000000, -60.000000)" fill="#0044D6" fill-rule="nonzero">
            <g id="icon" transform="translate(1.000000, 66.000000)">
                <path d="M34.250143,40.3787879 L36.749857,40.3787879 C37.4398674,40.3787879 38,39.9378714 38,39.3941648 C38,38.8500072 37.4398674,38.4090909 36.749857,38.4090909 L34.250143,38.4090909 C33.5595605,38.4090909 33,38.8500072 33,39.3941648 C33,39.9378714 33.5595605,40.3787879 34.250143,40.3787879 Z" id="Shape"></path>
                <path d="M41.2497139,40.3787879 L43.7497139,40.3787879 C44.4403753,40.3787879 45,39.9378714 45,39.3941648 C45,38.8500072 44.4403753,38.4090909 43.7497139,38.4090909 L41.2497139,38.4090909 C40.5596247,38.4090909 40,38.8500072 40,39.3941648 C40,39.9378714 40.5596247,40.3787879 41.2497139,40.3787879 Z" id="Shape"></path>
                <path d="M65.3387301,25.6060606 C65.6936001,25.6060606 66.0343733,25.4672379 66.28505,25.2197715 L67.6242398,23.9009566 C68.1378511,23.3776556 68.1231415,22.542909 67.591143,22.0365083 C67.0726283,21.5433861 66.2495018,21.5433861 65.7309871,22.0365083 L64.3917974,23.3553233 C63.8689925,23.8701741 63.8696053,24.7049207 64.3924102,25.2197715 C64.6430871,25.4672379 64.9838601,25.6060606 65.3387301,25.6060606 Z" id="Shape"></path>
                <path d="M71.7497139,27.5757576 L69.2497139,27.5757576 C68.5596246,27.5757576 68,28.016674 68,28.5603806 C68,29.1045381 68.5596246,29.5454545 69.2497139,29.5454545 L71.7497139,29.5454545 C72.4403754,29.5454545 73,29.1045381 73,28.5603806 C73,28.016674 72.4403754,27.5757576 71.7497139,27.5757576 Z" id="Shape"></path>
                <path d="M12.4737811,19.0157292 C12.8026299,19.6241577 13.6037028,19.8709091 14.2620103,19.5666949 C14.9209279,19.263044 15.1881555,18.5239161 14.8593068,17.9154876 L13.5262189,15.4541691 C13.1973702,14.8457406 12.3969074,14.5989891 11.7379898,14.9026399 C11.0790722,15.2062908 10.8118446,15.9459821 11.1406931,16.5544105 L12.4737811,19.0157292 Z" id="Shape"></path>
                <path d="M58.7383217,19.5666815 C59.3965622,19.8708949 60.1969436,19.6241439 60.5257588,19.0162805 C60.5263688,19.0162805 60.5263688,19.0157172 60.5263688,19.0157172 L61.8593212,16.5544056 C62.1881363,15.9459788 61.9209359,15.2062897 61.2620853,14.9026396 C60.6032348,14.5989895 59.8028534,14.8457405 59.4740382,15.4541672 L58.141086,17.9154788 C57.8116607,18.5233422 58.0788611,19.2624681 58.7371016,19.5666815 L58.7383217,19.5666815 Z" id="Shape"></path>
                <path d="M6.72182484,25.234504 C7.25601977,25.7423696 8.1071622,25.7278246 8.6228941,25.2017775 C9.12570197,24.6890636 9.12570197,23.8751453 8.6228941,23.3624314 L7.27817532,22.0382233 C6.74398039,21.5303577 5.89283796,21.5449027 5.3771059,22.0709497 C4.87429803,22.5842697 4.87429803,23.3975819 5.3771059,23.9102959 L6.72182484,25.234504 Z" id="Shape"></path>
                <path d="M1.25028609,29.5454545 L3.75028609,29.5454545 C4.44037544,29.5454545 5,29.1045381 5,28.5603806 C5,28.016674 4.44037544,27.5757576 3.75028609,27.5757576 L1.25028609,27.5757576 C0.559624563,27.5757576 0,28.016674 0,28.5603806 C0,29.1045381 0.559624563,29.5454545 1.25028609,29.5454545 Z" id="Shape"></path>
                <path d="M5.45047434,31.5876939 C5.23575008,32.6769088 4.60553895,33.6464556 3.68694268,34.3011109 C2.65231804,35.0754344 2.04762356,36.275401 2.05147511,37.5466993 L2.05147511,38.5720912 C2.05147511,39.1380513 2.52232804,39.5974831 3.10343164,39.5974831 L28.3446118,39.5974831 L28.3446118,41.6477978 L6.25833852,41.6477978 C5.67771621,41.6477978 5.20686341,42.1067604 5.20686341,42.6727205 L5.20686341,45.9370804 C3.95077422,46.3697629 3.10872756,47.5251474 3.10343164,48.8236643 L3.10343164,49.0935042 C3.06395324,49.64257 2.76353178,50.1423606 2.29123461,50.4436427 C1.48096324,51.0236815 1.00192578,51.9444224 1,52.9242935 L1,54.9750773 C1,55.5410374 1.47085293,56 2.05147511,56 L60.9485249,56 C61.5291471,56 62,55.5410374 62,54.9750773 L62,52.9242935 C61.9980742,51.9444224 61.5190368,51.0232121 60.7087654,50.4427042 C60.2359868,50.1414221 59.9355653,49.6421008 59.8965684,49.0935042 L59.8965684,48.8236643 C59.8912724,47.5251474 59.0492258,46.3697629 57.7931366,45.9370804 L57.7931366,42.6727205 C57.7931366,42.1067604 57.3222838,41.6477978 56.7416615,41.6477978 L34.6553882,41.6477978 L34.6553882,39.5974831 L59.8965684,39.5974831 C60.477672,39.5974831 60.9485249,39.1380513 60.9485249,38.5720912 L60.9485249,37.5466993 C60.9523764,36.275401 60.347682,35.0754344 59.3130573,34.3011109 C58.3949425,33.6459863 57.7652129,32.6764396 57.5504885,31.5876939 C56.2159239,23.7796978 49.0934318,15.3527124 39.9137267,15.3527124 L37.8873262,15.3527124 C38.0067245,15.0321894 38.0693122,14.6938336 38.0731638,14.3521927 C38.0731638,12.6538432 36.6606052,11.2769554 34.918257,11.2769554 L32.8148254,11.2769554 L32.8148254,10.1492589 C35.6601632,9.58282955 37.4963931,6.87551327 36.9152894,4.10155818 C36.3346671,1.32807246 33.5567315,-0.461787956 30.7113936,0.104641401 C27.8655744,0.670601382 26.029826,3.37838704 26.6104481,6.15187276 C27.0321937,8.16511376 28.6459961,9.73816356 30.7113936,10.1492589 L30.7113936,11.2769554 L28.607962,11.2769554 C26.8651323,11.2769554 25.4525738,12.6538432 25.4525738,14.3521927 C25.4564253,14.6938336 25.5194945,15.0321894 25.6388928,15.3531817 L23.0862733,15.3531817 C13.9065682,15.3527124 6.78407608,23.7796978 5.45047434,31.5876939 Z M57.8888908,48.9997711 L57.8888908,49.2629892 C57.9193323,50.4380865 58.5436241,51.5275807 59.5675206,52.1918059 C59.8405274,52.3794919 60.0019155,52.6802473 59.9999828,52.9997711 L60,54 L3,54 L3.00001716,52.9997711 C2.9980845,52.6802473 3.15947256,52.3794919 3.43247938,52.1918059 C4.45637591,51.5275807 5.08066769,50.4380865 5.1111092,49.2629892 L5.1111092,48.9997711 C5.1111092,48.4476997 5.58367675,48 6.16641357,48 L56.8335864,48 C57.4163233,48 57.8888908,48.4476997 57.8888908,48.9997711 Z M55,44 L55,46 L7,46 L7,44 L55,44 Z M30,42 L30,40 L32,40 L32,42 L30,42 Z M29,5.00022893 C29,3.34309916 30.3430992,2 31.9997711,2 C33.656901,2 35,3.34309916 35,5.00022893 C35,6.65690096 33.656901,8 31.9997711,8 C30.3430992,8 29,6.65690096 29,5.00022893 Z M29.0002289,13 L35.0002289,13 C35.5523002,13 36,13.4530924 36,14.0118138 C35.9954222,14.5195738 35.616846,14.9439426 35.1183338,15 L28.8821241,15 C28.383154,14.9439426 28.0045776,14.5195738 28,14.0118138 C28,13.4530924 28.4476996,13 29.0002289,13 Z M39.9613777,17 C48.0857796,17 54.4105152,24.4840995 55.6151345,31.4179112 C55.9114476,33.0086666 56.8299214,34.4298162 58.1822131,35.3878107 C58.700761,35.7736179 59.0028842,36.3695688 59,37 L4,37 C3.99855276,36.3686368 4.30261262,35.772686 4.82309728,35.3878107 C5.01967094,35.2424341 5.18041596,35.0751578 5.3518127,34.9176666 C5.39393567,34.9293153 5.43702693,34.9377025 5.48060245,34.9428278 L25.1539531,34.9642616 C25.7378643,34.9642616 26.2113842,34.5085618 26.2113842,33.9466254 C26.2113842,33.3842229 25.7378643,32.9285232 25.1539531,32.9285232 L6.8856688,32.9084873 C7.12194461,32.4355474 7.29188893,31.9341845 7.39017582,31.4183771 C8.58946921,24.4803719 14.9142048,17 23.0386067,17 L39.9613777,17 Z" id="Shape"></path>
            </g>
        </g>
    </g>
</svg>