<?xml version="1.0" encoding="UTF-8"?>
<svg width="74px" height="68px" viewBox="0 0 74 68" version="1.1" xmlns="http://www.w3.org/2000/svg" xmlns:xlink="http://www.w3.org/1999/xlink">
    <title>Transfer booking</title>
    <g id="page" stroke="none" stroke-width="1" fill="none" fill-rule="evenodd">
        <g id="canvas" transform="translate(6.000000, 12.000000)" fill="#0044D6">
            <path d="M19.9035,12.4532 L17.6847,12.4532 C17.1102,12.4532 16.6443,12.919 16.6443,13.4935 C16.6443,14.068 17.1101,14.5339 17.6847,14.5339 L19.9035,14.5339 C20.4779,14.5339 20.9438,14.0681 20.9438,13.4935 C20.9437,12.919 20.4779,12.4532 19.9035,12.4532 Z" id="Path"></path>
            <path d="M44.5888,21.0474 C44.1786,20.522 43.5609,20.2206 42.8942,20.2206 L19.1057,20.2206 C18.4391,20.2206 17.8215,20.522 17.4112,21.0474 C17.0009,21.5729 16.8582,22.2451 17.02,22.8919 L17.5749,25.1113 C17.8146,26.07 18.6723,26.7397 19.6606,26.7397 L42.3395,26.7397 C43.3278,26.7397 44.1854,26.07 44.4252,25.1112 L44.9801,22.8919 C45.1418,22.245 44.9991,21.5728 44.5888,21.0474 Z M42.9616,22.3874 L42.4067,24.6066 C42.399,24.6377 42.3714,24.6591 42.3395,24.6591 L19.6606,24.6591 C19.6287,24.6591 19.6009,24.6375 19.5933,24.6067 L19.0384,22.3874 C19.0359,22.3776 19.0302,22.3546 19.051,22.328 C19.0718,22.3013 19.0956,22.3013 19.1056,22.3013 L42.8942,22.3013 C42.9044,22.3013 42.928,22.3013 42.9489,22.328 C42.9697,22.3546 42.9641,22.3775 42.9616,22.3874 Z" id="Shape" fill-rule="nonzero"></path>
            <path d="M50.9732,27.9879 C49.7877,27.9879 48.8233,28.9523 48.8233,30.1378 C48.8233,31.3233 49.7877,32.2877 50.9732,32.2877 C52.1587,32.2877 53.1231,31.3233 53.1231,30.1378 C53.1231,28.9523 52.1587,27.9879 50.9732,27.9879 Z" id="Path"></path>
            <path d="M11.0268,27.9879 C9.84128,27.9879 8.87689,28.9523 8.87689,30.1378 C8.87689,31.3233 9.84128,32.2877 11.0268,32.2877 C12.2123,32.2877 13.1767,31.3233 13.1767,30.1378 C13.1767,28.9523 12.2122,27.9879 11.0268,27.9879 Z" id="Path"></path>
            <path d="M51.528,19.111 C49.4247,19.111 47.7136,20.822 47.7136,22.9253 C47.7136,25.0286 49.4247,26.7396 51.528,26.7396 C53.6312,26.7396 55.3423,25.0286 55.3423,22.9253 C55.3423,20.822 53.6312,19.111 51.528,19.111 Z M51.528,24.659 C50.5719,24.659 49.7941,23.8813 49.7941,22.9252 C49.7941,21.969 50.5718,21.1914 51.528,21.1914 C52.4841,21.1914 53.2618,21.969 53.2618,22.9252 C53.2618,23.8813 52.484,24.659 51.528,24.659 Z" id="Shape" fill-rule="nonzero"></path>
            <path d="M10.472,19.111 C8.36877,19.111 6.65771,20.822 6.65771,22.9253 C6.65771,25.0286 8.36877,26.7396 10.472,26.7396 C12.5753,26.7396 14.2864,25.0286 14.2864,22.9253 C14.2864,20.822 12.5753,19.111 10.472,19.111 Z M10.472,24.659 C9.51601,24.659 8.73823,23.8813 8.73823,22.9252 C8.73823,21.969 9.51589,21.1914 10.472,21.1914 C11.4281,21.1914 12.2059,21.969 12.2059,22.9252 C12.2059,23.8813 11.4282,24.659 10.472,24.659 Z" id="Shape" fill-rule="nonzero"></path>
            <path d="M39.6174,0.2343 L39.6201,0.2475 L47.532,0.2475 C49.3624,0.2475 51.0126,1.4032 51.638,3.1236 L54.4131,10.7553 C54.6626,9.2039 56.0103,8.0148 57.6309,8.0148 L58.7405,8.0148 C60.5378,8.0148 62,9.477 62,11.2743 C62,13.0715 60.5378,14.5337 58.7405,14.5337 L57.6308,14.5337 C57.1185,14.5337 56.6336,14.4146 56.2018,14.203 L58.5801,17.176 C59.3543,18.1437 59.7807,19.3592 59.7807,20.5985 L59.7807,41.2339 C59.7807,42.4194 58.8163,43.3838 57.6308,43.3838 L54.3019,43.3838 C53.1164,43.3838 52.152,42.4194 52.152,41.2339 L52.152,36.7261 L9.84783,36.7261 L9.84783,41.2339 C9.84783,42.4194 8.88344,43.3838 7.69793,43.3838 L4.36906,43.3838 C3.18356,43.3838 2.21917,42.4194 2.21917,41.2339 L2.21917,20.5985 C2.21917,19.3592 2.64553,18.1438 3.41981,17.176 L5.79809,14.203 C5.36627,14.4146 4.88141,14.5337 4.36906,14.5337 L3.25948,14.5337 C1.46221,14.5337 0,13.0715 0,11.2743 C0,9.477 1.46221,8.0148 3.2596,8.0148 L4.36918,8.0148 C5.98978,8.0148 7.33755,9.2039 7.58689,10.7551 L10.3619,3.1234 C10.9873,1.4033 12.6375,0.2475 14.4679,0.2475 L22.3798,0.2475 L22.3825,0.2343 L24.5041,0.2343 L24.5015,0.2475 L37.4983,0.2475 L37.4956,0.2343 L39.6174,0.2343 Z M3.2596,12.4532 L4.36918,12.4532 C5.01921,12.4532 5.54815,11.9243 5.54815,11.2743 C5.54815,10.6241 5.01934,10.0953 4.36918,10.0953 L3.2596,10.0953 C2.60945,10.0953 2.08063,10.6241 2.08063,11.2743 C2.08063,11.9244 2.60945,12.4532 3.2596,12.4532 Z M7.69793,41.3033 C7.73619,41.3033 7.76731,41.2722 7.76731,41.2339 L7.7672,41.2339 L7.7672,36.7261 L6.58823,36.7261 C5.74965,36.7261 4.96569,36.488 4.29967,36.0768 L4.29967,41.2339 C4.29967,41.2722 4.3308,41.3033 4.36906,41.3033 L7.69793,41.3033 Z M18.7248,34.6456 L43.2753,34.6456 L43.2753,32.357 C43.2753,32.3188 43.2442,32.2877 43.2059,32.2877 L18.7942,32.2877 C18.756,32.2877 18.7248,32.3188 18.7248,32.357 L18.7248,34.6456 Z M57.6308,41.3033 C57.6691,41.3033 57.7002,41.2722 57.7002,41.2339 L57.7001,41.2339 L57.7001,36.0768 C57.0341,36.488 56.2501,36.7261 55.4115,36.7261 L54.2326,36.7261 L54.2326,41.2339 C54.2326,41.2722 54.2637,41.3033 54.3019,41.3033 L57.6308,41.3033 Z M57.7003,20.5986 C57.7003,19.8299 57.4357,19.076 56.9557,18.4757 L53.8023,14.5337 L48.7542,14.5337 C48.1796,14.5337 47.7138,14.0679 47.7138,13.4934 C47.7138,12.9188 48.1797,12.4531 48.7542,12.4531 L52.817,12.4531 L49.6828,3.8343 C49.3551,2.9333 48.4909,2.3279 47.5321,2.3279 L14.4682,2.3279 C13.5093,2.3279 12.645,2.9332 12.3174,3.8343 L9.18327,12.4531 L37.6577,12.4531 C38.2323,12.4531 38.6981,12.919 38.6981,13.4934 C38.6981,14.068 38.2322,14.5337 37.6577,14.5337 L8.19793,14.5337 L5.04453,18.4757 C4.56427,19.076 4.2998,19.8299 4.2998,20.5986 L4.2998,32.357 C4.2998,33.619 5.32643,34.6456 6.58835,34.6456 L16.6443,34.6456 L16.6443,32.357 C16.6443,31.1715 17.6087,30.2071 18.7942,30.2071 L43.2058,30.2071 C44.3913,30.2071 45.3557,31.1715 45.3557,32.357 L45.3557,34.6456 L55.4118,34.6456 C56.6737,34.6456 57.7003,33.619 57.7003,32.357 L57.7003,20.5986 Z M57.6308,10.0953 C56.9807,10.0953 56.4518,10.6241 56.4518,11.2743 C56.4518,11.9243 56.9808,12.4532 57.6308,12.4532 L58.7404,12.4532 C59.3906,12.4532 59.9194,11.9244 59.9194,11.2743 C59.9194,10.6241 59.3906,10.0953 58.7404,10.0953 L57.6308,10.0953 Z" id="Shape"></path>
        </g>
    </g>
</svg>
