<?xml version="1.0" encoding="UTF-8"?>
<svg width="187" height="36" viewBox="0 0 187 36" fill="none" xmlns="http://www.w3.org/2000/svg">
  <path fill-rule="evenodd" clip-rule="evenodd" d="M17.8598 36C27.7235 36 35.7197 27.9411 35.7197 18C35.7197 8.05888 27.7235 0 17.8598 0C7.99612 0 0 8.05888 0 18C0 27.9411 7.99612 36 17.8598 36Z" fill="#0F80D1"/>
  <path fill-rule="evenodd" clip-rule="evenodd" d="M23.4479 8.53328L27.1518 7.48511V7.66379L24.2706 11.546C24.1983 11.5051 24.1155 11.4819 24.0275 11.4819C24.0159 11.4819 24.0042 11.4823 23.9925 11.4831L23.4479 8.53328ZM23.7647 11.5579L23.2182 8.59829L19.7959 9.56675V10.6492H20.9823V12.5143L23.5428 11.8422C23.5833 11.7224 23.6625 11.622 23.7647 11.5579ZM27.1518 18.06L24.4067 12.3886C24.4713 12.3142 24.5166 12.2209 24.5338 12.1173L27.1518 12.8045V18.06ZM27.1518 18.6104V27.8019H20.9823V16.1236L23.7743 12.4942C23.8491 12.5388 23.9355 12.5643 24.0275 12.5643C24.0914 12.5643 24.1524 12.5521 24.2088 12.5297L27.1518 18.6104ZM20.9823 12.7717V15.7267L23.6 12.3238C23.5592 12.2595 23.5311 12.1855 23.5194 12.1058L20.9823 12.7717ZM27.152 12.547L24.5166 11.8553C24.5006 11.8038 24.4775 11.7556 24.4485 11.7122L27.152 8.06952V12.547ZM12.456 11.1588L14.1635 8.14048L10.7024 9.07429V8.15248L8.67679 11.0466V12.5321L11.7366 11.6954C11.7356 11.6816 11.735 11.6676 11.735 11.6536C11.735 11.3586 11.9694 11.1194 12.2584 11.1194C12.3283 11.1194 12.3951 11.1334 12.456 11.1588ZM16.1635 9.39364L16.1664 9.39317L16.4397 8.56137L15.1167 9.39364L14.434 8.155L12.6532 11.3031C12.684 11.3393 12.7102 11.3797 12.7307 11.4234L15.6827 10.6162C15.7063 10.3633 15.9027 10.1618 16.15 10.1361L16.1635 9.39364ZM16.2794 15.9921L16.3618 11.1769C16.5738 11.1085 16.7274 10.9063 16.7274 10.6674C16.7274 10.6402 16.7253 10.6135 16.7215 10.5874L18.1623 10.1934C18.4993 10.5591 18.8751 11.035 19.2236 11.6125L18.4988 11.9412L19.5481 12.5206L19.6261 16.6255L19.143 16.0502L18.9819 16.7075L18.9994 16.7796L16.6435 16.4417C16.6201 16.2291 16.4743 16.0541 16.2794 15.9921ZM16.0432 15.9742C15.8602 16.003 15.7085 16.1283 15.6396 16.2978L14.6716 16.1588C14.7943 15.537 14.5587 14.1678 13.9205 14.9414L11.4923 13.9901C11.493 13.9784 11.4934 13.9665 11.4934 13.9546C11.4934 13.816 11.4417 13.6898 11.3569 13.5948L12.1583 12.178C12.1907 12.1844 12.2242 12.1877 12.2583 12.1877C12.5437 12.1877 12.7758 11.9546 12.7816 11.6648L15.7164 10.8622C15.7841 11.0386 15.941 11.1693 16.1307 11.1964L16.0432 15.9742ZM13.9412 22.0306L15.9648 20.2538L16.0239 17.0268C15.7945 16.9817 15.6184 16.7839 15.6012 16.5412L14.5945 16.3968C14.2919 17.0811 13.2947 17.6717 12.2386 18.297L12.238 18.2973L12.238 18.2974C11.7045 18.6132 11.156 18.938 10.6745 19.2881L13.1105 21.8627C13.2039 21.7745 13.3288 21.7206 13.466 21.7206C13.6766 21.7206 13.8582 21.8475 13.9412 22.0306ZM16.2064 20.2692L16.2621 17.0175C16.4254 16.9719 16.557 16.8473 16.615 16.6865L19.0621 17.0376L19.2017 17.6117L16.4054 21.2274L16.2064 20.2692ZM16.3927 9.36725C16.7669 9.2976 17.0168 9.28339 17.1425 9.32462C17.2502 9.35993 17.569 9.58773 17.9687 9.99105L16.63 10.3571C16.5682 10.269 16.4809 10.2008 16.3791 10.1639L16.3927 9.36725ZM9.37544 17.6247L9.4522 17.8978C9.88001 17.6499 10.4619 17.084 11.0907 16.3789C12.584 16.1506 13.318 15.9792 13.7818 15.1512L11.4206 14.2262C11.3295 14.3834 11.1618 14.4888 10.9699 14.4888C10.9314 14.4888 10.894 14.4845 10.8579 14.4765L9.52794 16.8276C9.59888 16.9187 9.64126 17.034 9.64126 17.1596C9.64126 17.359 9.53416 17.533 9.37544 17.6247ZM9.23028 18.0021C9.20546 18.0106 9.18144 18.0173 9.15824 18.0224C9.15824 19.0344 8.65536 19.6406 8.19197 19.2552L8.16945 19.2292L9.04125 17.688C9.0663 17.6918 9.09191 17.6937 9.11797 17.6937C9.12651 17.6937 9.13501 17.6935 9.14346 17.6932L9.23028 18.0021ZM8.39758 13.0417L8.17691 13.358L9.09505 16.6259L9.1181 16.6255C9.19595 16.6255 9.2698 16.6428 9.33619 16.6739L10.64 14.3691C10.522 14.2712 10.4467 14.1219 10.4467 13.9546C10.4467 13.9183 10.4502 13.8828 10.457 13.8486L8.39758 13.0417ZM8.0055 13.6426L8.86262 16.6932C8.70274 16.7847 8.59466 16.9593 8.59466 17.1596C8.59466 17.3393 8.68163 17.4983 8.81497 17.5951L7.884 19.2408L7.78945 19.3373H7.40081L6.36304 18.2729V16.6428C6.57349 16.2663 7.12098 15.2663 8.0055 13.6426ZM8.55111 12.8217L8.54229 12.8344L10.5587 13.6243C10.6545 13.5002 10.8032 13.4204 10.9701 13.4204C11.0359 13.4204 11.0988 13.4328 11.1568 13.4555L11.9375 12.0755C11.887 12.0355 11.8439 11.9863 11.8107 11.9303L8.55111 12.8217ZM10.4718 19.4286L12.9453 22.0428C12.7465 22.1059 12.5945 22.2195 12.4894 22.3833H7.19341C7.38585 21.8595 8.20194 20.9617 10.4718 19.4286ZM13.0936 22.6297H7.14546V27.8019H7.71426L13.121 22.656C13.1116 22.6476 13.1024 22.6389 13.0936 22.6297ZM16.235 22.6245H19.7959V27.8019H19.2724L13.8384 22.6302L13.8389 22.6297H16.235V22.6245ZM8.06845 27.8019L13.3497 22.7755C13.3872 22.7843 13.4263 22.7889 13.4663 22.7889C13.5216 22.7889 13.5749 22.7802 13.6249 22.7639L18.9184 27.8019H8.06845Z" fill="white"/>
  <path fill-rule="evenodd" clip-rule="evenodd" d="M74.0838 16.7123C74.4837 15.6884 74.6838 14.5817 74.6838 13.3921C74.6838 12.2101 74.4837 11.1072 74.0838 10.0833C73.6839 9.05939 73.1206 8.171 72.394 7.41813C71.6675 6.66525 70.7923 6.07237 69.7686 5.63946C68.7448 5.20656 67.6091 4.99011 66.3615 4.99011C65.1139 4.99011 63.9763 5.20468 62.9489 5.63382C61.9215 6.06296 61.0427 6.65396 60.3125 7.40683C59.5822 8.15971 59.0172 9.04809 58.6171 10.072C58.2172 11.0959 58.0173 12.2027 58.0173 13.3921C58.0173 14.5817 58.2172 15.6884 58.6171 16.7123C59.0172 17.7363 59.5822 18.6265 60.3125 19.3832C61.0427 20.1398 61.9215 20.7327 62.9489 21.1618C63.9763 21.5909 65.1139 21.8055 66.3615 21.8055C67.6091 21.8055 68.7448 21.5909 69.7686 21.1618C70.7923 20.7327 71.6675 20.1398 72.394 19.3832C73.1206 18.6265 73.6839 17.7363 74.0838 16.7123ZM55.7152 21.6249V5.1708H51.9724V12.0483H45.4555V5.1708H41.7126V21.6249H45.4555V14.6683H51.9724V21.6249H55.7152ZM70.8748 13.3921C70.8748 12.5791 70.772 11.8469 70.5665 11.1957C70.361 10.5444 70.0656 9.99295 69.6803 9.54122C69.2951 9.0895 68.8236 8.74319 68.2657 8.50226C67.708 8.26134 67.0732 8.14089 66.3614 8.14089C65.6421 8.14089 65.0018 8.26134 64.4404 8.50226C63.8789 8.74319 63.4056 9.0895 63.0203 9.54122C62.635 9.99295 62.3397 10.5444 62.1342 11.1957C61.9287 11.8469 61.826 12.5791 61.826 13.3921C61.826 14.2128 61.9287 14.9487 62.1342 15.6C62.3397 16.2512 62.635 16.8027 63.0203 17.2544C63.4056 17.7061 63.8789 18.0505 64.4404 18.2877C65.0018 18.5248 65.6421 18.6435 66.3614 18.6435C67.0732 18.6435 67.708 18.5248 68.2657 18.2877C68.8236 18.0505 69.2951 17.7061 69.6803 17.2544C70.0656 16.8027 70.361 16.2512 70.5665 15.6C70.772 14.9487 70.8748 14.2128 70.8748 13.3921ZM83.5081 12.7089C83.1521 12.8407 82.721 12.9066 82.2146 12.9066H80.7175V8.02795H82.2146C83.176 8.02795 83.886 8.23123 84.3447 8.63778C84.8034 9.04433 85.0327 9.60898 85.0327 10.3317C85.0327 10.6931 84.9813 11.03 84.8786 11.3425C84.7758 11.6549 84.6107 11.9278 84.3832 12.1613C84.1557 12.3946 83.864 12.5772 83.5081 12.7089ZM90.1185 21.6249H86.75C86.1262 21.6249 85.6785 21.3839 85.4069 20.9021L82.743 16.1251C82.6182 15.9218 82.4787 15.7731 82.3246 15.679C82.1706 15.5849 81.9503 15.5379 81.6642 15.5379H80.7175V21.6249H76.9966V5.1708H82.2146C83.3741 5.1708 84.3631 5.29315 85.1813 5.53783C85.9996 5.78252 86.6675 6.12319 87.1848 6.55985C87.7022 6.99652 88.0783 7.51224 88.3132 8.10701C88.548 8.70178 88.6654 9.34925 88.6654 10.0494C88.6654 10.584 88.5957 11.0884 88.4563 11.5627C88.3168 12.037 88.1114 12.4756 87.8398 12.8783C87.5682 13.2812 87.2325 13.6406 86.8326 13.9568C86.4325 14.2731 85.9721 14.5328 85.451 14.736C85.6932 14.864 85.9207 15.024 86.1335 15.216C86.3463 15.408 86.5371 15.6357 86.706 15.8992L90.1185 21.6249ZM100.11 8.92011C100.231 8.82977 100.346 8.69424 100.457 8.51356L101.381 6.74054C101.095 6.4695 100.77 6.22671 100.407 6.01213C100.044 5.79757 99.6529 5.61311 99.2345 5.45878C98.8162 5.30443 98.3741 5.18775 97.908 5.10869C97.442 5.02964 96.9632 4.99011 96.4714 4.99011C95.5908 4.99011 94.8092 5.12752 94.1268 5.40231C93.4442 5.67711 92.8681 6.04413 92.3985 6.50338C91.9287 6.96264 91.5728 7.48589 91.3306 8.07312C91.0885 8.66037 90.9673 9.26267 90.9673 9.88002C90.9673 10.648 91.0701 11.2935 91.2756 11.8168C91.4811 12.34 91.7508 12.7767 92.0846 13.1268C92.4186 13.4769 92.7984 13.7592 93.224 13.9737C93.6497 14.1884 94.0864 14.369 94.534 14.5158C94.9817 14.6627 95.4184 14.7962 95.844 14.9168C96.2697 15.0372 96.6495 15.1765 96.9834 15.3345C97.3173 15.4927 97.587 15.6922 97.7925 15.9332C97.998 16.174 98.1007 16.4865 98.1007 16.8704C98.1007 17.5329 97.9136 18.0167 97.5393 18.3216C97.1651 18.6266 96.6403 18.779 95.9651 18.779C95.4661 18.779 95.0331 18.7075 94.6661 18.5645C94.2992 18.4213 93.9745 18.2633 93.6919 18.0901C93.4094 17.917 93.1562 17.7588 92.9323 17.6158C92.7085 17.4727 92.4865 17.4013 92.2663 17.4013C92.0975 17.4013 91.9416 17.4446 91.7985 17.531C91.6554 17.6176 91.5398 17.725 91.4517 17.853L90.3509 19.6373C90.6664 19.961 91.037 20.2546 91.4627 20.5181C91.8883 20.7816 92.3434 21.0093 92.8277 21.2013C93.3121 21.3933 93.8129 21.542 94.3304 21.6475C94.8477 21.7529 95.356 21.8055 95.8551 21.8055C96.765 21.8055 97.5778 21.6644 98.2933 21.382C99.0089 21.0997 99.6106 20.712 100.099 20.2189C100.587 19.7257 100.959 19.1479 101.216 18.4853C101.473 17.8228 101.601 17.1114 101.601 16.3509C101.601 15.6658 101.499 15.0805 101.293 14.5949C101.088 14.1093 100.818 13.6971 100.484 13.3583C100.15 13.0195 99.7685 12.741 99.3392 12.5226C98.9098 12.3043 98.4713 12.1142 98.0237 11.9523C97.5759 11.7905 97.1375 11.6437 96.7081 11.5119C96.2789 11.3801 95.8972 11.2352 95.5634 11.0771C95.2294 10.919 94.9597 10.7308 94.7542 10.5124C94.5487 10.2941 94.4459 10.0193 94.4459 9.68803C94.4459 9.16855 94.6166 8.75636 94.9578 8.45145C95.2991 8.14653 95.8183 7.99407 96.5155 7.99407C96.9192 7.99407 97.2788 8.04866 97.5943 8.15782C97.9099 8.267 98.1907 8.38933 98.4364 8.52485C98.6823 8.66037 98.9025 8.78271 99.097 8.89188C99.2914 9.00104 99.4731 9.05563 99.6419 9.05563C99.8326 9.05563 99.9887 9.01046 100.11 8.92011ZM107.657 8.10701V11.9466H112.699V14.77H107.657V18.6887H114.24V21.6249H103.914V5.1708H114.24V8.10701H107.657ZM148.48 13.2453C149.448 13.2453 150.145 13.0082 150.571 12.5339C150.997 12.0596 151.21 11.3971 151.21 10.5463C151.21 10.1699 151.155 9.82732 151.044 9.51864C150.934 9.20996 150.767 8.94457 150.544 8.72248C150.32 8.50038 150.037 8.32911 149.696 8.20865C149.354 8.08818 148.949 8.02795 148.48 8.02795H146.542V13.2453H148.48ZM151.392 5.583C150.581 5.3082 149.61 5.1708 148.48 5.1708H142.821V21.6249H146.542V16.1251H148.48C149.588 16.1251 150.547 15.9877 151.358 15.7129C152.169 15.4381 152.839 15.056 153.367 14.5667C153.895 14.0773 154.289 13.4901 154.545 12.805C154.802 12.1198 154.931 11.3669 154.931 10.5463C154.931 9.78591 154.805 9.07821 154.556 8.42321C154.306 7.76821 153.919 7.19979 153.394 6.71796C152.87 6.23611 152.202 5.8578 151.392 5.583ZM162.164 12.9066C162.67 12.9066 163.101 12.8407 163.457 12.7089C163.813 12.5772 164.105 12.3946 164.333 12.1613C164.56 11.9278 164.725 11.6549 164.829 11.3425C164.931 11.03 164.982 10.6931 164.982 10.3317C164.982 9.60898 164.752 9.04433 164.294 8.63778C163.835 8.23123 163.125 8.02795 162.164 8.02795H160.666V12.9066H162.164ZM166.7 21.6249H170.068L166.655 15.8992C166.487 15.6357 166.296 15.408 166.083 15.216C165.87 15.024 165.643 14.864 165.4 14.736C165.921 14.5328 166.382 14.2731 166.782 13.9568C167.182 13.6406 167.518 13.2812 167.789 12.8783C168.061 12.4756 168.266 12.037 168.406 11.5627C168.545 11.0884 168.615 10.584 168.615 10.0494C168.615 9.34925 168.497 8.70178 168.262 8.10701C168.027 7.51224 167.652 6.99652 167.134 6.55985C166.617 6.12319 165.949 5.78252 165.131 5.53783C164.312 5.29315 163.324 5.1708 162.164 5.1708H156.946V21.6249H160.666V15.5379H161.614C161.9 15.5379 162.12 15.5849 162.274 15.679C162.428 15.7731 162.568 15.9218 162.692 16.1251L165.357 20.9021C165.628 21.3839 166.076 21.6249 166.7 21.6249ZM187 13.3921C187 14.5817 186.8 15.6884 186.4 16.7123C186 17.7363 185.437 18.6265 184.71 19.3832C183.984 20.1398 183.108 20.7327 182.084 21.1618C181.061 21.5909 179.925 21.8055 178.678 21.8055C177.43 21.8055 176.292 21.5909 175.265 21.1618C174.237 20.7327 173.358 20.1398 172.629 19.3832C171.898 18.6265 171.334 17.7363 170.933 16.7123C170.533 15.6884 170.334 14.5817 170.334 13.3921C170.334 12.2027 170.533 11.0959 170.933 10.072C171.334 9.04809 171.898 8.15971 172.629 7.40683C173.358 6.65396 174.237 6.06296 175.265 5.63382C176.292 5.20468 177.43 4.99011 178.678 4.99011C179.925 4.99011 181.061 5.20656 182.084 5.63946C183.108 6.07237 183.984 6.66525 184.71 7.41813C185.437 8.171 186 9.05939 186.4 10.0833C186.8 11.1072 187 12.2101 187 13.3921ZM182.883 11.1957C183.088 11.8469 183.191 12.5791 183.191 13.3921C183.191 14.2128 183.088 14.9487 182.883 15.6C182.677 16.2512 182.382 16.8027 181.997 17.2544C181.612 17.7061 181.14 18.0505 180.583 18.2877C180.024 18.5248 179.39 18.6435 178.678 18.6435C177.959 18.6435 177.318 18.5248 176.757 18.2877C176.195 18.0505 175.722 17.7061 175.337 17.2544C174.951 16.8027 174.656 16.2512 174.451 15.6C174.245 14.9487 174.142 14.2128 174.142 13.3921C174.142 12.5791 174.245 11.8469 174.451 11.1957C174.656 10.5444 174.951 9.99295 175.337 9.54122C175.722 9.0895 176.195 8.74319 176.757 8.50226C177.318 8.26134 177.959 8.14089 178.678 8.14089C179.39 8.14089 180.024 8.26134 180.583 8.50226C181.14 8.74319 181.612 9.0895 181.997 9.54122C182.382 9.99295 182.677 10.5444 182.883 11.1957Z" fill="#4F5A7C"/>
  <path d="M125.844 18.4627C126.211 18.4627 126.501 18.5663 126.714 18.7733C126.926 18.9803 127.032 19.2533 127.032 19.5921V21.6249H115.76V20.4955C115.76 20.2772 115.804 20.0438 115.892 19.7954C115.981 19.5469 116.135 19.3211 116.355 19.1178L120.978 14.3407C121.375 13.9342 121.719 13.5465 122.014 13.1776C122.307 12.8087 122.549 12.4454 122.74 12.0878C122.931 11.7303 123.074 11.3726 123.169 11.015C123.265 10.6574 123.312 10.279 123.312 9.88003C123.312 9.22502 123.159 8.72248 122.856 8.3724C122.551 8.02231 122.087 7.84726 121.462 7.84726C120.956 7.84726 120.528 7.98467 120.18 8.25946C119.831 8.53427 119.591 8.87494 119.46 9.28149C119.305 9.69557 119.103 9.97037 118.853 10.1059C118.604 10.2414 118.248 10.2715 117.786 10.1962L115.981 9.86873C116.098 9.04809 116.324 8.33287 116.658 7.72304C116.991 7.11321 117.406 6.60502 117.902 6.19847C118.397 5.79192 118.964 5.48889 119.603 5.28937C120.24 5.08987 120.927 4.99011 121.661 4.99011C122.454 4.99011 123.167 5.10869 123.802 5.34584C124.437 5.583 124.978 5.91238 125.425 6.33399C125.873 6.75561 126.216 7.25814 126.455 7.84162C126.693 8.4251 126.812 9.06692 126.812 9.76709C126.812 10.3694 126.73 10.9265 126.565 11.4385C126.4 11.9504 126.175 12.4379 125.888 12.9009C125.602 13.364 125.27 13.8119 124.892 14.2448C124.514 14.6777 124.112 15.1163 123.687 15.5605L120.549 18.858C120.952 18.7301 121.353 18.6321 121.748 18.5645C122.145 18.4967 122.512 18.4627 122.849 18.4627H125.844Z" fill="#4F5A7C"/>
  <path d="M139.562 21.6249V19.0952H136.92V5.15951H134.101L129.104 9.46218L130.182 10.9303C130.234 11.0056 130.315 11.079 130.424 11.1505C130.535 11.222 130.659 11.271 130.799 11.2973C130.939 11.3236 131.087 11.3236 131.245 11.2973C131.402 11.271 131.562 11.1938 131.724 11.0658L133.551 9.50735C133.537 9.72568 133.525 9.94214 133.518 10.1567C133.51 10.3713 133.507 10.584 133.507 10.7948V19.0952H130.424V21.6249H139.562Z" fill="#4F5A7C"/>
  <path d="M46.8597 26.9636V33.1485H45.7143V30.4453H42.8341V33.1485H41.6887V26.9636H42.8341V29.6241H45.7143V26.9636H46.8597Z" fill="black"/>
  <path d="M49.8535 28.6916C50.1759 28.6916 50.4686 28.7444 50.7316 28.8499C50.9974 28.9554 51.2237 29.1051 51.4103 29.299C51.5998 29.4929 51.7454 29.7296 51.8472 30.009C51.949 30.2885 51.9999 30.6007 51.9999 30.9457C51.9999 31.2936 51.949 31.6073 51.8472 31.8867C51.7454 32.1662 51.5998 32.4043 51.4103 32.601C51.2237 32.7978 50.9974 32.9489 50.7316 33.0544C50.4686 33.1599 50.1759 33.2127 49.8535 33.2127C49.5283 33.2127 49.2328 33.1599 48.9669 33.0544C48.7011 32.9489 48.4735 32.7978 48.284 32.601C48.0973 32.4043 47.9517 32.1662 47.8471 31.8867C47.7453 31.6073 47.6944 31.2936 47.6944 30.9457C47.6944 30.6007 47.7453 30.2885 47.8471 30.009C47.9517 29.7296 48.0973 29.4929 48.284 29.299C48.4735 29.1051 48.7011 28.9554 48.9669 28.8499C49.2328 28.7444 49.5283 28.6916 49.8535 28.6916ZM49.8535 32.4C50.2155 32.4 50.4827 32.2774 50.6552 32.0321C50.8306 31.7869 50.9182 31.4276 50.9182 30.9543C50.9182 30.4809 50.8306 30.1202 50.6552 29.8721C50.4827 29.6241 50.2155 29.5 49.8535 29.5C49.4859 29.5 49.213 29.6255 49.0348 29.8764C48.8595 30.1245 48.7718 30.4838 48.7718 30.9543C48.7718 31.4248 48.8595 31.7841 49.0348 32.0321C49.213 32.2774 49.4859 32.4 49.8535 32.4Z" fill="black"/>
  <path d="M54.1672 33.2169C53.7882 33.2169 53.497 33.11 53.2933 32.8961C53.0926 32.6794 52.9922 32.3815 52.9922 32.0022V29.5514H52.5468C52.4902 29.5514 52.4421 29.5328 52.4025 29.4958C52.3629 29.4587 52.3431 29.4031 52.3431 29.3289V28.9098L53.0431 28.7943L53.2637 27.5967C53.2778 27.5396 53.3047 27.4954 53.3443 27.4641C53.3838 27.4327 53.4347 27.417 53.497 27.417H54.0399V28.7986H55.2022V29.5514H54.0399V31.9295C54.0399 32.0664 54.0725 32.1733 54.1375 32.2503C54.2054 32.3273 54.2973 32.3658 54.4132 32.3658C54.4783 32.3658 54.532 32.3586 54.5744 32.3444C54.6197 32.3273 54.6578 32.3102 54.689 32.2931C54.7229 32.276 54.7526 32.2603 54.778 32.246C54.8035 32.2289 54.8289 32.2203 54.8544 32.2203C54.8855 32.2203 54.911 32.2289 54.9307 32.246C54.9505 32.2603 54.9718 32.2831 54.9944 32.3144L55.3083 32.8277C55.1556 32.956 54.9802 33.053 54.7823 33.1186C54.5843 33.1841 54.3793 33.2169 54.1672 33.2169Z" fill="black"/>
  <path d="M58.6439 30.4496C58.6439 30.3127 58.6241 30.1844 58.5845 30.0646C58.5477 29.942 58.4911 29.8351 58.4148 29.7438C58.3384 29.6526 58.2409 29.5813 58.1221 29.53C58.0062 29.4758 57.8704 29.4487 57.7149 29.4487C57.4123 29.4487 57.1733 29.5357 56.998 29.7096C56.8255 29.8836 56.7152 30.1302 56.6671 30.4496H58.6439ZM56.6459 31.0869C56.6629 31.3121 56.7025 31.5075 56.7647 31.6729C56.8269 31.8354 56.9089 31.9708 57.0107 32.0792C57.1125 32.1847 57.2327 32.2645 57.3713 32.3187C57.5127 32.37 57.6682 32.3957 57.8379 32.3957C58.0076 32.3957 58.1532 32.3758 58.2748 32.3358C58.3992 32.2959 58.5067 32.2517 58.5972 32.2032C58.6905 32.1548 58.7711 32.1106 58.839 32.0706C58.9097 32.0307 58.9776 32.0108 59.0426 32.0108C59.1303 32.0108 59.1953 32.0436 59.2377 32.1091L59.5389 32.4941C59.423 32.631 59.2929 32.7464 59.1487 32.8405C59.0044 32.9318 58.8531 33.0059 58.6948 33.063C58.5392 33.1171 58.3794 33.1556 58.2154 33.1784C58.0542 33.2013 57.8973 33.2127 57.7446 33.2127C57.442 33.2127 57.1606 33.1628 56.9004 33.063C56.6402 32.9603 56.414 32.8106 56.2217 32.6139C56.0294 32.4142 55.8781 32.169 55.7678 31.8782C55.6575 31.5845 55.6024 31.2451 55.6024 30.8602C55.6024 30.5608 55.6504 30.2799 55.7466 30.0176C55.8427 29.7524 55.9799 29.5228 56.1581 29.3289C56.3391 29.1322 56.5582 28.9768 56.8156 28.8627C57.0757 28.7487 57.3684 28.6916 57.6937 28.6916C57.968 28.6916 58.2211 28.7358 58.453 28.8242C58.6849 28.9126 58.8842 29.0424 59.0511 29.2135C59.2179 29.3817 59.348 29.5899 59.4413 29.8379C59.5375 30.0832 59.5856 30.364 59.5856 30.6805C59.5856 30.8402 59.5686 30.9486 59.5347 31.0056C59.5007 31.0598 59.4357 31.0869 59.3395 31.0869H56.6459Z" fill="black"/>
  <path d="M61.4324 26.7925V33.1485H60.3846V26.7925H61.4324Z" fill="black"/>
  <path d="M66.5584 29.9064C66.7734 29.9064 66.96 29.8793 67.1184 29.8251C67.2796 29.7709 67.4111 29.6968 67.5129 29.6027C67.6175 29.5057 67.6953 29.3917 67.7462 29.2605C67.7971 29.1293 67.8225 28.9853 67.8225 28.8285C67.8225 28.5148 67.7193 28.2739 67.5129 28.1057C67.3093 27.9374 66.9968 27.8533 66.5754 27.8533H65.8458V29.9064H66.5584ZM69.4939 33.1485H68.4631C68.268 33.1485 68.1266 33.0715 68.0389 32.9175L66.7493 30.9372C66.7013 30.863 66.6475 30.8103 66.5881 30.7789C66.5316 30.7476 66.4467 30.7319 66.3336 30.7319H65.8458V33.1485H64.7047V26.9636H66.5754C66.9911 26.9636 67.3474 27.0078 67.6444 27.0962C67.9441 27.1818 68.1888 27.303 68.3782 27.4598C68.5705 27.6166 68.7119 27.8048 68.8024 28.0244C68.8929 28.2411 68.9382 28.4806 68.9382 28.743C68.9382 28.9511 68.9071 29.1479 68.8449 29.3332C68.7855 29.5186 68.6978 29.6868 68.5819 29.8379C68.4687 29.9891 68.3273 30.1217 68.1577 30.2357C67.9908 30.3498 67.7999 30.4396 67.585 30.5052C67.6585 30.548 67.7264 30.5993 67.7886 30.6592C67.8508 30.7162 67.9074 30.7846 67.9583 30.8645L69.4939 33.1485Z" fill="black"/>
  <path d="M72.5131 30.4496C72.5131 30.3127 72.4933 30.1844 72.4537 30.0646C72.4169 29.942 72.3604 29.8351 72.284 29.7438C72.2077 29.6526 72.1101 29.5813 71.9913 29.53C71.8754 29.4758 71.7396 29.4487 71.5841 29.4487C71.2815 29.4487 71.0426 29.5357 70.8672 29.7096C70.6947 29.8836 70.5844 30.1302 70.5363 30.4496H72.5131ZM70.5151 31.0869C70.5321 31.3121 70.5717 31.5075 70.6339 31.6729C70.6961 31.8354 70.7781 31.9708 70.8799 32.0792C70.9818 32.1847 71.1019 32.2645 71.2405 32.3187C71.3819 32.37 71.5374 32.3957 71.7071 32.3957C71.8768 32.3957 72.0224 32.3758 72.144 32.3358C72.2685 32.2959 72.3759 32.2517 72.4664 32.2032C72.5598 32.1548 72.6404 32.1106 72.7082 32.0706C72.7789 32.0307 72.8468 32.0108 72.9118 32.0108C72.9995 32.0108 73.0646 32.0436 73.107 32.1091L73.4082 32.4941C73.2922 32.631 73.1621 32.7464 73.0179 32.8405C72.8737 32.9318 72.7224 33.0059 72.564 33.063C72.4085 33.1171 72.2487 33.1556 72.0847 33.1784C71.9235 33.2013 71.7665 33.2127 71.6138 33.2127C71.3112 33.2127 71.0298 33.1628 70.7697 33.063C70.5095 32.9603 70.2832 32.8106 70.0909 32.6139C69.8986 32.4142 69.7473 32.169 69.637 31.8782C69.5268 31.5845 69.4716 31.2451 69.4716 30.8602C69.4716 30.5608 69.5197 30.2799 69.6158 30.0176C69.712 29.7524 69.8491 29.5228 70.0273 29.3289C70.2083 29.1322 70.4275 28.9768 70.6848 28.8627C70.945 28.7487 71.2377 28.6916 71.5629 28.6916C71.8372 28.6916 72.0903 28.7358 72.3222 28.8242C72.5541 28.9126 72.7535 29.0424 72.9203 29.2135C73.0872 29.3817 73.2173 29.5899 73.3106 29.8379C73.4067 30.0832 73.4548 30.364 73.4548 30.6805C73.4548 30.8402 73.4378 30.9486 73.4039 31.0056C73.37 31.0598 73.3049 31.0869 73.2088 31.0869H70.5151Z" fill="black"/>
  <path d="M76.8966 29.6155C76.8683 29.6611 76.8386 29.6939 76.8075 29.7139C76.7764 29.731 76.7368 29.7396 76.6887 29.7396C76.6378 29.7396 76.5827 29.7253 76.5233 29.6968C76.4667 29.6683 76.4003 29.6369 76.3239 29.6027C76.2476 29.5656 76.1599 29.5328 76.0609 29.5043C75.9648 29.4758 75.8502 29.4615 75.7173 29.4615C75.5109 29.4615 75.3483 29.5057 75.2295 29.5941C75.1135 29.6825 75.0556 29.798 75.0556 29.9406C75.0556 30.0347 75.0853 30.1145 75.1446 30.1801C75.2069 30.2428 75.2875 30.2984 75.3864 30.3469C75.4882 30.3954 75.6028 30.4396 75.73 30.4795C75.8573 30.5166 75.986 30.5579 76.1161 30.6036C76.249 30.6492 76.3791 30.7019 76.5063 30.7618C76.6336 30.8188 76.7467 30.893 76.8457 30.9842C76.9475 31.0726 77.0281 31.1796 77.0875 31.305C77.1497 31.4305 77.1808 31.5816 77.1808 31.7584C77.1808 31.9694 77.1426 32.1647 77.0663 32.3444C76.9927 32.5212 76.8824 32.6752 76.7354 32.8063C76.5883 32.9346 76.4059 33.0359 76.1882 33.11C75.9732 33.1813 75.7244 33.2169 75.4416 33.2169C75.2917 33.2169 75.1446 33.2027 75.0004 33.1742C74.859 33.1485 74.7219 33.1114 74.5889 33.063C74.4589 33.0145 74.3373 32.9575 74.2241 32.8919C74.1138 32.8263 74.0163 32.755 73.9314 32.678L74.1732 32.276C74.2043 32.2275 74.2411 32.1904 74.2835 32.1647C74.3259 32.1391 74.3797 32.1262 74.4447 32.1262C74.5098 32.1262 74.5706 32.1448 74.6271 32.1819C74.6865 32.2189 74.7544 32.2588 74.8307 32.3016C74.9071 32.3444 74.9962 32.3843 75.098 32.4214C75.2026 32.4584 75.3341 32.477 75.4925 32.477C75.6169 32.477 75.723 32.4627 75.8106 32.4342C75.9011 32.4028 75.9747 32.3629 76.0312 32.3144C76.0906 32.266 76.133 32.2104 76.1585 32.1476C76.1868 32.082 76.2009 32.015 76.2009 31.9466C76.2009 31.844 76.1698 31.7598 76.1076 31.6942C76.0482 31.6287 75.9676 31.5716 75.8658 31.5232C75.7668 31.4747 75.6523 31.4319 75.5222 31.3948C75.3949 31.3549 75.2634 31.3121 75.1277 31.2665C74.9948 31.2209 74.8633 31.1681 74.7332 31.1083C74.6059 31.0455 74.4914 30.9671 74.3896 30.873C74.2906 30.7789 74.21 30.6634 74.1478 30.5266C74.0884 30.3897 74.0587 30.2243 74.0587 30.0304C74.0587 29.8508 74.0941 29.6797 74.1647 29.5171C74.2355 29.3546 74.3387 29.2135 74.4744 29.0937C74.613 28.9711 74.7841 28.8741 74.9877 28.8028C75.1941 28.7287 75.4317 28.6916 75.7003 28.6916C76.0001 28.6916 76.273 28.7415 76.519 28.8413C76.7651 28.9411 76.9701 29.0723 77.1341 29.2348L76.8966 29.6155Z" fill="black"/>
  <path d="M80.7733 30.4496C80.7733 30.3127 80.7535 30.1844 80.7139 30.0646C80.6772 29.942 80.6206 29.8351 80.5443 29.7438C80.4679 29.6526 80.3703 29.5813 80.2516 29.53C80.1356 29.4758 79.9999 29.4487 79.8443 29.4487C79.5418 29.4487 79.3028 29.5357 79.1275 29.7096C78.9549 29.8836 78.8447 30.1302 78.7966 30.4496H80.7733ZM78.7754 31.0869C78.7923 31.3121 78.8319 31.5075 78.8941 31.6729C78.9564 31.8354 79.0384 31.9708 79.1402 32.0792C79.242 32.1847 79.3622 32.2645 79.5007 32.3187C79.6421 32.37 79.7977 32.3957 79.9674 32.3957C80.137 32.3957 80.2827 32.3758 80.4043 32.3358C80.5287 32.2959 80.6362 32.2517 80.7267 32.2032C80.82 32.1548 80.9006 32.1106 80.9685 32.0706C81.0392 32.0307 81.107 32.0108 81.1721 32.0108C81.2597 32.0108 81.3248 32.0436 81.3672 32.1091L81.6684 32.4941C81.5524 32.631 81.4224 32.7464 81.2781 32.8405C81.1339 32.9318 80.9826 33.0059 80.8242 33.063C80.6687 33.1171 80.5089 33.1556 80.3449 33.1784C80.1837 33.2013 80.0267 33.2127 79.874 33.2127C79.5714 33.2127 79.2901 33.1628 79.0299 33.063C78.7697 32.9603 78.5435 32.8106 78.3512 32.6139C78.1589 32.4142 78.0076 32.169 77.8973 31.8782C77.787 31.5845 77.7318 31.2451 77.7318 30.8602C77.7318 30.5608 77.7799 30.2799 77.8761 30.0176C77.9722 29.7524 78.1094 29.5228 78.2875 29.3289C78.4685 29.1322 78.6877 28.9768 78.945 28.8627C79.2052 28.7487 79.4979 28.6916 79.8231 28.6916C80.0975 28.6916 80.3506 28.7358 80.5824 28.8242C80.8143 28.9126 81.0137 29.0424 81.1806 29.2135C81.3474 29.3817 81.4775 29.5899 81.5708 29.8379C81.667 30.0832 81.715 30.364 81.715 30.6805C81.715 30.8402 81.6981 30.9486 81.6641 31.0056C81.6302 31.0598 81.5652 31.0869 81.469 31.0869H78.7754Z" fill="black"/>
  <path d="M83.4897 29.5214C83.6255 29.2591 83.7867 29.0538 83.9733 28.9055C84.1599 28.7544 84.3805 28.6788 84.635 28.6788C84.8358 28.6788 84.997 28.723 85.1186 28.8114L85.0508 29.6027C85.0366 29.654 85.0154 29.6911 84.9871 29.7139C84.9617 29.7339 84.9263 29.7438 84.8811 29.7438C84.8387 29.7438 84.775 29.7367 84.6902 29.7224C84.6082 29.7082 84.5276 29.7011 84.4484 29.7011C84.3325 29.7011 84.2292 29.7182 84.1387 29.7524C84.0482 29.7866 83.9662 29.8365 83.8927 29.9021C83.822 29.9648 83.7584 30.0418 83.7018 30.1331C83.6481 30.2243 83.5972 30.3284 83.5491 30.4453V33.1485H82.5013V28.7601H83.1164C83.2239 28.7601 83.2988 28.78 83.3413 28.82C83.3837 28.857 83.4119 28.9255 83.4261 29.0253L83.4897 29.5214Z" fill="black"/>
  <path d="M89.5901 28.7601L87.8636 33.1485H86.9134L85.1869 28.7601H86.0523C86.1314 28.7601 86.1965 28.7786 86.2474 28.8157C86.3011 28.8527 86.3365 28.8998 86.3534 28.9568L87.1933 31.3007C87.2386 31.4376 87.2782 31.5716 87.3121 31.7028C87.3461 31.834 87.3758 31.9651 87.4012 32.0963C87.4295 31.9651 87.4606 31.834 87.4945 31.7028C87.5285 31.5716 87.5695 31.4376 87.6175 31.3007L88.4744 28.9568C88.4942 28.8998 88.5296 28.8527 88.5805 28.8157C88.6314 28.7786 88.6922 28.7601 88.7629 28.7601H89.5901Z" fill="black"/>
  <path d="M92.3399 31.2751C92.0373 31.2893 91.7828 31.3164 91.5764 31.3563C91.3699 31.3934 91.2045 31.4419 91.0801 31.5018C90.9556 31.5617 90.8665 31.6315 90.8128 31.7114C90.7591 31.7912 90.7322 31.8782 90.7322 31.9723C90.7322 32.1576 90.7859 32.2902 90.8934 32.37C91.0037 32.4499 91.1465 32.4898 91.3218 32.4898C91.5368 32.4898 91.722 32.4513 91.8775 32.3743C92.0359 32.2945 92.19 32.1747 92.3399 32.015V31.2751ZM89.939 29.3717C90.4395 28.9098 91.0419 28.6788 91.746 28.6788C92.0006 28.6788 92.2282 28.7216 92.429 28.8071C92.6298 28.8898 92.7995 29.0067 92.938 29.1579C93.0766 29.3061 93.1812 29.4843 93.2519 29.6925C93.3255 29.9007 93.3622 30.1288 93.3622 30.3769V33.1485H92.8871C92.7882 33.1485 92.7118 33.1342 92.6581 33.1057C92.6043 33.0744 92.5619 33.0131 92.5308 32.9218L92.4375 32.6053C92.3272 32.7051 92.2197 32.7935 92.1151 32.8705C92.0105 32.9446 91.9016 33.0074 91.7885 33.0587C91.6753 33.11 91.5537 33.1485 91.4237 33.1742C91.2964 33.2027 91.155 33.2169 90.9995 33.2169C90.8156 33.2169 90.646 33.1927 90.4904 33.1442C90.3349 33.0929 90.2005 33.0173 90.0874 32.9175C89.9743 32.8177 89.8866 32.6937 89.8244 32.5454C89.7622 32.3971 89.7311 32.2246 89.7311 32.0279C89.7311 31.9167 89.7495 31.8069 89.7863 31.6985C89.823 31.5873 89.8824 31.4818 89.9644 31.382C90.0493 31.2822 90.1581 31.1881 90.291 31.0997C90.424 31.0113 90.5866 30.9343 90.7789 30.8687C90.974 30.8032 91.2002 30.7504 91.4576 30.7105C91.7149 30.6677 92.009 30.6421 92.3399 30.6335V30.3769C92.3399 30.0832 92.2777 29.8664 92.1533 29.7267C92.0288 29.5841 91.8493 29.5129 91.6145 29.5129C91.4449 29.5129 91.3035 29.5328 91.1903 29.5727C91.0801 29.6127 90.9825 29.6583 90.8976 29.7096C90.8128 29.7581 90.735 29.8023 90.6643 29.8422C90.5965 29.8821 90.5201 29.9021 90.4353 29.9021C90.3617 29.9021 90.2995 29.8836 90.2486 29.8465C90.1977 29.8066 90.1567 29.7609 90.1256 29.7096L89.939 29.3717Z" fill="black"/>
  <path d="M98.6815 33.1485H97.6337V29.5514H95.6145V31.9295C95.6145 32.0664 95.647 32.1733 95.7121 32.2503C95.7799 32.3273 95.8719 32.3658 95.9878 32.3658C96.0529 32.3658 96.1066 32.3586 96.149 32.3444C96.1942 32.3273 96.2324 32.3102 96.2635 32.2931C96.2975 32.276 96.3272 32.2603 96.3526 32.246C96.3781 32.2289 96.4035 32.2203 96.429 32.2203C96.4601 32.2203 96.4855 32.2289 96.5053 32.246C96.5251 32.2603 96.5463 32.2831 96.569 32.3144L96.8829 32.8277C96.7302 32.956 96.5548 33.053 96.3569 33.1186C96.1589 33.1841 95.9539 33.2169 95.7418 33.2169C95.3628 33.2169 95.0715 33.11 94.8679 32.8961C94.6671 32.6794 94.5667 32.3815 94.5667 32.0022V29.5514H94.1213C94.0648 29.5514 94.0167 29.5328 93.9771 29.4958C93.9375 29.4587 93.9177 29.4031 93.9177 29.3289V28.9098L94.6177 28.79L94.8382 27.5967C94.8524 27.5396 94.8792 27.4954 94.9188 27.4641C94.9584 27.4327 95.0093 27.417 95.0715 27.417H95.6145V28.7986H98.6815V33.1485ZM98.8639 27.4641C98.8639 27.5553 98.8455 27.6423 98.8087 27.725C98.772 27.8048 98.7225 27.8747 98.6602 27.9346C98.6009 27.9944 98.5287 28.0429 98.4439 28.08C98.3619 28.1142 98.2742 28.1313 98.1809 28.1313C98.0904 28.1313 98.0056 28.1142 97.9264 28.08C97.8472 28.0429 97.7779 27.9944 97.7185 27.9346C97.6591 27.8747 97.6111 27.8048 97.5743 27.725C97.5404 27.6423 97.5234 27.5553 97.5234 27.4641C97.5234 27.37 97.5404 27.283 97.5743 27.2032C97.6111 27.1205 97.6591 27.0492 97.7185 26.9893C97.7779 26.9266 97.8472 26.8781 97.9264 26.8439C98.0056 26.8068 98.0904 26.7883 98.1809 26.7883C98.2742 26.7883 98.3619 26.8068 98.4439 26.8439C98.5287 26.8781 98.6009 26.9266 98.6602 26.9893C98.7225 27.0492 98.772 27.1205 98.8087 27.2032C98.8455 27.283 98.8639 27.37 98.8639 27.4641Z" fill="black"/>
  <path d="M101.677 28.6916C101.999 28.6916 102.292 28.7444 102.555 28.8499C102.821 28.9554 103.047 29.1051 103.234 29.299C103.423 29.4929 103.569 29.7296 103.67 30.009C103.772 30.2885 103.823 30.6007 103.823 30.9457C103.823 31.2936 103.772 31.6073 103.67 31.8867C103.569 32.1662 103.423 32.4043 103.234 32.601C103.047 32.7978 102.821 32.9489 102.555 33.0544C102.292 33.1599 101.999 33.2127 101.677 33.2127C101.352 33.2127 101.056 33.1599 100.79 33.0544C100.524 32.9489 100.297 32.7978 100.107 32.601C99.9206 32.4043 99.7749 32.1662 99.6703 31.8867C99.5685 31.6073 99.5176 31.2936 99.5176 30.9457C99.5176 30.6007 99.5685 30.2885 99.6703 30.009C99.7749 29.7296 99.9206 29.4929 100.107 29.299C100.297 29.1051 100.524 28.9554 100.79 28.8499C101.056 28.7444 101.352 28.6916 101.677 28.6916ZM101.677 32.4C102.039 32.4 102.306 32.2774 102.478 32.0321C102.654 31.7869 102.741 31.4276 102.741 30.9543C102.741 30.4809 102.654 30.1202 102.478 29.8721C102.306 29.6241 102.039 29.5 101.677 29.5C101.309 29.5 101.036 29.6255 100.858 29.8764C100.683 30.1245 100.595 30.4838 100.595 30.9543C100.595 31.4248 100.683 31.7841 100.858 32.0321C101.036 32.2774 101.309 32.4 101.677 32.4Z" fill="black"/>
  <path d="M105.602 29.299C105.69 29.2106 105.782 29.1293 105.878 29.0552C105.977 28.9782 106.08 28.9141 106.188 28.8627C106.298 28.8085 106.415 28.7672 106.54 28.7387C106.664 28.7073 106.8 28.6916 106.947 28.6916C107.185 28.6916 107.395 28.733 107.579 28.8157C107.763 28.8955 107.916 29.0096 108.037 29.1579C108.162 29.3033 108.255 29.4786 108.317 29.684C108.382 29.8864 108.415 30.1102 108.415 30.3555V33.1485H107.367V30.3555C107.367 30.0874 107.306 29.8807 107.185 29.7353C107.063 29.587 106.878 29.5129 106.629 29.5129C106.448 29.5129 106.278 29.5542 106.12 29.6369C105.962 29.7196 105.812 29.8322 105.67 29.9748V33.1485H104.623V28.7601H105.263C105.399 28.7601 105.488 28.8242 105.53 28.9525L105.602 29.299Z" fill="black"/>
  <path d="M114.906 28.0885C114.872 28.1484 114.835 28.1926 114.796 28.2211C114.759 28.2468 114.712 28.2596 114.656 28.2596C114.596 28.2596 114.531 28.2382 114.461 28.1955C114.393 28.1499 114.311 28.1 114.215 28.0458C114.118 27.9916 114.005 27.9431 113.875 27.9003C113.748 27.8547 113.597 27.8319 113.421 27.8319C113.263 27.8319 113.124 27.8519 113.006 27.8918C112.887 27.9289 112.786 27.9816 112.704 28.0501C112.625 28.1185 112.566 28.2012 112.526 28.2981C112.487 28.3922 112.467 28.4963 112.467 28.6104C112.467 28.7558 112.507 28.877 112.586 28.9739C112.668 29.0709 112.775 29.1536 112.908 29.222C113.041 29.2904 113.192 29.3518 113.362 29.4059C113.532 29.4601 113.706 29.5186 113.884 29.5813C114.062 29.6412 114.236 29.7125 114.405 29.7952C114.575 29.875 114.726 29.9777 114.859 30.1031C114.992 30.2257 115.098 30.3769 115.178 30.5565C115.26 30.7361 115.301 30.9543 115.301 31.2109C115.301 31.4904 115.252 31.7527 115.156 31.9979C115.063 32.2403 114.924 32.4527 114.741 32.6352C114.56 32.8149 114.338 32.9575 114.075 33.063C113.812 33.1656 113.51 33.2169 113.171 33.2169C112.976 33.2169 112.784 33.197 112.594 33.1571C112.405 33.12 112.222 33.0658 112.047 32.9945C111.874 32.9232 111.712 32.8377 111.559 32.7379C111.406 32.6381 111.271 32.5269 111.152 32.4043L111.487 31.8525C111.515 31.8126 111.552 31.7798 111.597 31.7541C111.643 31.7256 111.691 31.7114 111.742 31.7114C111.812 31.7114 111.889 31.7413 111.971 31.8012C112.053 31.8582 112.15 31.9224 112.263 31.9937C112.376 32.0649 112.508 32.1305 112.658 32.1904C112.811 32.2474 112.993 32.276 113.205 32.276C113.53 32.276 113.782 32.199 113.96 32.045C114.138 31.8881 114.227 31.6643 114.227 31.3735C114.227 31.2109 114.186 31.0783 114.104 30.9757C114.025 30.873 113.919 30.7875 113.786 30.719C113.653 30.6478 113.502 30.5879 113.332 30.5394C113.163 30.4909 112.99 30.4382 112.815 30.3811C112.639 30.3241 112.467 30.2557 112.297 30.1758C112.128 30.096 111.976 29.9919 111.843 29.8636C111.71 29.7353 111.603 29.5756 111.521 29.3845C111.442 29.1906 111.402 28.9525 111.402 28.6702C111.402 28.445 111.446 28.2254 111.534 28.0116C111.624 27.7977 111.754 27.6081 111.924 27.4427C112.094 27.2773 112.303 27.1447 112.552 27.0449C112.801 26.9451 113.086 26.8952 113.409 26.8952C113.771 26.8952 114.104 26.9522 114.41 27.0663C114.715 27.1803 114.975 27.34 115.19 27.5453L114.906 28.0885Z" fill="black"/>
  <path d="M118.918 30.4496C118.918 30.3127 118.898 30.1844 118.858 30.0646C118.822 29.942 118.765 29.8351 118.689 29.7438C118.612 29.6526 118.515 29.5813 118.396 29.53C118.28 29.4758 118.144 29.4487 117.989 29.4487C117.686 29.4487 117.447 29.5357 117.272 29.7096C117.1 29.8836 116.989 30.1302 116.941 30.4496H118.918ZM116.92 31.0869C116.937 31.3121 116.976 31.5075 117.039 31.6729C117.101 31.8354 117.183 31.9708 117.285 32.0792C117.387 32.1847 117.507 32.2645 117.645 32.3187C117.787 32.37 117.942 32.3957 118.112 32.3957C118.282 32.3957 118.427 32.3758 118.549 32.3358C118.673 32.2959 118.781 32.2517 118.871 32.2032C118.965 32.1548 119.045 32.1106 119.113 32.0706C119.184 32.0307 119.252 32.0108 119.317 32.0108C119.404 32.0108 119.469 32.0436 119.512 32.1091L119.813 32.4941C119.697 32.631 119.567 32.7464 119.423 32.8405C119.278 32.9318 119.127 33.0059 118.969 33.063C118.813 33.1171 118.653 33.1556 118.489 33.1784C118.328 33.2013 118.171 33.2127 118.019 33.2127C117.716 33.2127 117.435 33.1628 117.174 33.063C116.914 32.9603 116.688 32.8106 116.496 32.6139C116.303 32.4142 116.152 32.169 116.042 31.8782C115.932 31.5845 115.876 31.2451 115.876 30.8602C115.876 30.5608 115.924 30.2799 116.021 30.0176C116.117 29.7524 116.254 29.5228 116.432 29.3289C116.613 29.1322 116.832 28.9768 117.09 28.8627C117.35 28.7487 117.642 28.6916 117.968 28.6916C118.242 28.6916 118.495 28.7358 118.727 28.8242C118.959 28.9126 119.158 29.0424 119.325 29.2135C119.492 29.3817 119.622 29.5899 119.715 29.8379C119.812 30.0832 119.86 30.364 119.86 30.6805C119.86 30.8402 119.843 30.9486 119.809 31.0056C119.775 31.0598 119.71 31.0869 119.614 31.0869H116.92Z" fill="black"/>
  <path d="M121.634 29.5214C121.77 29.2591 121.931 29.0538 122.118 28.9055C122.305 28.7544 122.525 28.6788 122.78 28.6788C122.98 28.6788 123.142 28.723 123.263 28.8114L123.195 29.6027C123.181 29.654 123.16 29.6911 123.132 29.7139C123.106 29.7339 123.071 29.7438 123.026 29.7438C122.983 29.7438 122.92 29.7367 122.835 29.7224C122.753 29.7082 122.672 29.7011 122.593 29.7011C122.477 29.7011 122.374 29.7182 122.283 29.7524C122.193 29.7866 122.111 29.8365 122.037 29.9021C121.967 29.9648 121.903 30.0418 121.846 30.1331C121.793 30.2243 121.742 30.3284 121.694 30.4453V33.1485H120.646V28.7601H121.261C121.368 28.7601 121.443 28.78 121.486 28.82C121.528 28.857 121.557 28.9255 121.571 29.0253L121.634 29.5214Z" fill="black"/>
  <path d="M127.735 28.7601L126.008 33.1485H125.058L123.331 28.7601H124.197C124.276 28.7601 124.341 28.7786 124.392 28.8157C124.446 28.8527 124.481 28.8998 124.498 28.9568L125.338 31.3007C125.383 31.4376 125.423 31.5716 125.457 31.7028C125.491 31.834 125.52 31.9651 125.546 32.0963C125.574 31.9651 125.605 31.834 125.639 31.7028C125.673 31.5716 125.714 31.4376 125.762 31.3007L126.619 28.9568C126.639 28.8998 126.674 28.8527 126.725 28.8157C126.776 28.7786 126.837 28.7601 126.907 28.7601H127.735Z" fill="black"/>
  <path d="M129.379 28.7601V33.1485H128.327V28.7601H129.379ZM129.523 27.4812C129.523 27.5724 129.505 27.658 129.468 27.7378C129.431 27.8177 129.382 27.8875 129.32 27.9474C129.26 28.0073 129.189 28.0558 129.107 28.0928C129.025 28.127 128.938 28.1441 128.844 28.1441C128.754 28.1441 128.668 28.127 128.586 28.0928C128.507 28.0558 128.437 28.0073 128.378 27.9474C128.318 27.8875 128.27 27.8177 128.234 27.7378C128.2 27.658 128.183 27.5724 128.183 27.4812C128.183 27.3871 128.2 27.2987 128.234 27.216C128.27 27.1333 128.318 27.062 128.378 27.0021C128.437 26.9422 128.507 26.8952 128.586 26.861C128.668 26.8239 128.754 26.8054 128.844 26.8054C128.938 26.8054 129.025 26.8239 129.107 26.861C129.189 26.8952 129.26 26.9422 129.32 27.0021C129.382 27.062 129.431 27.1333 129.468 27.216C129.505 27.2987 129.523 27.3871 129.523 27.4812Z" fill="black"/>
  <path d="M133.565 29.6882C133.534 29.7281 133.503 29.7595 133.472 29.7823C133.443 29.8051 133.401 29.8165 133.344 29.8165C133.291 29.8165 133.238 29.8009 133.187 29.7695C133.137 29.7353 133.076 29.6982 133.005 29.6583C132.934 29.6155 132.85 29.5784 132.751 29.5471C132.654 29.5129 132.534 29.4958 132.39 29.4958C132.206 29.4958 132.045 29.53 131.906 29.5984C131.768 29.664 131.652 29.7595 131.559 29.885C131.468 30.0104 131.4 30.163 131.355 30.3426C131.31 30.5194 131.287 30.7205 131.287 30.9457C131.287 31.1796 131.311 31.3877 131.359 31.5702C131.41 31.7527 131.482 31.9067 131.576 32.0321C131.669 32.1548 131.782 32.2489 131.915 32.3144C132.048 32.3772 132.198 32.4085 132.365 32.4085C132.531 32.4085 132.666 32.3886 132.768 32.3487C132.872 32.3059 132.96 32.2603 133.031 32.2118C133.101 32.1605 133.162 32.1148 133.213 32.0749C133.267 32.0321 133.326 32.0108 133.391 32.0108C133.476 32.0108 133.54 32.0436 133.582 32.1091L133.883 32.4941C133.767 32.631 133.641 32.7464 133.506 32.8405C133.37 32.9318 133.228 33.0059 133.081 33.063C132.937 33.1171 132.787 33.1556 132.632 33.1784C132.479 33.2013 132.326 33.2127 132.174 33.2127C131.905 33.2127 131.652 33.1628 131.414 33.063C131.177 32.9603 130.969 32.812 130.791 32.6181C130.613 32.4242 130.471 32.1876 130.367 31.9081C130.265 31.6258 130.214 31.305 130.214 30.9457C130.214 30.6235 130.259 30.3255 130.35 30.0518C130.443 29.7752 130.579 29.5371 130.757 29.3375C130.935 29.135 131.156 28.9768 131.419 28.8627C131.682 28.7487 131.984 28.6916 132.326 28.6916C132.652 28.6916 132.936 28.7444 133.179 28.8499C133.425 28.9554 133.646 29.1065 133.841 29.3033L133.565 29.6882Z" fill="black"/>
  <path d="M137.269 30.4496C137.269 30.3127 137.25 30.1844 137.21 30.0646C137.173 29.942 137.117 29.8351 137.04 29.7438C136.964 29.6526 136.866 29.5813 136.748 29.53C136.632 29.4758 136.496 29.4487 136.34 29.4487C136.038 29.4487 135.799 29.5357 135.623 29.7096C135.451 29.8836 135.341 30.1302 135.293 30.4496H137.269ZM135.271 31.0869C135.288 31.3121 135.328 31.5075 135.39 31.6729C135.452 31.8354 135.534 31.9708 135.636 32.0792C135.738 32.1847 135.858 32.2645 135.997 32.3187C136.138 32.37 136.294 32.3957 136.463 32.3957C136.633 32.3957 136.779 32.3758 136.9 32.3358C137.025 32.2959 137.132 32.2517 137.223 32.2032C137.316 32.1548 137.397 32.1106 137.464 32.0706C137.535 32.0307 137.603 32.0108 137.668 32.0108C137.756 32.0108 137.821 32.0436 137.863 32.1091L138.164 32.4941C138.048 32.631 137.918 32.7464 137.774 32.8405C137.63 32.9318 137.479 33.0059 137.32 33.063C137.165 33.1171 137.005 33.1556 136.841 33.1784C136.68 33.2013 136.523 33.2127 136.37 33.2127C136.067 33.2127 135.786 33.1628 135.526 33.063C135.266 32.9603 135.04 32.8106 134.847 32.6139C134.655 32.4142 134.504 32.169 134.393 31.8782C134.283 31.5845 134.228 31.2451 134.228 30.8602C134.228 30.5608 134.276 30.2799 134.372 30.0176C134.468 29.7524 134.605 29.5228 134.784 29.3289C134.965 29.1322 135.184 28.9768 135.441 28.8627C135.701 28.7487 135.994 28.6916 136.319 28.6916C136.593 28.6916 136.847 28.7358 137.078 28.8242C137.31 28.9126 137.51 29.0424 137.677 29.2135C137.843 29.3817 137.974 29.5899 138.067 29.8379C138.163 30.0832 138.211 30.364 138.211 30.6805C138.211 30.8402 138.194 30.9486 138.16 31.0056C138.126 31.0598 138.061 31.0869 137.965 31.0869H135.271Z" fill="black"/>
</svg>
