<?xml version="1.0" encoding="UTF-8"?>
<svg width="56px" height="40px" viewBox="0 0 56 40" version="1.1" xmlns="http://www.w3.org/2000/svg">
    <g stroke="none" stroke-width="1" fill="none" fill-rule="evenodd">
        <path d="M50.7923253,40 L5.19033548,40 C2.32610455,40 0,37.6408897 0,34.7359659 L0,5.26408398 C0,2.35915023 2.32610455,0 5.19033548,0 L50.8097235,0 C53.6739446,0 56,2.35915023 56,5.26408398 L56,34.7183204 C55.9827001,37.6408897 53.6739446,40 50.7923253,40 Z" fill="#F5F5F7"></path>
        <path d="M10,26.7812554 L10,13 L14.8272,13 C16.4994462,13 17.7676308,13.3218277 18.6321846,13.96544 C19.4967385,14.6027631 19.9290154,15.5398154 19.9290154,16.7765969 C19.9290154,17.4517846 19.7554154,18.0480769 19.4084308,18.5655169 C19.0612308,19.0766246 18.5785538,19.4520831 17.9601846,19.6918708 C18.6668615,19.8685508 19.2221231,20.2250554 19.6259692,20.7614708 C20.0362769,21.2977785 20.2413231,21.9540554 20.2413231,22.7300862 C20.2413231,24.0553477 19.8185231,25.0586092 18.9729231,25.7400862 C18.1273231,26.4215631 16.9222462,26.7685477 15.3572615,26.7812554 L10,26.7812554 Z M12.8396308,20.7804246 L12.8396308,24.5001169 L15.2719692,24.5001169 C15.9409538,24.5001169 16.4615385,24.3424554 16.8337231,24.0269169 C17.2123692,23.7051323 17.4016923,23.2633785 17.4016923,22.7018708 C17.4016923,21.4397169 16.7486462,20.7993785 15.4425538,20.7804246 L12.8396308,20.7804246 Z M12.8396308,18.7737508 L14.9407077,18.7737508 C16.3732308,18.7485077 17.0893846,18.1774369 17.0893846,17.06056 C17.0893846,16.4358585 16.9063077,15.9878369 16.5403692,15.7164954 C16.1806769,15.4388646 15.6096923,15.3000277 14.8272,15.3000277 L12.8396308,15.3000277 L12.8396308,18.7737508 Z M32.4891692,15.3000277 L28.2676308,15.3000277 L28.2676308,26.7812554 L25.4282154,26.7812554 L25.4282154,15.3000277 L21.2635385,15.3000277 L21.2635385,13 L32.4891692,13 L32.4891692,15.3000277 Z M40.7616615,23.9416246 L35.7830462,23.9416246 L34.8364308,26.7812554 L31.8171692,26.7812554 L36.9472,13 L39.5785538,13 L44.7370154,26.7812554 L41.7177538,26.7812554 L40.7616615,23.9416246 Z M36.5498154,21.6417477 L39.9951077,21.6417477 L38.2629846,16.4831785 L36.5498154,21.6417477 Z" fill="#4F5A7C" fill-rule="nonzero"></path>
    </g>
</svg>
