<?xml version="1.0" encoding="UTF-8"?>
<svg width="56px" height="40px" viewBox="0 0 56 40" version="1.1" xmlns="http://www.w3.org/2000/svg">
    <g stroke="none" stroke-width="1" fill="none" fill-rule="evenodd">
        <path d="M50.8096299,40 L5.19033271,40 C2.32610439,40 0,37.6408897 0,34.7359659 L0,5.26408398 C0,2.35915023 2.32610439,0 5.19033271,0 L50.8096299,0 C53.6738484,0 56,2.35915023 56,5.26408398 L56,34.7183204 C56,37.6408897 53.6738484,40 50.8096299,40 Z" fill="#36495D"></path>
        <polygon fill="#F16522" points="32.7856 11.4614 23.2139 11.4614 23.2139 28.6623 32.7856 28.6623"></polygon>
        <path d="M23.8146,20.0619 C23.8146,16.5653 25.457,13.4747 28,11.4615 C26.1457,9.99572 23.797,9.13037 21.2363,9.13037 C15.1965,9.13037 10.3047,14.0222 10.3047,20.0619 C10.3047,26.1017 15.1965,30.9935 21.2363,30.9935 C23.7793,30.9935 26.1281,30.1282 28,28.6624 C25.457,26.6491 23.8146,23.5586 23.8146,20.0619 Z" fill="#E41B24"></path>
        <path d="M45.6954,20.0617 C45.6954,26.1014 40.8035,30.9933 34.7638,30.9933 C32.2208,30.9933 29.872,30.1279 28,28.6621 C30.543,26.6666 32.1678,23.5584 32.1678,20.0617 C32.1678,16.565 30.543,13.4745 28,11.4613 C29.8543,9.99547 32.2031,9.13013 34.7638,9.13013 C40.8035,9.13013 45.6954,14.022 45.6954,20.0617 Z" fill="#F89E1C" fill-rule="nonzero"></path>
    </g>
</svg>
