<?xml version="1.0" encoding="UTF-8"?>
<svg width="60px" height="120px" viewBox="0 0 60 120" version="1.1" xmlns="http://www.w3.org/2000/svg" xmlns:xlink="http://www.w3.org/1999/xlink">
    <defs>
        <path d="M31.0452,13.5969697 C31.011,10.8733333 33.4482,9.35333333 35.2842,8.44969697 C37.1706,7.52242424 37.8042,6.92787879 37.797,6.09878788 C37.7826,4.82969697 36.2922,4.26969697 34.8972,4.24787879 C32.4636,4.20969697 31.0488,4.91151515 29.9238,5.44242424 L29.0472,1.29878788 C30.1758,0.773333333 32.2656,0.315151515 34.4328,0.295151515 C39.5196,0.295151515 42.8478,2.83151515 42.8658,6.76424242 C42.8856,11.7551515 36.0312,12.0315152 36.078,14.2624242 C36.0942,14.9387879 36.7332,15.6606061 38.1336,15.8442424 C38.8266,15.9369697 40.74,16.0078788 42.909,14.9987879 L43.7604,19.0078788 C42.594,19.4369697 41.0946,19.8478788 39.228,19.8478788 C34.44,19.8478788 31.0722,17.2769697 31.0452,13.5969697 M51.9414,19.5024242 C51.0126,19.5024242 50.2296,18.9551515 49.8804,18.1151515 L42.6138,0.58969697 L47.697,0.58969697 L48.7086,3.41333333 L54.9204,3.41333333 L55.5072,0.58969697 L59.9874,0.58969697 L56.0778,19.5024242 L51.9414,19.5024242 M52.6524,14.3933333 L54.1194,7.29151515 L50.1018,7.29151515 L52.6524,14.3933333 M24.882,19.5024242 L20.8752,0.58969697 L25.719,0.58969697 L29.724,19.5024242 L24.882,19.5024242 M17.7162,19.5024242 L12.6744,6.62969697 L10.635,17.5751515 C10.3956,18.7969697 9.4506,19.5024242 8.4012,19.5024242 L0.159,19.5024242 L0.0438,18.9533333 C1.7358,18.5824242 3.6582,17.9842424 4.8228,17.3442424 C5.5356,16.9533333 5.739,16.6115152 5.973,15.6824242 L9.8358,0.58969697 L14.955,0.58969697 L22.803,19.5024242 L17.7162,19.5024242" id="path-1"></path>
        <linearGradient x1="16.1481739%" y1="34.4008407%" x2="85.8318643%" y2="66.3485849%" id="linearGradient-3">
            <stop stop-color="#222357" offset="0%"></stop>
            <stop stop-color="#254AA5" offset="100%"></stop>
        </linearGradient>
    </defs>
    <g id="Page" stroke="none" stroke-width="1" fill="none" fill-rule="evenodd">
        <g id="mastercard" transform="translate(6.000000, 40.000000)">
            <rect id="Rectangle" x="0" y="0" width="49" height="40"></rect>
            <path d="M11.9952053,35.8201438 L11.9952053,33.6618705 C12.0185141,33.2946745 11.8959641,32.9342839 11.6588201,32.672641 C11.4216761,32.4109981 11.092871,32.2734049 10.7562889,32.294964 C10.3127286,32.2632186 9.88849707,32.4975409 9.6491722,32.9064748 C9.4309766,32.5097336 9.03145323,32.2750919 8.60795527,32.294964 C8.23921863,32.274614 7.88818492,32.4689621 7.68535798,32.8057554 L7.68535798,32.3812949 L7,32.3812949 L7,35.8201438 L7.69194796,35.8201438 L7.69194796,33.9280575 C7.66214753,33.6899605 7.73124983,33.4497687 7.88039743,33.2730286 C8.02954504,33.0962885 8.24316992,33.001448 8.46297569,33.0143885 C8.91768435,33.0143885 9.14833367,33.3381295 9.14833367,33.9208633 L9.14833367,35.8345323 L9.84028164,35.8345323 L9.84028164,33.9280575 C9.81170405,33.6902312 9.88122888,33.4508178 10.0301,33.2744053 C10.178971,33.0979928 10.3918509,33.0027564 10.6113094,33.0143885 C11.079198,33.0143885 11.3032573,33.3381295 11.3032573,33.9208633 L11.3032573,35.8345323 L11.9952053,35.8201438 Z M22.2327402,32.3812949 L21.1058535,32.3812949 L21.1058535,31.3381295 L20.4139055,31.3381295 L20.4139055,32.3812949 L19.7878573,32.3812949 L19.7878573,33.0647482 L20.4270855,33.0647482 L20.4270855,34.647482 C20.4270855,35.4460431 20.7104546,35.9208633 21.5210222,35.9208633 C21.8238511,35.9219738 22.1208119,35.8297042 22.3777197,35.6546762 L22.1800203,35.0143884 C21.9962268,35.1340682 21.7876301,35.2009002 21.5737421,35.208633 C21.2442431,35.208633 21.1190334,34.9784172 21.1190334,34.6330935 L21.1190334,33.0647482 L22.2393301,33.0647482 L22.2327402,32.3812949 Z M28.0780529,32.294964 C27.7376532,32.284035 27.4190493,32.4772673 27.2477154,32.7985611 L27.2477154,32.3812949 L26.5689474,32.3812949 L26.5689474,35.8201438 L27.2543054,35.8201438 L27.2543054,33.8920863 C27.2543054,33.323741 27.4783647,33.0071942 27.9133034,33.0071942 C28.0598923,33.0050052 28.2054422,33.0343399 28.3416522,33.0935252 L28.5525315,32.3741007 C28.3960103,32.3129726 28.2311069,32.2813468 28.064873,32.2805755 L28.0780529,32.294964 Z M19.240889,32.6546762 C18.852945,32.4028694 18.4069104,32.2780147 17.9558427,32.294964 C17.1584551,32.294964 16.6378466,32.7122302 16.6378466,33.3956834 C16.6378466,33.9568345 17.0200655,34.3021582 17.7251934,34.4100719 L18.0546925,34.4604316 C18.4303213,34.5179856 18.6082508,34.6258992 18.6082508,34.8201438 C18.6082508,35.0863309 18.3578316,35.23741 17.8899429,35.23741 C17.51359,35.2493029 17.1445183,35.1226006 16.842136,34.8776978 L16.512637,35.4604316 C16.9118626,35.7647448 17.3900342,35.9210978 17.876763,35.9064748 C18.7861803,35.9064748 19.3133787,35.4388489 19.3133787,34.7841726 C19.3133787,34.1294964 18.89821,33.8633093 18.212852,33.7553957 L17.883353,33.7050359 C17.5868038,33.6618705 17.3495645,33.5971223 17.3495645,33.3669064 C17.3495645,33.1366906 17.5736239,32.9640288 17.9492528,32.9640288 C18.2964378,32.9684317 18.6367841,33.0699898 18.9377499,33.2589928 L19.240889,32.6546762 Z M37.5972799,32.294964 C37.2568802,32.284035 36.9382762,32.4772673 36.7669424,32.7985611 L36.7669424,32.3812949 L36.0881744,32.3812949 L36.0881744,35.8201438 L36.7735323,35.8201438 L36.7735323,33.8920863 C36.7735323,33.323741 36.9975917,33.0071942 37.4325304,33.0071942 C37.5791193,33.0050052 37.7246692,33.0343399 37.8608791,33.0935252 L38.0717585,32.3741007 C37.9152372,32.3129726 37.7503339,32.2813468 37.5841,32.2805755 L37.5972799,32.294964 Z M28.7667059,34.0935251 C28.7502236,34.5821708 28.9231207,35.0557779 29.2429585,35.3980966 C29.5627962,35.7404153 29.9999621,35.9197516 30.447151,35.8920863 C30.8586553,35.9149423 31.2630677,35.768633 31.5806276,35.4820143 L31.2511286,34.8776978 C31.0142092,35.074932 30.7253083,35.1834267 30.427381,35.1870503 C29.902061,35.1406486 29.4973991,34.661694 29.4973991,34.0863309 C29.4973991,33.5109678 29.902061,33.0320132 30.427381,32.9856115 C30.7253083,32.9892351 31.0142092,33.0977298 31.2511286,33.294964 L31.5806276,32.6906475 C31.2630677,32.4040288 30.8586553,32.2577195 30.447151,32.2805755 C29.9999621,32.2529102 29.5627962,32.4322465 29.2429585,32.7745652 C28.9231207,33.1168839 28.7502236,33.590491 28.7667059,34.0791367 L28.7667059,34.0935251 Z M35.185347,34.0935251 L35.185347,32.3812949 L34.499989,32.3812949 L34.499989,32.7985611 C34.2638711,32.4668885 33.8960095,32.2794787 33.5114919,32.294964 C32.6016055,32.294964 31.8639968,33.1002073 31.8639968,34.0935251 C31.8639968,35.086843 32.6016055,35.8920863 33.5114919,35.8920863 C33.8960095,35.9075716 34.2638711,35.7201618 34.499989,35.3884892 L34.499989,35.8057553 L35.185347,35.8057553 L35.185347,34.0935251 Z M32.6350245,34.0935251 C32.6655015,33.5290175 33.1037178,33.0946433 33.6213438,33.1158534 C34.1389698,33.1370635 34.5461262,33.6060774 34.5377549,34.1714909 C34.5293835,34.7369044 34.1085553,35.1913082 33.5905717,35.1942446 C33.3268206,35.1978878 33.0736617,35.0811071 32.892219,34.8720987 C32.7107764,34.6630903 32.6175411,34.3808505 32.6350245,34.0935251 Z M24.3645989,32.294964 C23.4547124,32.3088705 22.7274302,33.1253871 22.7401687,34.118705 C22.7529071,35.1120229 23.5008423,35.9059927 24.4107287,35.8920863 C24.884792,35.9186506 25.350989,35.7519937 25.7188399,35.4244604 L25.3893409,34.8705036 C25.1291559,35.0983016 24.8068201,35.2248815 24.4733336,35.2302158 C24.0022707,35.2744424 23.5845364,34.9013203 23.5309663,34.3884892 L25.8704094,34.3884892 C25.8704094,34.294964 25.8704094,34.2014388 25.8704094,34.1007194 C25.8704094,33.0215827 25.2575412,32.3021583 24.3744838,32.3021583 L24.3645989,32.294964 Z M24.3645989,32.9640288 C24.571723,32.959208 24.7721134,33.0444351 24.9216628,33.200951 C25.0712122,33.3574669 25.1576629,33.5724428 25.1619865,33.7985611 L23.5144914,33.7985611 C23.539312,33.3182818 23.9110363,32.9476213 24.3514189,32.9640288 L24.3645989,32.9640288 Z M41.5347933,34.1007194 L41.5347933,31 L40.8757953,31 L40.8757953,32.7985611 C40.6396774,32.4668885 40.2718157,32.2794787 39.8872982,32.294964 C38.9774117,32.294964 38.239803,33.1002073 38.239803,34.0935251 C38.239803,35.086843 38.9774117,35.8920863 39.8872982,35.8920863 C40.2718157,35.9075716 40.6396774,35.7201618 40.8757953,35.3884892 L40.8757953,35.8057553 L41.5347933,35.8057553 L41.5347933,34.1007194 Z M42.678155,35.3201438 C42.7209941,35.3195709 42.7635244,35.3281238 42.8033646,35.3453237 C42.8412052,35.3621813 42.8758427,35.3865771 42.9055093,35.4172661 C42.9344621,35.448281 42.9579203,35.4848655 42.9747041,35.5251798 C43.008432,35.6100889 43.008432,35.7064578 42.9747041,35.7913669 C42.9579203,35.8316811 42.9344621,35.8682656 42.9055093,35.8992805 C42.8758427,35.9299695 42.8412052,35.9543654 42.8033646,35.971223 C42.7639177,35.9902249 42.7212713,36.0000263 42.678155,35.9999999 C42.5506552,35.9989508 42.4351536,35.9176912 42.3816058,35.7913669 C42.3482685,35.7063698 42.3482685,35.6101768 42.3816058,35.5251798 C42.3983896,35.4848655 42.4218478,35.448281 42.4508006,35.4172661 C42.4804672,35.3865771 42.5151048,35.3621813 42.5529453,35.3453237 C42.5958625,35.3266864 42.6418895,35.3181076 42.6880399,35.3201438 L42.678155,35.3201438 Z M42.678155,35.9280575 C42.7110421,35.9282756 42.7436018,35.9209214 42.7737097,35.9064748 C42.8020586,35.8926573 42.8277687,35.873132 42.8494945,35.8489208 C42.9349326,35.7471557 42.9349326,35.5909737 42.8494945,35.4892086 C42.8278205,35.4649306 42.8020979,35.4453958 42.7737097,35.4316546 C42.7435721,35.4173098 42.7110323,35.4099601 42.678155,35.4100719 C42.645306,35.4102614 42.6128213,35.4175987 42.5826002,35.4316546 C42.5529963,35.4449064 42.5261116,35.464473 42.5035205,35.4892086 C42.4180824,35.5909737 42.4180824,35.7471557 42.5035205,35.8489208 C42.5261671,35.8735825 42.5530374,35.8931386 42.5826002,35.9064748 C42.6158433,35.9221251 42.6518615,35.9294978 42.6880399,35.9280575 L42.678155,35.9280575 Z M42.6979249,35.5 C42.7286841,35.4983715 42.7589945,35.508553 42.7835946,35.5287769 C42.8040573,35.5472647 42.8150985,35.5753898 42.8132496,35.6043165 C42.8142061,35.628473 42.8058393,35.6519604 42.7901846,35.6690647 C42.7710862,35.6880021 42.7467226,35.6994011 42.7209898,35.7014388 L42.8165445,35.8201438 L42.7407598,35.8201438 L42.651795,35.7014388 L42.6221401,35.7014388 L42.6221401,35.8201438 L42.5595353,35.8201438 L42.5595353,35.5035971 L42.6979249,35.5 Z M42.6254351,35.561151 L42.6254351,35.647482 L42.6979249,35.647482 C42.7108243,35.6516805 42.7245654,35.6516805 42.7374648,35.647482 C42.7421644,35.6373004 42.7421644,35.6252894 42.7374648,35.6151079 C42.7421644,35.6049263 42.7421644,35.5929153 42.7374648,35.5827338 C42.7245654,35.5785353 42.7108243,35.5785353 42.6979249,35.5827338 L42.6254351,35.561151 Z M39.0009458,34.1007194 C39.0314228,33.5362117 39.469639,33.1018375 39.9872651,33.1230477 C40.5048911,33.1442578 40.9120475,33.6132717 40.9036761,34.1786852 C40.8953048,34.7440987 40.4744765,35.1985025 39.956493,35.2014388 C39.6927419,35.2050821 39.4395829,35.0883014 39.2581403,34.8792929 C39.0766977,34.6702845 38.9834624,34.3880448 39.0009458,34.1007194 Z M15.8602289,34.1007194 L15.8602289,32.3812949 L15.1748709,32.3812949 L15.1748709,32.7985611 C14.938753,32.4668885 14.5708914,32.2794787 14.1863738,32.294964 C13.2764874,32.294964 12.5388787,33.1002073 12.5388787,34.0935251 C12.5388787,35.086843 13.2764874,35.8920863 14.1863738,35.8920863 C14.5708914,35.9075716 14.938753,35.7201618 15.1748709,35.3884892 L15.1748709,35.8057553 L15.8602289,35.8057553 L15.8602289,34.1007194 Z M13.3099064,34.1007194 C13.3403834,33.5362117 13.7785996,33.1018375 14.2962257,33.1230477 C14.8138517,33.1442578 15.2210081,33.6132717 15.2126368,34.1786852 C15.2042654,34.7440987 14.7834372,35.1985025 14.2654536,35.2014388 C14.0005659,35.2071159 13.7456445,35.0912255 13.5627405,34.8819768 C13.3798365,34.672728 13.2857259,34.3893133 13.3033164,34.1007194 L13.3099064,34.1007194 Z" id="Shape" fill="#231F20" fill-rule="nonzero"></path>
            <g id="_Group_" transform="translate(6.000000, 5.000000)">
                <rect id="Rectangle" fill="#FF5F00" x="13.8521368" y="2.58082192" width="10.2307692" height="18.6115068"></rect>
                <path d="M14.5017094,11.8882192 C14.4978843,8.25583307 16.1447527,4.8235214 18.9675214,2.58082192 C14.1736071,-1.23285969 7.289354,-0.677363983 3.15283008,3.85692158 C-0.98369383,8.39120714 -0.98369383,15.3819435 3.15283008,19.9162291 C7.289354,24.4505147 14.1736071,25.0060104 18.9675214,21.1923288 C16.1456507,18.9503413 14.4988829,15.5194516 14.5017094,11.8882192 Z" id="_Path_" fill="#EB001B"></path>
                <path d="M37.8863248,11.8882192 C37.8862204,16.4197415 35.3300683,20.5534193 31.3034761,22.5336637 C27.2768838,24.5139082 22.4867727,23.9930613 18.9675214,21.1923288 C21.7881608,18.9484379 23.4350525,15.5180043 23.4350525,11.8865753 C23.4350525,8.25514635 21.7881608,4.82471283 18.9675214,2.58082192 C22.4867727,-0.219910627 27.2768838,-0.740757509 31.3034761,1.23948694 C35.3300683,3.21973139 37.8862204,7.35340919 37.8863248,11.8849315 L37.8863248,11.8882192 Z" id="Path" fill="#F79E1B"></path>
                <path d="M36.7728374,19.7523599 L36.7728374,18.9296648 L36.9279529,18.9296648 L36.9279529,18.7594521 L36.5352137,18.7594521 L36.5352137,18.9296648 L36.7035305,18.9296648 L36.7035305,19.7523599 L36.7728374,19.7523599 Z M37.5352137,19.7523599 L37.5352137,18.7594521 L37.4164018,18.7594521 L37.2777879,19.4686719 L37.1391741,18.7594521 L37.0335635,18.7594521 L37.0335635,19.7523599 L37.1193721,19.7523599 L37.1193721,19.007679 L37.248085,19.6530691 L37.3371939,19.6530691 L37.4659067,19.007679 L37.4659067,19.7594521 L37.5352137,19.7523599 Z" id="Shape" fill="#F79E1B" fill-rule="nonzero"></path>
            </g>
        </g>
        <g id="amex" transform="translate(0.000000, 80.000000)">
            <path d="M60,21.6481069 L60,0 L0,0 L0,40 L60,40 L60,28.3296214 C59.8663697,28.3296214 60,21.6481069 60,21.6481069" id="Path" fill="#006FCF"></path>
            <path d="M52.6503341,18.6756757 L57.1937639,18.6756757 L57.1937639,8 L52.2494432,8 L52.2494432,9.48648649 L51.3140312,8 L47.0378619,8 L47.0378619,9.89189189 L46.2360802,8 L38.3518931,8 C38.0846325,8 37.8173719,8.13513514 37.5501114,8.13513514 C37.2828508,8.13513514 37.1492205,8.27027027 36.8819599,8.40540541 C36.6146993,8.54054054 36.481069,8.54054054 36.2138085,8.67567568 L36.2138085,8 L13.6302895,8 L12.9621381,9.75675676 L12.2939866,8 L6.94877506,8 L6.94877506,9.89189189 L6.14699332,8 L1.87082405,8 L0,12.5945946 L0,18.6756757 L3.07349666,18.6756757 L3.60801782,17.1891892 L4.67706013,17.1891892 L5.21158129,18.6756757 L28.7305122,18.6756757 L28.7305122,17.3243243 L29.6659243,18.6756757 L36.2138085,18.6756757 L36.2138085,17.8648649 C36.3474388,18 36.6146993,18 36.7483296,18.1351351 C36.8819599,18.2702703 37.1492205,18.2702703 37.2828508,18.4054054 C37.5501114,18.5405405 37.8173719,18.5405405 38.0846325,18.5405405 L42.8953229,18.5405405 L43.4298441,17.0540541 L44.4988864,17.0540541 L45.0334076,18.5405405 L51.5812918,18.5405405 L51.5812918,17.1891892 L52.6503341,18.6756757 Z M60,32.1891892 L60,22.1891892 L23.2516704,22.1891892 L22.3162584,23.5405405 L21.3808463,22.1891892 L10.6904232,22.1891892 L10.6904232,32.8648649 L21.3808463,32.8648649 L22.3162584,31.5135135 L23.2516704,32.8648649 L29.9331849,32.8648649 L29.9331849,30.5675676 L29.6659243,30.5675676 C30.6013363,30.5675676 31.403118,30.4324324 32.0712695,30.1621622 L32.0712695,33 L36.8819599,33 L36.8819599,31.6486486 L37.8173719,33 L57.7282851,33 C58.5300668,32.7297297 59.3318486,32.5945946 60,32.1891892 Z" id="Shape" fill="#FFFFFF" fill-rule="nonzero"></path>
            <path d="M57.7282851,29.5379747 L54.1202673,29.5379747 L54.1202673,31 L57.5946548,31 C59.064588,31 60,30.0696203 60,28.7405063 C60,27.4113924 59.1982183,26.7468354 57.8619154,26.7468354 L56.2583519,26.7468354 C55.857461,26.7468354 55.5902004,26.4810127 55.5902004,26.0822785 C55.5902004,25.6835443 55.857461,25.4177215 56.2583519,25.4177215 L59.3318486,25.4177215 L60,23.9556962 L56.3919822,23.9556962 C54.922049,23.9556962 53.986637,24.8860759 53.986637,26.0822785 C53.986637,27.4113924 54.7884187,28.0759494 56.1247216,28.0759494 L57.7282851,28.0759494 C58.1291759,28.0759494 58.3964365,28.3417722 58.3964365,28.7405063 C58.5300668,29.2721519 58.2628062,29.5379747 57.7282851,29.5379747 Z M51.1804009,29.5379747 L47.5723831,29.5379747 L47.5723831,31 L51.0467706,31 C52.5167038,31 53.4521158,30.0696203 53.4521158,28.7405063 C53.4521158,27.4113924 52.6503341,26.7468354 51.3140312,26.7468354 L49.7104677,26.7468354 C49.3095768,26.7468354 49.0423163,26.4810127 49.0423163,26.0822785 C49.0423163,25.6835443 49.3095768,25.4177215 49.7104677,25.4177215 L52.7839644,25.4177215 L53.4521158,23.9556962 L49.844098,23.9556962 C48.3741648,23.9556962 47.4387528,24.8860759 47.4387528,26.0822785 C47.4387528,27.4113924 48.2405345,28.0759494 49.5768374,28.0759494 L51.1804009,28.0759494 C51.5812918,28.0759494 51.8485523,28.3417722 51.8485523,28.7405063 C51.9821826,29.2721519 51.5812918,29.5379747 51.1804009,29.5379747 Z M46.5033408,25.2848101 L46.5033408,23.8227848 L40.8908686,23.8227848 L40.8908686,30.8670886 L46.5033408,30.8670886 L46.5033408,29.4050633 L42.4944321,29.4050633 L42.4944321,27.943038 L46.3697105,27.943038 L46.3697105,26.4810127 L42.4944321,26.4810127 L42.4944321,25.1518987 L46.5033408,25.1518987 L46.5033408,25.2848101 Z M37.4164811,25.2848101 C38.0846325,25.2848101 38.3518931,25.6835443 38.3518931,26.0822785 C38.3518931,26.4810127 38.0846325,26.8797468 37.4164811,26.8797468 L35.4120267,26.8797468 L35.4120267,25.1518987 L37.4164811,25.2848101 Z M35.4120267,28.3417722 L36.2138085,28.3417722 L38.3518931,30.8670886 L40.3563474,30.8670886 L37.9510022,28.2088608 C39.1536748,27.943038 39.8218263,27.1455696 39.8218263,26.0822785 C39.8218263,24.7531646 38.8864143,23.8227848 37.4164811,23.8227848 L33.674833,23.8227848 L33.674833,30.8670886 L35.2783964,30.8670886 L35.4120267,28.3417722 Z M31.1358575,26.2151899 C31.1358575,26.7468354 30.8685969,27.1455696 30.2004454,27.1455696 L28.0623608,27.1455696 L28.0623608,25.2848101 L30.0668151,25.2848101 C30.7349666,25.2848101 31.1358575,25.6835443 31.1358575,26.2151899 Z M26.4587973,23.8227848 L26.4587973,30.8670886 L28.0623608,30.8670886 L28.0623608,28.4746835 L30.2004454,28.4746835 C31.6703786,28.4746835 32.7394209,27.5443038 32.7394209,26.0822785 C32.7394209,24.7531646 31.8040089,23.6898734 30.3340757,23.6898734 L26.4587973,23.8227848 Z M24.0534521,30.8670886 L26.0579065,30.8670886 L23.2516704,27.278481 L26.0579065,23.8227848 L24.0534521,23.8227848 L22.3162584,26.0822785 L20.5790646,23.8227848 L18.5746102,23.8227848 L21.3808463,27.278481 L18.5746102,30.7341772 L20.5790646,30.7341772 L22.3162584,28.4746835 L24.0534521,30.8670886 Z M18.0400891,25.2848101 L18.0400891,23.8227848 L12.4276169,23.8227848 L12.4276169,30.8670886 L18.0400891,30.8670886 L18.0400891,29.4050633 L14.0311804,29.4050633 L14.0311804,27.943038 L17.9064588,27.943038 L17.9064588,26.4810127 L14.0311804,26.4810127 L14.0311804,25.1518987 L18.0400891,25.1518987 L18.0400891,25.2848101 Z M50.5122494,12.7911392 L53.3184855,17.0443038 L55.3229399,17.0443038 L55.3229399,10 L53.7193764,10 L53.7193764,14.6518987 L53.3184855,13.9873418 L50.77951,10 L48.6414254,10 L48.6414254,17.0443038 L50.2449889,17.0443038 L50.2449889,12.2594937 L50.5122494,12.7911392 Z M43.5634744,12.6582278 L44.0979955,11.1962025 L44.6325167,12.6582278 L45.3006682,14.2531646 L42.8953229,14.2531646 L43.5634744,12.6582278 Z M46.3697105,17.0443038 L48.1069042,17.0443038 L45.0334076,10 L42.8953229,10 L39.8218263,17.0443038 L41.55902,17.0443038 L42.2271715,15.5822785 L45.701559,15.5822785 L46.3697105,17.0443038 Z M38.8864143,17.0443038 L39.5545657,15.5822785 L39.1536748,15.5822785 C37.9510022,15.5822785 37.2828508,14.7848101 37.2828508,13.5886076 L37.2828508,13.4556962 C37.2828508,12.2594937 37.9510022,11.4620253 39.1536748,11.4620253 L40.8908686,11.4620253 L40.8908686,10 L39.0200445,10 C36.8819599,10 35.6792873,11.4620253 35.6792873,13.4556962 L35.6792873,13.5886076 C35.6792873,15.7151899 36.8819599,17.0443038 38.8864143,17.0443038 Z M32.8730512,17.0443038 L34.4766147,17.0443038 L34.4766147,10.1329114 L32.8730512,10.1329114 L32.8730512,17.0443038 Z M29.3986637,11.4620253 C30.0668151,11.4620253 30.3340757,11.8607595 30.3340757,12.2594937 C30.3340757,12.6582278 30.0668151,13.056962 29.3986637,13.056962 L27.3942094,13.056962 L27.3942094,11.3291139 L29.3986637,11.4620253 Z M27.3942094,14.5189873 L28.1959911,14.5189873 L30.3340757,17.0443038 L32.3385301,17.0443038 L29.9331849,14.3860759 C31.1358575,14.1202532 31.8040089,13.3227848 31.8040089,12.2594937 C31.8040089,10.9303797 30.8685969,10 29.3986637,10 L25.6570156,10 L25.6570156,17.0443038 L27.2605791,17.0443038 L27.3942094,14.5189873 Z M24.454343,11.4620253 L24.454343,10 L18.8418708,10 L18.8418708,17.0443038 L24.454343,17.0443038 L24.454343,15.5822785 L20.4454343,15.5822785 L20.4454343,14.1202532 L24.3207127,14.1202532 L24.3207127,12.6582278 L20.4454343,12.6582278 L20.4454343,11.3291139 L24.454343,11.3291139 L24.454343,11.4620253 Z M12.2939866,17.0443038 L13.7639198,17.0443038 L15.7683742,11.3291139 L15.7683742,17.0443038 L17.3719376,17.0443038 L17.3719376,10 L14.6993318,10 L13.0957684,14.7848101 L11.4922049,10 L8.81959911,10 L8.81959911,17.0443038 L10.4231626,17.0443038 L10.4231626,11.3291139 L12.2939866,17.0443038 Z M3.60801782,12.6582278 L4.14253898,11.1962025 L4.67706013,12.6582278 L5.34521158,14.2531646 L2.93986637,14.2531646 L3.60801782,12.6582278 Z M6.4142539,17.0443038 L8.15144766,17.0443038 L5.077951,10 L3.07349666,10 L0,17.0443038 L1.73719376,17.0443038 L2.40534521,15.5822785 L5.87973274,15.5822785 L6.4142539,17.0443038 Z" id="Shape" fill="#006FCF" fill-rule="nonzero"></path>
        </g>
        <g id="visa" transform="translate(0.000000, 10.000000)">
            <g id="g10267" transform="translate(30.000000, 10.000000) scale(-1, 1) rotate(-180.000000) translate(-30.000000, -10.000000) ">
                <g id="g10269-Clipped">
                    <mask id="mask-2" fill="white">
                        <use xlink:href="#path-1"></use>
                    </mask>
                    <g id="path10273"></g>
                    <g id="g10269" mask="url(#mask-2)">
                        <g transform="translate(-6.600000, -19.534884)" id="g10275">
                            <g transform="translate(0.366600, 0.077914)">
                                <polyline id="path10283" fill="url(#linearGradient-3)" points="0 36.969697 59.0622 58.9406061 72.4986 22.0866667 13.437 0.115757576"></polyline>
                            </g>
                        </g>
                    </g>
                </g>
            </g>
        </g>
    </g>
</svg>
