<?xml version="1.0" encoding="UTF-8"?>
<svg width="56px" height="40px" viewBox="0 0 56 40" version="1.1" xmlns="http://www.w3.org/2000/svg">
    <g stroke="none" stroke-width="1" fill="none" fill-rule="evenodd">
        <path d="M52.7923253,40 L5.19033548,40 C2.32610455,40 0,37.6408897 0,34.7359659 L0,5.26408398 C0,2.35915023 2.32610455,0 5.19033548,0 L50.8097235,0 C53.6739446,0 56,2.35915023 56,5.26408398 L56,34.7183204 C55.9827001,37.6408897 55.6739446,40 52.7923253,40 Z" fill="#F5F5F7"></path>
        <g transform="translate(15.000000, 8.000000)">
            <polygon fill="#9BC9FF" points="3.26186688 11.0277802 5.12023725 11.0277802 5.12023725 19.3955283 3.26186688 19.3955283"></polygon>
            <polygon fill="#004FAC" points="2.25386688 23.1141357 0.00764465332 23.1141357 0.00764465332 24.9737506 26.9706076 24.9737506 26.9706076 23.1141357"></polygon>
            <polygon fill="#006DF0" points="25.9833484 21.2549357 0.936829839 21.2549357 0.936829839 23.1143431 25.9833484 23.1143431"></polygon>
            <polygon fill="#2488FF" points="6.05149651 19.3955283 2.33268169 19.3955283 2.33268169 21.2549357 6.05149651 21.2549357"></polygon>
            <polygon fill="#57A4FF" points="6.05149651 11.0274276 6.05149651 9.16789574 2.33268169 9.16789574 2.33268169 11.0274276"></polygon>
            <polygon fill="#9BC9FF" points="21.8559409 11.0277802 23.7163854 11.0277802 23.7163854 19.3955283 21.8559409 19.3955283"></polygon>
            <polygon fill="#57A4FF" points="20.9267558 11.0274276 24.6455706 11.0274276 24.6455706 9.16789574 20.9267558 9.16789574"></polygon>
            <polygon fill="#9BC9FF" points="9.30571873 11.0277802 9.30571873 19.3955283 11.1640891 19.3955283 11.1640891 11.0277802"></polygon>
            <polygon fill="#2488FF" points="8.37445947 19.3955283 8.37445947 21.2549357 12.0953484 21.2549357 12.0953484 19.3955283"></polygon>
            <polygon fill="#2488FF" points="14.8829039 19.3955283 14.8829039 21.2549357 18.6017187 21.2549357 18.6017187 19.3955283"></polygon>
            <polygon fill="#2488FF" points="20.9267558 19.3955283 20.9267558 21.2549357 24.6455706 21.2549357 24.6455706 19.3955283"></polygon>
            <polygon fill="#57A4FF" points="9.30571873 11.0274276 12.0953484 11.0274276 12.0953484 9.16789574 8.37445947 9.16789574 8.37445947 11.0274276"></polygon>
            <polygon fill="#9BC9FF" points="15.8141632 11.0277802 17.6725335 11.0277802 17.6725335 19.3955283 15.8141632 19.3955283"></polygon>
            <polygon fill="#57A4FF" points="15.8141632 11.0274276 18.6017187 11.0274276 18.6017187 9.16789574 14.8829039 9.16789574 14.8829039 11.0274276"></polygon>
            <path d="M0.00764465332,4.51923204 L0.00764465332,9.16802019 L26.9706076,9.16802019 L26.9706076,4.51923204 L13.4891261,0.800209816 L0.00764465332,4.51923204 Z M25.1101632,7.30850908 L1.8680891,7.30850908 L1.8680891,5.93520241 L13.4891261,2.72758463 L25.1101632,5.93520241 L25.1101632,7.30850908 Z" fill="#BDDBFF" fill-rule="nonzero"></path>
            <path d="M1.86601502,5.93505722 L1.86601502,7.30834315 L25.1101632,7.30834315 L25.1101632,5.93505722 L13.4891261,2.72743945 L1.86601502,5.93505722 Z M14.4183113,4.98396982 C14.4183113,5.49740685 14.0014224,5.913715 13.4891261,5.913715 C12.9747558,5.913715 12.5599409,5.49740685 12.5599409,4.98396982 C12.5599409,4.47051204 12.9747558,4.05420389 13.4891261,4.05420389 C14.0014224,4.05420389 14.4183113,4.47051204 14.4183113,4.98396982 Z" fill="#9BC9FF" fill-rule="nonzero"></path>
            <path d="M14.4183113,4.98386611 C14.4183113,5.49732389 14.0034965,5.91363204 13.4891261,5.91363204 C12.9747558,5.91363204 12.5599409,5.49732389 12.5599409,4.98386611 C12.5599409,4.47040833 12.9747558,4.05412093 13.4891261,4.05412093 C14.0034965,4.05412093 14.4183113,4.47040833 14.4183113,4.98386611 Z" fill="#2488FF"></path>
        </g>
    </g>
</svg>
