<?xml version="1.0" encoding="UTF-8"?>
<svg width="56px" height="40px" viewBox="0 0 56 40" version="1.1" xmlns="http://www.w3.org/2000/svg">
    <g stroke="none" stroke-width="1" fill="none" fill-rule="evenodd">
        <path d="M50.7923253,40 L5.19033548,40 C2.32610455,40 0,37.6408897 0,34.7359659 L0,5.26408398 C0,2.35915023 2.32610455,0 5.19033548,0 L50.8097235,0 C53.6739446,0 56,2.35915023 56,5.26408398 L56,34.7183204 C55.9827001,37.6408897 53.6739446,40 50.7923253,40 Z" fill="#006FCF"></path>
        <g transform="translate(0.000000, 8.000000)" fill-rule="nonzero">
            <path d="M49.1403118,9.96396399 L53.3808463,9.96396399 L53.3808463,0 L48.766147,0 L48.766147,1.38738739 L47.8930958,0 L43.9020044,0 L43.9020044,1.76576576 L43.1536749,0 L35.7951002,0 C35.545657,0 35.2962138,0.126126131 35.0467706,0.126126131 C34.7973274,0.126126131 34.6726058,0.252252252 34.4231626,0.378378383 C34.1737193,0.504504504 34.0489977,0.504504504 33.7995546,0.630630635 L33.7995546,0 L12.7216035,0 L12.0979956,1.63963964 L11.4743875,0 L6.48552339,0 L6.48552339,1.76576576 L5.73719377,0 L1.74610245,0 L0,4.28828829 L0,9.96396399 L2.86859688,9.96396399 L3.3674833,8.57657659 L4.36525612,8.57657659 L4.86414254,9.96396399 L26.8151447,9.96396399 L26.8151447,8.70270268 L27.688196,9.96396399 L33.7995546,9.96396399 L33.7995546,9.20720724 C33.9242762,9.33333333 34.1737193,9.33333333 34.298441,9.45945943 C34.4231626,9.58558561 34.6726058,9.58558561 34.7973274,9.71171171 C35.0467706,9.8378378 35.2962138,9.8378378 35.545657,9.8378378 L40.0356347,9.8378378 L40.5345212,8.45045049 L41.532294,8.45045049 L42.0311804,9.8378378 L48.142539,9.8378378 L48.142539,8.57657659 L49.1403118,9.96396399 Z M56,22.5765766 L56,13.2432433 L21.701559,13.2432433 L20.8285078,14.5045045 L19.9554565,13.2432433 L9.97772832,13.2432433 L9.97772832,23.2072072 L19.9554565,23.2072072 L20.8285078,21.9459459 L21.701559,23.2072072 L27.9376392,23.2072072 L27.9376392,21.0630631 L27.688196,21.0630631 C28.5612472,21.0630631 29.3095768,20.9369369 29.9331849,20.6846847 L29.9331849,23.3333333 L34.4231626,23.3333333 L34.4231626,22.072072 L35.2962138,23.3333333 L53.8797328,23.3333333 C54.6280623,23.0810811 55.376392,22.954955 56,22.5765766 Z" fill="#FFFFFF"></path>
            <path d="M53.8797328,20.2354431 L50.5122495,20.2354431 L50.5122495,21.6 L53.7550111,21.6 C55.1269488,21.6 56,20.7316456 56,19.4911392 C56,18.2506329 55.2516704,17.6303797 54.0044544,17.6303797 L52.5077951,17.6303797 C52.1336303,17.6303797 51.884187,17.3822785 51.884187,17.0101266 C51.884187,16.6379747 52.1336303,16.3898734 52.5077951,16.3898734 L55.376392,16.3898734 L56,15.0253165 L52.6325167,15.0253165 C51.2605791,15.0253165 50.3875279,15.8936708 50.3875279,17.0101266 C50.3875279,18.2506329 51.1358575,18.8708861 52.3830735,18.8708861 L53.8797328,18.8708861 C54.2538975,18.8708861 54.5033407,19.1189874 54.5033407,19.4911392 C54.6280623,19.9873418 54.3786191,20.2354431 53.8797328,20.2354431 Z M47.7683742,20.2354431 L44.4008909,20.2354431 L44.4008909,21.6 L47.6436526,21.6 C49.0155902,21.6 49.8886414,20.7316456 49.8886414,19.4911392 C49.8886414,18.2506329 49.1403118,17.6303797 47.8930958,17.6303797 L46.3964365,17.6303797 C46.0222717,17.6303797 45.7728285,17.3822785 45.7728285,17.0101266 C45.7728285,16.6379747 46.0222717,16.3898734 46.3964365,16.3898734 L49.2650334,16.3898734 L49.8886414,15.0253165 L46.5211581,15.0253165 C45.1492205,15.0253165 44.2761693,15.8936708 44.2761693,17.0101266 C44.2761693,18.2506329 45.0244989,18.8708861 46.2717149,18.8708861 L47.7683742,18.8708861 C48.142539,18.8708861 48.3919821,19.1189874 48.3919821,19.4911392 C48.5167038,19.9873418 48.142539,20.2354431 47.7683742,20.2354431 Z M43.4031181,16.2658228 L43.4031181,14.9012658 L38.1648107,14.9012658 L38.1648107,21.4759494 L43.4031181,21.4759494 L43.4031181,20.1113924 L39.66147,20.1113924 L39.66147,18.7468355 L43.2783965,18.7468355 L43.2783965,17.3822785 L39.66147,17.3822785 L39.66147,16.1417721 L43.4031181,16.1417721 L43.4031181,16.2658228 Z M34.922049,16.2658228 C35.545657,16.2658228 35.7951002,16.6379747 35.7951002,17.0101266 C35.7951002,17.3822785 35.545657,17.7544303 34.922049,17.7544303 L33.0512249,17.7544303 L33.0512249,16.1417721 L34.922049,16.2658228 Z M33.0512249,19.1189874 L33.7995546,19.1189874 L35.7951002,21.4759494 L37.6659242,21.4759494 L35.4209354,18.9949367 C36.5434298,18.7468355 37.1670379,18.0025316 37.1670379,17.0101266 C37.1670379,15.7696203 36.2939867,14.9012658 34.922049,14.9012658 L31.4298441,14.9012658 L31.4298441,21.4759494 L32.9265033,21.4759494 L33.0512249,19.1189874 Z M29.0601337,17.1341772 C29.0601337,17.6303797 28.8106904,18.0025316 28.1870824,18.0025316 L26.1915367,18.0025316 L26.1915367,16.2658228 L28.0623608,16.2658228 C28.6859688,16.2658228 29.0601337,16.6379747 29.0601337,17.1341772 Z M24.6948775,14.9012658 L24.6948775,21.4759494 L26.1915367,21.4759494 L26.1915367,19.2430379 L28.1870824,19.2430379 C29.55902,19.2430379 30.5567928,18.3746835 30.5567928,17.0101266 C30.5567928,15.7696203 29.6837416,14.7772152 28.311804,14.7772152 L24.6948775,14.9012658 Z M22.4498886,21.4759494 L24.3207127,21.4759494 L21.701559,18.1265823 L24.3207127,14.9012658 L22.4498886,14.9012658 L20.8285078,17.0101266 L19.207127,14.9012658 L17.3363029,14.9012658 L19.9554565,18.1265823 L17.3363029,21.3518987 L19.207127,21.3518987 L20.8285078,19.2430379 L22.4498886,21.4759494 Z M16.8374165,16.2658228 L16.8374165,14.9012658 L11.5991091,14.9012658 L11.5991091,21.4759494 L16.8374165,21.4759494 L16.8374165,20.1113924 L13.0957684,20.1113924 L13.0957684,18.7468355 L16.7126949,18.7468355 L16.7126949,17.3822785 L13.0957684,17.3822785 L13.0957684,16.1417721 L16.8374165,16.1417721 L16.8374165,16.2658228 Z M47.1447661,4.60506325 L49.7639198,8.57468355 L51.6347439,8.57468355 L51.6347439,2 L50.1380846,2 L50.1380846,6.34177212 L49.7639198,5.72151901 L47.3942093,2 L45.3986637,2 L45.3986637,8.57468355 L46.895323,8.57468355 L46.895323,4.10886079 L47.1447661,4.60506325 Z M40.6592428,4.48101261 L41.1581291,3.11645567 L41.6570156,4.48101261 L42.2806237,5.96962029 L40.0356347,5.96962029 L40.6592428,4.48101261 Z M43.2783965,8.57468355 L44.8997773,8.57468355 L42.0311804,2 L40.0356347,2 L37.1670379,8.57468355 L38.7884187,8.57468355 L39.4120267,7.2101266 L42.6547884,7.2101266 L43.2783965,8.57468355 Z M36.2939867,8.57468355 L36.9175947,7.2101266 L36.5434298,7.2101266 C35.4209354,7.2101266 34.7973274,6.46582276 34.7973274,5.34936709 L34.7973274,5.22531645 C34.7973274,4.10886079 35.4209354,3.36455695 36.5434298,3.36455695 L38.1648107,3.36455695 L38.1648107,2 L36.4187082,2 C34.4231626,2 33.3006681,3.36455695 33.3006681,5.22531645 L33.3006681,5.34936709 C33.3006681,7.33417724 34.4231626,8.57468355 36.2939867,8.57468355 Z M30.6815145,8.57468355 L32.1781737,8.57468355 L32.1781737,2.12405064 L30.6815145,2.12405064 L30.6815145,8.57468355 Z M27.4387528,3.36455695 C28.0623608,3.36455695 28.311804,3.73670887 28.311804,4.10886079 C28.311804,4.48101261 28.0623608,4.85316453 27.4387528,4.85316453 L25.5679288,4.85316453 L25.5679288,3.24050631 L27.4387528,3.36455695 Z M25.5679288,6.21772148 L26.3162584,6.21772148 L28.311804,8.57468355 L30.1826281,8.57468355 L27.9376392,6.09367084 C29.0601337,5.84556965 29.6837416,5.10126581 29.6837416,4.10886079 C29.6837416,2.86835439 28.8106904,2 27.4387528,2 L23.9465479,2 L23.9465479,8.57468355 L25.4432072,8.57468355 L25.5679288,6.21772148 Z M22.8240535,3.36455695 L22.8240535,2 L17.5857461,2 L17.5857461,8.57468355 L22.8240535,8.57468355 L22.8240535,7.2101266 L19.0824053,7.2101266 L19.0824053,5.84556965 L22.6993319,5.84556965 L22.6993319,4.48101261 L19.0824053,4.48101261 L19.0824053,3.24050631 L22.8240535,3.24050631 L22.8240535,3.36455695 Z M11.4743875,8.57468355 L12.8463251,8.57468355 L14.7171493,3.24050631 L14.7171493,8.57468355 L16.2138084,8.57468355 L16.2138084,2 L13.7193763,2 L12.2227172,6.46582276 L10.7260579,2 L8.23162584,2 L8.23162584,8.57468355 L9.72828509,8.57468355 L9.72828509,3.24050631 L11.4743875,8.57468355 Z M3.3674833,4.48101261 L3.86636971,3.11645567 L4.36525612,4.48101261 L4.98886414,5.96962029 L2.74387528,5.96962029 L3.3674833,4.48101261 Z M5.98663697,8.57468355 L7.60801782,8.57468355 L4.73942093,2 L2.86859688,2 L0,8.57468355 L1.62138084,8.57468355 L2.24498886,7.2101266 L5.48775056,7.2101266 L5.98663697,8.57468355 Z" fill="#006FCF"></path>
        </g>
    </g>
</svg>
