<?xml version="1.0" encoding="UTF-8"?>
<svg width="56px" height="40px" viewBox="0 0 56 40" version="1.1" xmlns="http://www.w3.org/2000/svg">
    <g stroke="none" stroke-width="1" fill="none" fill-rule="evenodd">
        <path d="M50.7923253,40 L5.19033548,40 C2.32610455,40 0,37.6408897 0,34.7359659 L0,5.26408398 C0,2.35915023 2.32610455,0 5.19033548,0 L50.8097235,0 C53.6739446,0 56,2.35915023 56,5.26408398 L56,34.7183204 C55.9827001,37.6408897 53.6739446,40 50.7923253,40 Z" fill="#0066B2"></path>
        <polygon fill="#FFFFFF" points="26.067 26.3487 23.1001 26.3487 24.9544 14.958 27.9213 14.958"></polygon>
        <path d="M20.6098,14.958 L17.7842,22.7991 L17.4487,21.1037 L16.4421,15.9823 C16.4421,15.9823 16.3185,14.958 15.0293,14.958 L10.3494,14.958 L10.2964,15.1523 C10.2964,15.1523 11.7268,15.4525 13.4046,16.4591 L15.9829,26.3664 L19.0734,26.3664 L23.7887,14.9757 L20.6098,14.9757 L20.6098,14.958 Z" fill="#FFFFFF"></path>
        <path d="M43.9387,26.3487 L46.6584,26.3487 L44.2919,14.958 L41.9078,14.958 C40.8129,14.958 40.5303,15.8057 40.5303,15.8057 L36.0977,26.3487 L39.1882,26.3487 L39.8063,24.6534 L43.5855,24.6534 L43.9387,26.3487 Z M40.6716,22.3223 L42.2257,18.0662 L43.1087,22.3223 L40.6716,22.3223 Z" fill="#FFFFFF" fill-rule="nonzero"></path>
        <path d="M36.3448,17.6952 L36.7687,15.2405 C36.7687,15.2405 35.4618,14.746 34.102,14.746 C32.6362,14.746 29.1395,15.3817 29.1395,18.5252 C29.1395,21.4744 33.2367,21.5098 33.2367,23.0462 C33.2367,24.6003 29.5634,24.3177 28.3448,23.3464 L27.9033,25.9071 C27.9033,25.9071 29.2278,26.5429 31.2587,26.5429 C33.2896,26.5429 36.3448,25.5009 36.3448,22.64 C36.3448,19.6731 32.2124,19.4082 32.2124,18.119 C32.1771,16.8299 35.0733,16.9888 36.3448,17.6952 Z" fill="#FFFFFF"></path>
        <path d="M17.4306,21.1037 L16.424,15.9823 C16.424,15.9823 16.3004,14.958 15.0112,14.958 L10.3313,14.958 L10.2783,15.1523 C10.2783,15.1523 12.5212,15.6114 14.6757,17.3598 C16.7596,19.0198 17.4306,21.1037 17.4306,21.1037 Z" fill="#F9A533"></path>
    </g>
</svg>
