<?xml version="1.0" encoding="UTF-8"?>
<svg width="56px" height="40px" viewBox="0 0 56 40" version="1.1" xmlns="http://www.w3.org/2000/svg">
    <g stroke="none" stroke-width="1" fill="none" fill-rule="evenodd">
        <path d="M50.7923253,40 L5.19033548,40 C2.32610455,40 0,37.6408897 0,34.7359659 L0,5.26408398 C0,2.35915023 2.32610455,0 5.19033548,0 L50.8097235,0 C53.6739446,0 56,2.35915023 56,5.26408398 L56,34.7183204 C55.9827001,37.6408897 53.6739446,40 50.7923253,40 Z" fill="#0099DF"></path>
        <path d="M5.19033548,40 C2.32610455,40 0,37.6408897 0,34.7359659 L0,5.26408398 C0,2.35915023 2.32610455,1.08420217e-16 5.19033548,1.08420217e-16 C6.39677849,3.61400724e-17 7,0 7,0 C3.5,0.396052554 2.11168462,3.42911314 2.18272886,5.28172948 L2.18272886,34.7359659 C2.1737544,36.2520717 3.03127684,39.2531126 7,40 C7,40 6.39677849,40 5.19033548,40 Z" fill="#202121" opacity="0.147739955"></path>
        <path d="M41.8243259,14.5185185 C40.3820148,14.5185185 39.0583407,15.0432593 38.0190222,15.9181867 C39.3864593,17.0695052 40.2604741,18.8277807 40.2604741,20.7981926 C40.2604741,22.768563 39.3864593,24.5265481 38.0190222,25.6776593 C39.0583407,26.5529185 40.3822222,27.0774519 41.8243259,27.0774519 C45.1642074,27.0774519 47.8710815,24.2662519 47.8710815,20.7981926 C47.8710815,17.3298637 45.164,14.5185185 41.8243259,14.5185185 Z" fill="#F79F1A"></path>
        <path d="M40.2606815,20.7981926 C40.2606815,18.8277185 39.3866667,17.069443 38.0192296,15.9181037 C36.6517926,17.069443 35.7777778,18.8277185 35.7777778,20.7981926 C35.7777778,22.7683556 36.6517926,24.5265481 38.0192296,25.6776593 C39.3866667,24.5265481 40.2606815,22.7683556 40.2606815,20.7981926 Z" fill="#FF5F01"></path>
        <path d="M17.986163,20.2740741 C17.986163,20.7156237 17.6412444,21.0734222 17.2164741,21.0734222 L7.66536296,21.0734222 C7.24017778,21.0734222 6.89567407,20.7156237 6.89567407,20.2740741 L6.89567407,12.5448711 C6.89567407,12.1033215 7.24038519,11.7456681 7.66536296,11.7456681 L17.2164741,11.7456681 C17.6412444,11.7456681 17.986163,12.1033215 17.986163,12.5448711 L17.986163,20.2740741 Z" fill="#FFC715"></path>
        <path d="M18.0909037,27.9180741 L6.89484444,27.9180741 C6.4093037,27.9180741 6.01564444,27.5092741 6.01564444,27.0050667 C6.01564444,26.5006519 6.4090963,26.0920593 6.89484444,26.0920593 L18.0909037,26.0920593 C18.5764444,26.0920593 18.9701037,26.5006519 18.9701037,27.0050667 C18.9701037,27.5092741 18.5764444,27.9180741 18.0909037,27.9180741 Z" fill="#34495E"></path>
        <path d="M18.0909037,31.7260741 L6.89484444,31.7260741 C6.4093037,31.7260741 6.01564444,31.3174815 6.01564444,30.8128593 C6.01564444,30.3086519 6.4090963,29.8998519 6.89484444,29.8998519 L18.0909037,29.8998519 C18.5764444,29.8998519 18.9701037,30.3084444 18.9701037,30.8128593 C18.9701037,31.3172741 18.5764444,31.7260741 18.0909037,31.7260741 Z" fill="#34495E"></path>
        <polygon fill="#FFA617" points="9.8810963 21.0730074 11.6397037 21.0730074 11.6397037 20.1600415 11.6397037 12.6582193 11.6397037 11.7451496 9.8810963 11.7451496 9.8810963 12.6582193 9.8810963 13.9411793 7.77445926 13.9411793 6.89525926 13.9411793 6.89525926 15.7673185 7.77445926 15.7673185 9.8810963 15.7673185 9.8810963 17.0509422 7.77445926 17.0509422 6.89525926 17.0509422 6.89525926 18.876957 7.77445926 18.876957 9.8810963 18.876957 9.8810963 20.1600415"></polygon>
        <path d="M17.1071704,15.7672978 L17.9863704,15.7672978 L17.9863704,13.9411793 L17.1071704,13.9411793 L15.4302815,13.9411793 L15.4302815,12.6582193 L15.4302815,11.7451496 L13.6718815,11.7451496 L13.6718815,12.6582193 L13.6718815,17.9638874 C13.6718815,18.4680948 14.0653333,18.8769363 14.5510815,18.8769363 L17.1071704,18.8769363 L17.9863704,18.8769363 L17.9863704,17.0508178 L17.1071704,17.0508178 L15.4302815,17.0508178 L15.4302815,15.7672978 L17.1071704,15.7672978 Z" fill="#FFA617"></path>
        <path d="M8.51511111,20.2740741 L8.51511111,12.5448711 C8.51511111,12.1033215 8.85961481,11.7456681 9.2848,11.7456681 L7.66536296,11.7456681 C7.24017778,11.7456681 6.89567407,12.1033215 6.89567407,12.5448711 L6.89567407,20.2740741 C6.89567407,20.7156237 7.24038519,21.0734222 7.66536296,21.0734222 L9.28500741,21.0734222 C8.85961481,21.0734222 8.51511111,20.7156237 8.51511111,20.2740741 Z" fill="#202121" opacity="0.15"></path>
    </g>
</svg>
