<?xml version="1.0" encoding="UTF-8"?>
<svg width="56px" height="40px" viewBox="0 0 56 40" version="1.1" xmlns="http://www.w3.org/2000/svg">
    <g stroke="none" stroke-width="1" fill="none" fill-rule="evenodd">
        <path d="M0,32 L56,32 L56,34.7183204 C55.9827001,37.6408897 53.6739446,40 50.7923253,40 L5.19033548,40 C2.32610455,40 0,37.6408897 0,34.7359659 L0,32 Z M0,30 L0,5.26408398 C0,2.35915023 2.32610455,0 5.19033548,0 L50.8097235,0 C53.6739446,0 56,2.35915023 56,5.26408398 L56,30 L0,30 Z" fill="#004B8D"></path>
        <g transform="translate(3.000000, 11.000000)" fill="#FFFFFF">
            <path d="M12.1494891,0.976865217 C12.1494891,1.42652391 12.5128957,1.78993043 12.9623565,1.78993043 C13.4130043,1.78993043 13.7754217,1.42652391 13.7754217,0.976865217 C13.7754217,0.527404348 13.4130043,0.163997826 12.9623565,0.163997826 C12.4970696,0.163997826 12.1494891,0.527602174 12.1494891,0.976865217" id="Path"></path>
            <path d="M10.3755826,10.0808217 C10.1720196,9.90574565 9.96845652,9.61553478 9.7650913,9.18130652 L5.87207174,0.789326087 L5.28076957,0.789326087 L1.56975,8.95954348 C1.14936957,9.84303478 0.816230435,10.2361152 0.0894173913,10.2489739 L0.0894173913,10.8024913 L3.16205217,10.8149543 L3.16521739,10.2487761 L3.02337609,10.2487761 C2.28469348,10.2487761 2.20912391,10.0608413 2.20912391,9.63927391 C2.20912391,9.46538478 2.28073696,9.20366087 2.44058043,8.84322174 L2.75690435,8.17318478 L7.81274565,8.17318478 L8.29267174,9.14728043 C8.36388913,9.30712391 8.39316739,9.46518696 8.39316739,9.59555435 C8.39316739,10.090713 8.07466739,10.2359174 7.27485652,10.2487761 L7.27485652,10.7781587 L11.469363,10.7781587 L11.469363,10.2644043 C11.1085283,10.2644043 10.5924,10.2695478 10.3755826,10.0808217 Z M3.12644348,7.44162391 L5.24199565,2.66610217 L7.53341522,7.48811304 L3.12644348,7.44162391 Z" id="Shape" fill-rule="nonzero"></path>
            <path d="M11.2028913,10.7781587 L15.1091652,10.7781587 L15.1091652,10.2632174 C14.2672174,10.2487761 13.8177565,10.0014935 13.8177565,9.18842826 L13.8177565,3.59588478 L11.1569957,3.5982587 L11.1558087,4.095 L11.7692674,4.15375435 C12.3540413,4.18243913 12.5018174,5.01963913 12.5018174,5.75990435 L12.4788696,9.14490652 C12.4788696,10.0026804 12.1326739,10.234137 11.2028913,10.2632174 L11.2028913,10.7781587 Z" id="Path"></path>
            <path d="M15.9758413,10.7781587 L19.9303848,10.7781587 L19.9303848,10.2669761 C18.9426391,10.2232565 18.6641,10.1459065 18.6641,9.31820217 C18.6641,9.31820217 18.5687478,6.01490217 18.6641,5.68710435 C18.8644978,4.99154783 19.5367109,4.5553413 19.8540239,4.52151304 C20.6538348,4.43466739 20.8281196,5.02794783 20.8281196,5.02794783 L21.6835196,4.29836522 C21.6835196,4.29836522 21.3671957,3.44533913 20.3911217,3.44533913 C19.3948696,3.44533913 18.735713,4.3862 18.5734957,5.02280435 L18.5938717,3.65918913 L16.0292543,3.67541087 L16.019363,4.07581087 L16.2506217,4.07581087 C17.3726913,4.07897609 17.2989022,4.90648261 17.2989022,5.69165435 L17.3232348,9.29466087 C17.3232348,10.1656891 16.8757522,10.2096065 15.9758413,10.2665804 L15.9758413,10.7781587 Z" id="Path"></path>
            <path d="M26.1504326,0.96005 L21.7935109,0.985371739 L21.7935109,1.49675217 C23.0417935,1.53888913 23.149213,1.86114783 23.2162761,2.18123043 L23.2162761,8.6996 C23.2162761,10.0062413 23.012713,10.3395783 21.7935109,10.3395783 L21.7935109,10.8022935 L26.1201652,10.8022935 L26.1201652,10.3395783 C24.8285587,10.3261261 24.6249957,10.0343326 24.6249957,8.6996 L24.6249957,7.14686304 L25.342313,7.14686304 C26.475263,7.14686304 27.5595478,7.05606087 28.2673696,6.85487174 C29.7029935,6.3973 30.2396957,5.27780217 30.2396957,4.10192391 C30.2394978,1.7646087 28.5021891,0.96005 26.1504326,0.96005 Z M25.1702043,6.38266087 C24.9177783,6.38266087 24.6046196,6.3510087 24.6046196,6.3510087 L24.6046196,1.75986087 C24.6046196,1.75986087 25.1522022,1.74146304 25.4610087,1.73552826 C28.6705391,1.68211522 28.7736065,3.15057826 28.7736065,4.16166739 C28.7736065,5.15613913 28.6560978,6.38266087 25.1702043,6.38266087 Z" id="Shape" fill-rule="nonzero"></path>
            <path d="M30.3607652,10.8272196 L34.2957239,10.8272196 L34.2957239,10.2570848 C33.4816696,10.240863 32.9629696,10.1045609 32.9629696,9.2903087 L32.9406152,0.96005 L30.2848,0.96005 L30.2848,1.42296304 L30.7724413,1.44353696 C31.4830326,1.44353696 31.6496022,1.74858478 31.6496022,2.48786087 L31.6254674,9.16923913 C31.6254674,10.027013 31.289163,10.2487761 30.360963,10.2778565 L30.360963,10.8272196 L30.3607652,10.8272196 Z" id="Path"></path>
            <path d="M41.8509,8.86854348 L41.8509,3.67224565 L39.1727304,3.67600435 L39.1727304,4.15236957 C40.1470239,4.15236957 40.5135957,4.34129348 40.5135957,5.18086739 C40.5135957,5.18086739 40.6593935,8.26853696 40.3873826,9.0143413 C40.2328804,9.43472174 39.2967674,10.6076326 37.9307783,10.1945717 C36.8670674,9.87231304 36.8696391,9.21790435 36.8696391,7.98465652 L36.8696391,3.67224565 L34.2258913,3.67600435 L34.2258913,4.15236957 L34.2858326,4.15236957 C35.2437065,4.15236957 35.6059261,4.4127087 35.6059261,5.35594348 L35.6059261,7.95359783 C35.6059261,10.1199913 36.0791261,10.7043696 37.7367109,10.9486848 C38.6265326,11.0814261 39.8308978,10.8276152 40.5737348,9.56686957 L40.5737348,10.8052609 L43.1696087,10.7761804 L43.1696087,10.2153435 C43.0392413,10.2285978 42.7266761,10.1947696 42.5328065,10.1463022 C41.9692,10.0052522 41.8509,9.49406957 41.8509,8.86854348" id="Path"></path>
            <path d="M44.1148217,10.7781587 L44.5718,10.7781587 C44.6155196,10.6038739 44.5652717,10.318213 44.7522174,10.318213 C45.1437152,10.318213 45.5834826,11.0501696 47.3016022,10.8507609 C48.524563,10.7091174 49.4677978,9.91543913 49.4677978,8.7413413 C49.4677978,7.92847391 49.1853022,7.43648043 48.3000304,6.95497174 C48.3000304,6.95497174 47.5700522,6.63508696 46.4232543,6.28908913 C45.2127565,5.92212174 45.29525,5.45426304 45.2744783,5.2241913 C45.2260109,4.68986304 45.8550978,4.18778043 46.5211783,4.12783913 C47.2549152,4.06136957 48.5583913,4.33021522 48.7619543,5.43131522 L49.3079543,5.43131522 L49.3000413,3.58856522 L48.786287,3.58856522 C48.7281261,3.74860652 48.6503804,4.03446522 48.5196174,4.03446522 C48.2869739,4.03446522 47.5698543,3.39489348 46.6196957,3.44573478 C45.2780391,3.51853478 44.1094804,4.38481522 44.1094804,5.47523261 C44.1094804,6.27346087 44.5098804,6.88177609 45.2950522,7.26931739 C46.083587,7.65962826 47.027613,7.92253913 47.5067478,8.09088913 C47.9833109,8.25567826 48.3000304,8.61750217 48.3000304,9.16923913 C48.3000304,9.8242413 47.6329609,10.2570848 46.86045,10.2570848 C45.947087,10.2570848 44.9290739,10.1118804 44.5973196,8.73204348 L44.1150196,8.73204348 L44.1150196,10.7781587 L44.1148217,10.7781587 Z" id="Path"></path>
        </g>
        <g transform="translate(3.678261, 34.541304)" fill="#FFFFFF">
            <polygon id="Path" points="0.0508413043 0.0688434783 0.558858696 0.0688434783 0.558858696 3.16937174 0.0508413043 3.16937174"></polygon>
            <polygon id="Path" points="32.135463 0.0688434783 32.6424913 0.0688434783 32.6424913 3.16937174 32.135463 3.16937174"></polygon>
            <polygon id="Path" points="2.74780435 0.0688434783 3.27738478 0.0688434783 4.7229 2.40675217 4.74446304 2.40675217 4.74446304 0.0688434783 5.23309348 0.0688434783 5.23309348 3.16937174 4.71182174 3.16937174 3.25799783 0.83166087 3.23485217 0.832847826 3.23485217 3.16956957 2.74780435 3.16956957"></polygon>
            <polygon id="Path" points="19.6243478 0.0688434783 20.1535326 0.0688434783 21.5990478 2.40675217 21.6208087 2.40675217 21.6208087 0.0688434783 22.1094391 0.0688434783 22.1094391 3.16937174 21.5875739 3.16937174 20.13375 0.83166087 20.1111978 0.832847826 20.1111978 3.16956957 19.6243478 3.16956957"></polygon>
            <polygon id="Path" points="39.1331652 0.0688434783 39.6621522 0.0688434783 41.1082609 2.40675217 41.1298239 2.40675217 41.1298239 0.0688434783 41.61885 0.0688434783 41.61885 3.16937174 41.0965891 3.16937174 39.6427652 0.83166087 39.620213 0.832847826 39.620213 3.16956957 39.1331652 3.16956957 39.1331652 0.0688434783"></polygon>
            <polygon id="Path" points="6.92549565 0.0688434783 9.40326739 0.0688434783 9.40326739 0.506434783 8.40325652 0.506434783 8.40325652 3.16937174 7.91957174 3.16937174 7.91957174 0.506434783 6.92549565 0.506434783 6.92549565 0.0688434783"></polygon>
            <polygon id="Path" points="27.8412522 0.0688434783 30.3194196 0.0688434783 30.3194196 0.506434783 29.3186174 0.506434783 29.3186174 3.16937174 28.8353283 3.16937174 28.8353283 0.506434783 27.8412522 0.506434783 27.8412522 0.0688434783"></polygon>
            <polygon id="Path" points="10.9963609 0.0688434783 13.1989565 0.0688434783 13.1989565 0.503863043 11.5016087 0.503863043 11.5027957 1.36519783 13.0767 1.36519783 13.075513 1.77113696 11.5065543 1.77113696 11.5065543 2.74582609 13.2321913 2.74582609 13.2321913 3.16937174 10.9963609 3.16937174"></polygon>
            <path d="M15.1602043,0.0688434783 L16.5930587,0.0688434783 C17.2702174,0.0688434783 17.6090935,0.404356522 17.6090935,0.91811087 C17.6090935,1.51297391 17.1889109,1.65382609 17.0898,1.6888413 L17.0892065,1.7009087 C17.2749652,1.72781304 17.5645826,1.86589565 17.5645826,2.35630652 C17.5645826,2.71753696 17.6140391,3.04355435 17.730163,3.16937174 L17.2108696,3.16937174 C17.1283761,3.03485 17.1260022,2.86531304 17.1283761,2.71377826 C17.1366848,2.14087391 16.9716978,1.85976304 16.4725826,1.85976304 L15.6480435,1.85976304 L15.6480435,3.16937174 L15.1602043,3.16937174 L15.1602043,0.0688434783 Z M15.6425043,1.51178696 L16.5614065,1.51178696 C16.9295609,1.51178696 17.1416304,1.33611739 17.1416304,0.993284783 C17.1416304,0.598423913 16.888413,0.490608696 16.5550761,0.490608696 L15.6413174,0.490608696 L15.6425043,1.51178696 Z" id="Shape" fill-rule="nonzero"></path>
            <path d="M24.9947326,0.0688434783 L25.508487,0.0688434783 L26.7029609,3.16937174 L26.1880196,3.16937174 L25.8825761,2.32485217 L24.598487,2.32485217 L24.2880978,3.16937174 L23.8050065,3.16937174 L24.9947326,0.0688434783 Z M24.7195565,1.95887391 L25.7664522,1.95887391 L25.2703043,0.567563043 L25.2180783,0.567563043 L24.7195565,1.95887391 Z" id="Shape" fill-rule="nonzero"></path>
            <path d="M44.5221457,0.0688434783 L45.0359,0.0688434783 L46.2301761,3.16937174 L45.7160261,3.16937174 L45.4105826,2.32485217 L44.1264935,2.32485217 L43.8161043,3.16937174 L43.3324196,3.16937174 L44.5221457,0.0688434783 Z M44.2469696,1.95887391 L45.2936674,1.95887391 L44.798113,0.567563043 L44.745887,0.567563043 L44.2469696,1.95887391 Z" id="Shape" fill-rule="nonzero"></path>
            <path d="M37.4504565,1.61861304 C37.4504565,2.50546739 36.9119739,3.23722609 35.9821913,3.23722609 C35.0533978,3.23722609 34.5107609,2.50902826 34.5107609,1.6235587 C34.5107609,0.737693478 35.0533978,0.00118695652 35.9821913,0.00118695652 C36.9119739,0.000989130435 37.4504565,0.732747826 37.4504565,1.61861304 Z M34.9805978,1.62692174 C34.9805978,2.2659 35.2785239,2.85561957 35.9744761,2.85561957 C36.6785391,2.85561957 36.9808174,2.28133043 36.9808174,1.63661522 C36.9808174,1.01504565 36.6785391,0.384573913 35.9738826,0.384573913 C35.2907891,0.384376087 34.9805978,0.984184783 34.9805978,1.62692174 Z" id="Shape" fill-rule="nonzero"></path>
            <polygon id="Path" points="48.0096217 0.0688434783 48.497263 0.0688434783 48.497263 2.72821957 50.0802674 2.72821957 50.0802674 3.16917391 48.0096217 3.16917391"></polygon>
        </g>
    </g>
</svg>
