<?xml version="1.0" encoding="UTF-8"?>
<svg width="24px" height="24px" viewBox="0 0 24 24" version="1.1" xmlns="http://www.w3.org/2000/svg" xmlns:xlink="http://www.w3.org/1999/xlink">
    <g id="baseline-person_remove-24px" stroke="none" stroke-width="1" fill="none" fill-rule="evenodd">
        <polygon id="Shape" points="0 0 24 0 24 24 0 24"></polygon>
        <path d="M15,12 C17.21,12 19,10.21 19,8 C19,5.79 17.21,4 15,4 C12.79,4 11,5.79 11,8 C11,10.21 12.79,12 15,12 Z M1,10 L1,12 L9,12 L9,10 L1,10 Z M15,14 C12.33,14 7,15.34 7,18 L7,20 L23,20 L23,18 C23,15.34 17.67,14 15,14 Z" id="Shape" fill="#4F5A7C" fill-rule="nonzero"></path>
    </g>
</svg>