<?xml version="1.0" encoding="utf-8"?>
<svg version="1.1" height="50px" width="100px" viewBox="0 0 547 200" xmlns="http://www.w3.org/2000/svg">
  <g fill="#707070">
    <g>
      <g>
        <path d="M506.58,53.42v1.45h-2.08v6.24h-1.52v-6.24h-2.07v-1.45H506.58z"/>
        <path
          d="M515.68,53.42v7.69h-1.5v-4.99l-2.17,3.57h-0.18l-2.16-3.56v4.98h-1.52v-7.69h1.56l2.21,3.64l2.2-3.64H515.68z"/>
      </g>
    </g>
    <g>
      <path d="M96.29,73.53c1.12-0.9,3.61-3.02,3.93-3.29c3.74-3.23,8.06-6.28,13.38-7.81c2.86-0.82,7.08-1.36,11.29-1.36
			h13.78V45.73h-13.51c-16.58,0-27.3,5.73-38.53,16.28C78.33,69.8,70.96,76.48,57.06,76.5l-10.71,0v15.34h92.31V76.49l-27.83,0
			l-18.35,0c0.39-0.23,0.94-0.65,1.45-1.08C94.11,75.26,95.14,74.45,96.29,73.53z"/>
      <path d="M92.51,105.34c-11.12,0-20.55,7.26-23.79,17.31H46.35v15.38h22.36c3.24,10.04,12.67,17.31,23.79,17.31
			s20.55-7.26,23.79-17.31h22.36v-15.38H116.3C113.05,112.61,103.63,105.34,92.51,105.34z M92.51,141.88
			c-6.37,0-11.54-5.17-11.54-11.54c0-6.37,5.17-11.54,11.54-11.54c6.37,0,11.54,5.17,11.54,11.54
			C104.04,136.71,98.88,141.88,92.51,141.88z"/>
    </g>
    <g>
      <polygon points="413.43,107.01 434.86,76.49 412.14,76.49 402,92.5 391.86,76.49 369.13,76.49 390.56,107.01 368.06,138.03
			391.14,138.03 402,120.76 412.85,138.03 435.93,138.03"/>
      <path d="M468.96,122.18c-8.02,0-14.53-6.57-14.53-14.67s6.51-14.67,14.53-14.67c8.02,0,14.53,6.57,14.53,14.67
			S476.98,122.18,468.96,122.18 M468.96,75.68c-8.84,0-17.26,3.1-23.44,8.71c-6.46,5.83-10,14.01-10,23.13
			c0,8.45,3.16,16.19,8.78,21.92c6.26,6.43,15.21,9.89,24.66,9.89c8.8,0,17.22-3.15,23.37-8.73c6.46-5.83,10.07-13.93,10.07-23.07
			c0-8.42-3.15-16.23-8.74-21.94C487.39,79.11,478.44,75.68,468.96,75.68"/>
      <path d="M219.36,122.65l-5.81,0c-8.81,0-10-1.46-10-10.29l0.05-20.53h16.1V76.49h-16.1V57.26h-18.79v19.23h-9.96v15.34h9.96v25.66
			c0,13.82,6.5,20.53,20.3,20.53h14.25V122.65z"/>
      <path d="M274.61,130.1c-0.95,1.65-2.19,3.13-3.69,4.37c-4.08,3.36-9.63,4.86-14.65,4.86c-8.76-0.01-16.98-3.44-22.39-9.58
			c-5.29-6-7.52-13.96-7.51-22.12c0.02-8.49,2.72-16.66,8.45-22.76c5.36-5.71,13.5-9.19,21.49-9.2c4.99,0,10.54,1.5,14.61,4.86
			c1.5,1.24,2.74,2.72,3.69,4.37v-8.39h18.72v61.53h-18.72V130.1z M250.05,118.42c2.71,2.75,6.48,4.18,10.35,4.17
			c4.08-0.01,7.83-1.54,10.64-4.47c2.75-2.87,4.18-6.68,4.19-10.62c0.01-3.99-1.29-7.95-4.11-10.87c-2.83-2.94-6.66-4.28-10.72-4.29
			c-3.89-0.01-7.63,1.44-10.35,4.21c-2.88,2.93-4.22,6.87-4.22,10.95C245.83,111.56,247.18,115.51,250.05,118.42"/>
      <rect x="307.24" y="49.57" width="19.32" height="88.45"/>
      <path d="M360.69,59.19c-0.02-2.01-0.51-3.82-1.45-5.41c-0.96-1.59-2.22-2.86-3.84-3.8c-1.59-0.94-3.38-1.41-5.35-1.43
			c-1.97,0.02-3.76,0.52-5.35,1.48c-1.61,0.96-2.88,2.24-3.82,3.83c-0.96,1.61-1.45,3.38-1.47,5.32c0.02,1.94,0.51,3.73,1.43,5.37
			c0.94,1.63,2.21,2.95,3.8,3.94c1.59,0.99,3.4,1.5,5.41,1.54c1.94-0.02,3.71-0.51,5.32-1.46c1.59-0.96,2.88-2.24,3.83-3.87
			C360.16,63.08,360.67,61.24,360.69,59.19"/>
      <rect x="340.47" y="76.49" width="19.32" height="61.53"/>
    </g>
  </g>
</svg>
