<svg width="412" height="250" viewBox="0 0 412 250" fill="none" xmlns="http://www.w3.org/2000/svg">
<path d="M262.018 250C344.851 250 412 243.957 412 236.503C412 229.049 344.851 223.006 262.018 223.006C179.186 223.006 112.036 229.049 112.036 236.503C112.036 243.957 179.186 250 262.018 250Z" fill="#4F5A7C"/>
<path opacity="0.3" d="M188.709 110.281L351.503 110.281V9.15527e-05L188.709 9.15527e-05V110.281Z" fill="#3F3D56"/>
<path d="M341.112 10.1042H292.909V62.6466H341.112V10.1042Z" fill="#F2F2F2"/>
<path d="M216.707 13.28L263.179 13.28V10.1044L216.707 10.1044V13.28Z" fill="#F2F2F2"/>
<path d="M292.909 73.9058H309.361V70.7301H292.909V73.9058Z" fill="#F2F2F2"/>
<path d="M293.486 79.6797H340.535V76.504H293.486V79.6797Z" fill="#F2F2F2"/>
<path d="M207.182 24.8276L274.147 24.8276V21.652L207.182 21.652V24.8276Z" fill="#F2F2F2"/>
<path d="M207.182 33.7771L274.147 33.7771V30.6015L207.182 30.6015V33.7771Z" fill="#F2F2F2"/>
<path d="M207.182 42.7268L274.147 42.7268V39.5512L207.182 39.5512V42.7268Z" fill="#F2F2F2"/>
<path d="M207.182 51.6763L274.147 51.6763V48.5006L207.182 48.5006V51.6763Z" fill="#F2F2F2"/>
<path d="M207.182 60.6257L274.147 60.6257V57.4501L207.182 57.4501V60.6257Z" fill="#F2F2F2"/>
<path d="M207.182 69.5752L274.147 69.5752V66.3996L207.182 66.3996V69.5752Z" fill="#F2F2F2"/>
<path d="M207.182 78.5249L274.147 78.5249V75.3493L207.182 75.3493V78.5249Z" fill="#F2F2F2"/>
<path d="M300.148 40.1071C300.861 39.5993 301.649 39.2044 302.482 38.9363C307.767 36.9696 313.304 35.7641 318.928 35.3557C323.818 35.0089 329.118 35.4208 332.937 38.4947C333.531 38.9307 334.018 39.4972 334.358 40.1506C334.839 41.1877 334.693 42.3933 334.538 43.5257C334.503 43.9649 334.392 44.3948 334.211 44.7962C333.697 45.775 332.431 46.1179 331.332 46.0005C330.233 45.8831 329.202 45.418 328.118 45.2024C327.446 45.0854 326.768 45.0163 326.087 44.9956L319.288 44.6274C315.06 44.3985 310.776 44.1733 306.629 45.0268C305.352 45.2563 304.118 45.6815 302.971 46.2874C302.024 46.8193 301.386 47.5826 300.507 46.6001C298.963 44.874 298.108 41.7014 300.148 40.1071Z" fill="#2F2E41"/>
<path d="M310.684 43.1143C310.684 43.1143 319.83 39.0139 323.298 43.7451C326.767 48.4763 321.406 46.5839 321.406 46.5839L315.415 48.4763L308.792 47.2147L310.684 43.1143Z" fill="#F2F2F2"/>
<path d="M311.157 40.1178C311.157 40.1178 312.419 46.1107 311.473 47.6878C310.527 49.2648 316.834 51.4728 316.834 51.4728L322.825 48.9494C322.825 48.9494 321.249 39.1715 322.825 37.2791L311.157 40.1178Z" fill="#FFB9B9"/>
<path opacity="0.1" d="M311.157 40.1178C311.157 40.1178 312.419 46.1107 311.473 47.6878C310.527 49.2648 316.834 51.4728 316.834 51.4728L322.825 48.9494C322.825 48.9494 321.249 39.1715 322.825 37.2791L311.157 40.1178Z" fill="black"/>
<path d="M325.664 34.1251C325.662 36.6341 324.664 39.0397 322.89 40.8138C321.117 42.5879 318.711 43.5855 316.203 43.5875C315.639 43.5885 315.077 43.5378 314.522 43.4362C312.752 43.1164 311.109 42.2982 309.787 41.0777C308.465 39.8572 307.518 38.2849 307.058 36.5452C306.597 34.8056 306.643 32.9708 307.188 31.256C307.734 29.5411 308.757 28.0175 310.137 26.8636C311.518 25.7098 313.199 24.9737 314.983 24.7416C316.767 24.5095 318.581 24.7911 320.211 25.5534C321.84 26.3156 323.219 27.5269 324.185 29.0451C325.151 30.5633 325.664 32.3256 325.664 34.1251Z" fill="#FFB9B9"/>
<path d="M331.376 62.9354H301.204L301.888 59.9647L304.85 47.0572L308.273 44.7448L308.276 44.7419L309.884 43.6535L310.683 43.1137C310.683 43.1137 311.157 43.3302 311.702 43.6247C311.861 43.7141 312.023 43.8065 312.184 43.9047C312.187 43.9018 312.187 43.9047 312.187 43.9047C312.449 44.0567 312.698 44.2295 312.932 44.4215C312.975 44.4619 313.013 44.4965 313.05 44.5341C313.651 45.1345 315.403 48.3217 318.301 46.6906C318.447 46.6102 318.589 46.5215 318.725 46.425C319.48 45.9022 320.201 45.3303 320.881 44.713C321.49 44.1559 321.886 43.7257 322.209 43.4283C322.354 43.2838 322.519 43.1612 322.7 43.0646C322.836 42.9931 322.987 42.9564 323.141 42.9578C324.088 42.9578 325.349 44.8487 325.349 44.8487L325.387 44.9584L325.39 44.9671L329.37 56.919L331.376 62.9354Z" fill="#F2F2F2"/>
<path d="M301.204 62.9354H310.349C310.369 61.8781 310.314 60.8208 310.184 59.7713C309.904 57.661 309.217 55.6286 308.784 53.5442C308.403 51.7176 308.218 49.8556 308.233 47.9897C308.236 47.7328 308.242 47.473 308.265 47.2131C308.287 46.6182 308.459 46.0385 308.764 45.5272C308.98 45.1952 309.278 44.9123 309.509 44.5947C309.589 44.4907 309.659 44.3796 309.719 44.2627V44.2598C309.748 44.2025 309.774 44.1437 309.797 44.0837C309.848 43.9457 309.877 43.8005 309.884 43.6536C309.936 42.7009 309.073 41.7828 308.141 41.3902C306.832 40.8987 305.4 40.8411 304.056 41.2256C302.724 41.6107 301.437 42.1372 300.217 42.7961C299.805 42.9982 299.395 43.2061 298.999 43.437C298.527 43.7048 298.093 44.035 297.709 44.4186C296.728 45.4319 296.297 46.8436 295.951 48.2092C295.621 49.253 295.508 50.3534 295.619 51.4425C295.622 51.4772 295.631 51.5147 295.637 51.5494C295.98 53.3479 297.446 54.699 298.229 56.3561C299.135 58.2788 299.074 60.5191 298.713 62.615C298.696 62.7218 298.676 62.8286 298.656 62.9354H301.204V62.9354Z" fill="#2F2E41"/>
<path d="M338.428 51.3848C337.28 55.1596 336.447 59.0231 335.937 62.9354H322.902C322.561 62.0059 322.221 61.0753 321.883 60.1438C321.612 59.4408 321.38 58.7238 321.187 57.9959C320.981 57.1495 320.883 56.2803 320.896 55.4092C320.896 55.2013 320.904 54.9906 320.922 54.7827C320.923 54.7811 320.924 54.7791 320.924 54.7769C320.924 54.7748 320.923 54.7728 320.922 54.7712C321.001 53.6725 321.255 52.5936 321.675 51.5753C321.868 51.1124 322.089 50.6621 322.339 50.2271C322.945 49.1301 323.678 48.0965 324.331 47.0226C324.737 46.3663 325.091 45.679 325.39 44.9671C325.39 44.9655 325.39 44.964 325.39 44.9625C325.391 44.961 325.392 44.9596 325.393 44.9584C325.782 44.0506 325.985 43.0738 325.99 42.086C325.97 40.8128 323.817 38.5927 326.158 38.8064C329.353 39.0951 332.098 40.9341 334.6 43.03C335.267 43.59 335.92 44.1703 336.557 44.7419C337.545 45.6311 338.587 46.6011 338.884 47.8973C338.932 48.104 338.96 48.3147 338.968 48.5267C338.95 49.5031 338.768 50.4694 338.428 51.3848Z" fill="#2F2E41"/>
<path d="M318.89 47.903C318.562 47.0162 318.059 46.2046 317.41 45.5163C316.756 44.9634 315.982 44.5711 315.149 44.3708C314.071 44.0626 312.955 43.9026 311.833 43.8954C310.497 43.8871 308.949 44.2454 308.382 45.4548C307.931 46.4152 308.28 47.5525 308.734 48.5114C308.928 49.0081 309.25 49.4442 309.669 49.7746C310.245 50.1638 310.99 50.1515 311.672 50.2818C312.731 50.5507 313.734 51.0051 314.634 51.624L316.973 53.0382L320.991 55.4674C320.885 55.4034 320.923 52.6475 320.799 52.1958C320.402 50.7409 319.507 49.2808 318.89 47.903Z" fill="#FFB9B9"/>
<path d="M325.426 29.1936C325.257 28.6277 324.887 28.1437 324.384 27.8339C324.41 27.2277 324.336 26.6214 324.164 26.0394C323.591 24.3453 322.234 24.4424 320.953 23.6934C320.398 23.3685 320.432 23.0813 320.143 22.5475C319.764 21.8478 319.196 21.2685 318.504 20.8755C317.683 20.3519 316.816 19.8127 315.844 19.7464C313.801 19.6072 312.235 21.5287 310.283 22.1454C309.422 22.4172 308.498 22.4285 307.633 22.6854C306.768 22.9424 305.905 23.556 305.776 24.4493C305.716 24.8617 305.821 25.2847 305.761 25.697C305.641 26.5165 304.922 27.0904 304.441 27.7644C303.377 29.2548 303.498 31.3604 304.349 32.9821C304.529 33.3176 304.734 33.6387 304.963 33.9424C305.034 34.7089 305.254 35.4541 305.611 36.1362C306.462 37.7579 307.926 38.9697 309.456 39.9765C309.33 39.4386 309.254 38.8905 309.229 38.3389C309.207 38.1551 309.231 37.9687 309.298 37.7963C309.469 37.4402 309.919 37.3454 310.262 37.1504C310.973 36.7464 311.252 35.8523 311.272 35.0348C311.293 34.2173 311.119 33.3985 311.205 32.5853C311.208 32.3983 311.251 32.2141 311.33 32.0445C311.409 31.8749 311.522 31.7237 311.663 31.6007C311.925 31.4511 312.225 31.3796 312.527 31.3948C313.983 31.3354 315.505 31.3086 316.79 30.6197C317.204 30.3445 317.649 30.1192 318.116 29.9484C319.208 29.6637 320.324 30.429 320.953 31.3657C321.582 32.3024 321.896 33.4171 322.477 34.3848C323.057 35.3524 324.06 36.2153 325.182 36.1007C325.246 36.1008 325.308 36.0876 325.366 36.0619C325.424 36.0362 325.475 35.9986 325.518 35.9516C325.566 35.8646 325.588 35.7652 325.579 35.6659L325.642 31.3747C325.694 30.6407 325.621 29.9031 325.426 29.1936Z" fill="#2F2E41"/>
<path d="M300.474 57.8515C300.679 59.5403 300.803 61.2349 300.846 62.9354H292.909V56.2636C292.949 56.1019 292.993 55.9432 293.044 55.7844C293.541 54.2543 294.583 52.9725 295.486 51.6416C295.53 51.5752 295.576 51.5088 295.619 51.4424C296.003 50.881 296.334 50.2846 296.606 49.6612C296.736 49.3552 296.944 47.8742 297.163 47.7472C298.104 47.2015 298.869 49.5342 298.999 50.0538C299.461 51.9044 299.862 53.7722 300.165 55.6574C300.284 56.3878 300.387 57.1191 300.474 57.8515Z" fill="#2F2E41"/>
<path d="M340.587 62.9354H322.365C322.209 62.5688 322.056 62.2021 321.894 61.8384C320.758 59.2678 319.289 56.8577 317.524 54.6701C317.233 54.3809 317.044 54.0051 316.984 53.599C316.978 53.4304 317.019 53.2635 317.103 53.1169C317.38 52.6001 318.113 52.297 318.708 52.0517C319.322 51.8041 319.887 51.4482 320.376 51.0008C320.808 50.6118 321.139 50.1232 321.34 49.5775C321.394 49.4175 321.434 49.2534 321.461 49.0868C321.545 49.1964 321.632 49.3091 321.715 49.4187C321.92 49.6901 322.128 49.9586 322.339 50.2271C324.359 52.8224 326.579 55.3803 329.37 56.919C330.099 57.3254 330.869 57.6535 331.668 57.8977C331.744 57.9313 331.827 57.9486 331.91 57.9486C331.994 57.9486 332.076 57.9313 332.153 57.8977C332.27 57.801 332.346 57.6623 332.363 57.5109C332.612 56.4716 332.698 55.4005 332.88 54.3468C333.214 52.4296 333.856 50.5791 334.782 48.8674C335.299 47.906 336.979 44.3926 338.044 46.6069C338.35 47.2449 338.658 47.8848 338.967 48.5267C339.161 48.9338 339.357 49.3379 339.553 49.745C340.278 51.0364 340.608 52.5118 340.503 53.9888C340.532 56.9739 340.56 59.9561 340.587 62.9354Z" fill="#2F2E41"/>
<path opacity="0.1" d="M301.204 62.9354H302.783L301.888 59.9647L300.598 55.6833C300.613 56.4082 300.572 57.1331 300.474 57.8514C300.279 59.3362 299.855 60.7815 299.216 62.1357C299.092 62.3984 298.959 62.664 298.852 62.9354H301.204Z" fill="black"/>
<path opacity="0.1" d="M333.365 53.8057C333.143 54.4037 333.345 55.065 333.516 55.6795C334.012 57.4621 334.244 59.308 334.204 61.158C334.211 61.1903 334.21 61.224 334.201 61.2558C334.192 61.2877 334.175 61.3169 334.152 61.3406C334.129 61.3643 334.1 61.3819 334.069 61.3917C334.037 61.4016 334.003 61.4034 333.971 61.397C333.243 61.4416 332.41 61.4463 331.916 60.9096L333.365 53.8057Z" fill="black"/>
<path opacity="0.3" d="M162.794 1.13501H0V111.416H162.794V1.13501Z" fill="#3F3D56"/>
<path d="M58.5944 11.2395H10.3911V63.7819H58.5944V11.2395Z" fill="#F2F2F2"/>
<path d="M134.796 11.2395H88.3245V14.4151H134.796V11.2395Z" fill="#F2F2F2"/>
<path d="M27.421 71.8652H10.9684V75.0409H27.421V71.8652Z" fill="#F2F2F2"/>
<path d="M58.017 77.6392H10.9684V80.8148H58.017V77.6392Z" fill="#F2F2F2"/>
<path d="M144.321 22.7871H77.3561V25.9628H144.321V22.7871Z" fill="#F2F2F2"/>
<path d="M144.321 31.7366H77.3561V34.9122H144.321V31.7366Z" fill="#F2F2F2"/>
<path d="M144.321 40.6863H77.3561V43.8619H144.321V40.6863Z" fill="#F2F2F2"/>
<path d="M144.321 49.6357H77.3561V52.8114H144.321V49.6357Z" fill="#F2F2F2"/>
<path d="M144.321 58.5852H77.3561V61.7608H144.321V58.5852Z" fill="#F2F2F2"/>
<path d="M144.321 67.5347H77.3561V70.7103H144.321V67.5347Z" fill="#F2F2F2"/>
<path d="M144.321 76.4844H77.3561V79.66H144.321V76.4844Z" fill="#F2F2F2"/>
<path d="M57.2839 64.0705H51.0174C50.5354 62.7742 50.1073 61.4616 49.733 60.1327C49.4861 58.5701 48.7739 57.1183 47.6894 55.9668C47.3583 55.5976 47.0635 55.1974 46.809 54.7716C46.2718 53.7233 46.0779 52.5325 46.2549 51.3679C46.2909 51.0438 46.3449 50.7218 46.4165 50.4037C46.6907 49.171 47.1496 47.9873 47.5335 46.7863C47.6147 46.5425 47.7627 46.3263 47.9607 46.1624C48.1587 45.9986 48.3987 45.8937 48.6535 45.8596C49.0666 45.7904 49.4908 45.8395 49.8773 46.0011C49.9628 46.0359 50.0449 46.0784 50.1227 46.1281C50.8067 46.541 51.1618 47.3839 51.4475 48.1548C52.7551 51.6653 54.0617 55.1758 55.3673 58.6863C55.6213 59.3676 55.8753 60.0509 56.1293 60.736C56.5045 61.7407 56.8769 62.7453 57.1944 63.7702C57.2261 63.8713 57.255 63.9694 57.2839 64.0705Z" fill="#D0CDE1"/>
<path d="M31.1969 17.8651C29.6389 18.3913 28.2274 19.6222 27.9083 21.2358C27.7604 21.9837 27.8511 22.7612 27.7266 23.5134C27.438 25.258 26.0688 26.5903 24.806 27.8278C23.5432 29.0653 22.2391 30.5032 22.147 32.2691C22.0461 34.2027 23.4481 36.0142 23.2055 37.9352C22.9237 40.167 20.5668 41.6132 19.9842 43.786C19.5952 45.2368 20.0719 46.7997 20.8562 48.0807C22.3508 50.5218 24.9056 52.1791 27.6262 53.0675C30.3468 53.9559 33.2443 54.1428 36.106 54.1728C39.5906 54.2093 43.3739 53.9101 45.992 51.6099C47.4875 50.2843 48.4267 48.4422 48.6213 46.4531C48.87 43.7886 47.7581 41.0356 48.5251 38.4719C49.0077 36.8584 50.2181 35.3849 50.0375 33.7105C49.8609 32.0733 48.4313 30.9129 47.4505 29.5903C46.5348 28.3554 45.9791 26.8971 45.4345 25.4594L43.5712 20.5401C43.2049 19.573 42.8027 18.556 41.9864 17.9213C40.4582 16.7331 38.0009 16.9665 36.214 17.2116C34.5562 17.4389 32.7911 17.3266 31.1969 17.8651Z" fill="#2F2E41"/>
<path d="M32.6383 34.0769C32.6383 34.0769 32.8206 39.5493 32.2735 40.0966C31.7264 40.6438 34.4621 44.2921 34.4621 44.2921L39.3864 44.1097L41.9397 42.1031L39.7512 39.1845C39.7512 39.1845 38.8392 34.4417 39.5688 33.3473C40.2983 32.2528 32.6383 34.0769 32.6383 34.0769Z" fill="#A0616A"/>
<path opacity="0.1" d="M32.6383 34.0769C32.6383 34.0769 32.8206 39.5493 32.2735 40.0966C31.7264 40.6438 34.4621 44.2921 34.4621 44.2921L39.3864 44.1097L41.9397 42.1031L39.7512 39.1845C39.7512 39.1845 38.8392 34.4417 39.5688 33.3473C40.2983 32.2528 32.6383 34.0769 32.6383 34.0769Z" fill="#FFB9B9"/>
<path d="M35.6475 36.1748C39.2737 36.1748 42.2132 33.2347 42.2132 29.6079C42.2132 25.9811 39.2737 23.041 35.6475 23.041C32.0214 23.041 29.0818 25.9811 29.0818 29.6079C29.0818 33.2347 32.0214 36.1748 35.6475 36.1748Z" fill="#FFB9B9"/>
<path d="M39.0129 64.0704H44.3355C44.5346 63.7095 44.7222 63.3342 44.9387 62.9935V62.9906C45.1754 62.5787 45.5081 62.23 45.9085 61.9744C46.1632 61.8578 46.4042 61.7136 46.6273 61.5443C46.8408 61.3127 46.9918 61.0305 47.066 60.7244C47.4326 59.579 47.6347 58.3873 47.6664 57.185C47.675 56.7808 47.6664 56.3709 47.6895 55.9667C47.7009 55.6509 47.7414 55.3368 47.8107 55.0285C47.9934 54.4015 48.2584 53.8016 48.5987 53.2443C49.3203 51.9308 50.0438 50.6172 50.7693 49.3037C50.9001 48.9336 50.9502 48.5399 50.9165 48.1489C50.9009 47.6214 50.739 47.1087 50.4489 46.6679C50.3479 46.486 50.2382 46.3041 50.1227 46.128C49.6775 45.4175 49.1589 44.7557 48.5756 44.1534C47.3379 42.8551 45.8358 41.8381 44.1709 41.1712C43.9621 41.1008 43.7632 41.0038 43.5792 40.8825C43.3621 40.699 43.1785 40.4792 43.0365 40.2329C42.4593 39.3639 41.755 38.3853 40.713 38.4401C40.5434 38.355 40.3585 38.3045 40.1692 38.2916C39.9799 38.2787 39.7899 38.3037 39.6104 38.3651C39.5555 38.3793 39.5016 38.3967 39.4487 38.417C39.0505 38.5934 38.6639 38.7949 38.2913 39.0204C37.3327 39.5181 36.2463 39.7153 35.1739 39.5862C35.0482 39.5774 34.925 39.5461 34.8103 39.4939C34.6885 39.4166 34.5762 39.3256 34.4754 39.2225C34.212 39.0067 33.8961 38.8647 33.5599 38.811C33.2237 38.7572 32.8793 38.7936 32.5617 38.9165C32.2636 39.0227 32.0001 39.2084 31.7997 39.4534C31.6092 39.693 31.4764 39.9817 31.2657 40.2069C30.7202 40.7901 29.8196 40.8132 29.023 40.8103C27.3684 40.7641 25.7142 40.9162 24.0958 41.2635C22.6745 41.579 21.3462 42.2215 20.2165 43.1401L20.2136 43.1429C20.0577 43.2757 19.9134 43.4114 19.7691 43.5558C19.4408 43.865 19.1795 44.2384 19.0013 44.6528C18.7819 45.2187 18.8108 45.8567 18.6116 46.4312C18.3923 47.075 17.9045 47.6004 17.7082 48.2471C17.5581 48.7378 17.5783 49.2806 17.3301 49.7252C17.3416 49.7338 17.3503 49.7425 17.3618 49.7511C18.4125 50.675 19.3102 51.8875 20.3637 52.8026C20.9752 53.2686 21.4924 53.8466 21.8877 54.506C21.9638 54.6541 22.0266 54.8086 22.0754 54.9679C22.1939 55.5197 22.2462 56.0838 22.2312 56.6481C22.364 59.3474 23.8274 61.7955 25.464 63.9433C25.4958 63.9867 25.5275 64.03 25.5621 64.0704L39.0129 64.0704Z" fill="#D0CDE1"/>
<path d="M21.8877 54.506C21.6394 56.2295 21.3893 57.9521 21.1372 59.6737C21.0226 60.5957 20.851 61.5097 20.6234 62.4105C20.4733 62.9676 20.28 63.5133 20.1443 64.0705H12.6281C12.6319 63.7584 12.656 63.4469 12.7002 63.138C12.8937 62.0282 13.2083 60.943 13.6383 59.9018C14.5129 57.5402 15.3865 55.1768 16.2592 52.8114C16.6315 51.8039 16.9519 50.7501 17.3618 49.7512C17.4339 49.5665 17.5119 49.3817 17.5956 49.2027C18.0314 48.2443 19.2408 48.6369 20.1356 48.7813C20.3813 48.8118 20.6208 48.8799 20.8457 48.9833C21.1177 49.1332 21.3471 49.3498 21.5125 49.6127C22.3611 50.8685 22.1763 52.5285 21.957 54.0297C21.9339 54.1885 21.9108 54.3473 21.8877 54.506Z" fill="#D0CDE1"/>
<path d="M44.9386 62.9936C44.9502 63.034 45.0743 63.4641 45.2792 64.0704H39.0128C42.1186 63.5363 44.9386 62.9907 44.9386 62.9907V62.9936Z" fill="#2F2E41"/>
<path d="M36.1947 29.6079C40.123 29.6079 43.3075 27.8929 43.3075 25.7772C43.3075 23.6616 40.123 21.9465 36.1947 21.9465C32.2663 21.9465 29.0818 23.6616 29.0818 25.7772C29.0818 27.8929 32.2663 29.6079 36.1947 29.6079Z" fill="#2F2E41"/>
<path d="M267.083 41.7334H104.289V152.015H267.083V41.7334Z" fill="#3F3D56"/>
<path opacity="0.1" d="M243.415 144.508C253.936 144.508 262.465 143.604 262.465 142.488C262.465 141.372 253.936 140.467 243.415 140.467C232.893 140.467 224.364 141.372 224.364 142.488C224.364 143.604 232.893 144.508 243.415 144.508Z" fill="black"/>
<path d="M162.883 51.8376H114.68V104.38H162.883V51.8376Z" fill="#F2F2F2"/>
<path d="M130.202 75.9617C130.359 76.0092 130.527 76.0011 130.678 75.9386C130.829 75.8761 130.954 75.7631 131.031 75.6189C131.698 74.5683 130.471 73.2136 130.736 71.9979C130.949 71.024 132.056 70.4459 132.282 69.475C132.502 68.5316 131.825 67.4682 132.282 66.6146C132.641 65.9459 133.537 65.7699 134.287 65.887C135.036 66.0042 135.748 66.3338 136.505 66.38C137.515 66.4415 138.477 65.9972 139.463 65.777C140.45 65.5569 141.654 65.6431 142.234 66.471C142.98 67.5341 142.224 69.0145 142.483 70.2867C142.689 71.297 143.535 72.1335 143.553 73.1644C143.56 73.5308 142.596 73.2357 142.648 73.5985C142.699 73.9614 142.244 73.6419 142.608 73.5988C142.756 73.5624 142.889 73.4797 142.988 73.3625C143.086 73.2454 143.145 73.1 143.155 72.9474C143.198 72.6451 143.766 72.5444 143.76 72.2391C143.744 71.5237 145.038 72.0061 145.251 71.3229C145.74 69.7304 145.64 68.0147 144.967 66.4903C144.621 65.8676 144.344 65.2085 144.143 64.525C143.953 63.5764 144.251 62.5581 143.938 61.6429C143.516 60.4094 142.119 59.7807 140.821 59.653C139.524 59.5253 138.206 59.7539 136.916 59.5655C135.761 59.3969 134.642 58.896 133.477 58.9686C132.078 59.0556 130.861 59.9568 129.892 60.9687C128.923 61.9805 128.1 63.1443 126.999 64.0112C126.662 64.2432 126.351 64.5109 126.072 64.8098C125.511 65.4932 125.454 66.4669 125.61 67.3371C125.766 68.2073 126.106 69.0374 126.249 69.9098C126.384 70.7297 126.342 71.5673 126.4 72.3961C126.414 73.2321 126.667 74.0466 127.129 74.743C127.329 75.0144 127.588 75.2365 127.887 75.3925C128.185 75.5486 128.516 75.6344 128.852 75.6435C129.086 75.6489 129.283 75.4392 129.518 75.4938C129.813 75.5622 129.941 75.8418 130.202 75.9617Z" fill="#D5AA76"/>
<path d="M119.602 104.669C119.812 101.779 119.971 99.6194 119.971 99.6194L121.333 96.0281L125.706 104.669L119.602 104.669Z" fill="#575A89"/>
<path opacity="0.1" d="M119.602 104.669C119.812 101.779 119.971 99.6194 119.971 99.6194L121.333 96.0281L125.706 104.669L119.602 104.669Z" fill="black"/>
<path d="M129.735 76.2556C129.735 76.2556 133.813 86.6367 131.465 88.614C129.118 90.5914 144.563 85.2773 144.563 85.2773L144.192 83.9179C144.192 83.9179 139.126 81.9405 141.597 76.2556C144.069 70.5707 129.735 76.2556 129.735 76.2556Z" fill="#FAA0A0"/>
<path d="M135.543 80.4573C140.32 80.4573 144.192 76.5842 144.192 71.8064C144.192 67.0287 140.32 63.1555 135.543 63.1555C130.766 63.1555 126.894 67.0287 126.894 71.8064C126.894 76.5842 130.766 80.4573 135.543 80.4573Z" fill="#FFB9B9"/>
<path d="M156.548 90.4678C156.548 90.4678 156.513 91.1549 156.452 92.3559C156.328 94.8011 156.106 99.3827 155.884 104.669H122.355C121.479 103.495 120.762 102.211 120.222 100.849C120.076 100.455 119.991 100.04 119.971 99.6194C119.786 96.3427 122.722 91.7698 124.794 91.3339C127.141 90.8373 131.589 86.1432 131.589 86.1432C131.603 86.3219 131.662 86.494 131.761 86.6435C131.86 86.7929 131.996 86.9148 132.155 86.9977V87.0006C132.513 87.186 132.914 87.2736 133.318 87.2546C134.767 87.2546 141.14 84.3129 143.186 83.3515C143.588 83.1639 143.821 83.0513 143.821 83.0513C146.182 84.0701 148.62 84.8974 151.113 85.5254C152.356 85.8357 153.504 86.4495 154.452 87.3121C155.401 88.1746 156.121 89.2589 156.548 90.4678Z" fill="#575A89"/>
<path d="M128.719 75.0964C128.876 75.144 129.044 75.1359 129.195 75.0734C129.346 75.0109 129.471 74.8979 129.549 74.7537C130.215 73.7031 128.988 72.3483 129.254 71.1327C129.467 70.1587 130.573 69.5807 130.799 68.6098C131.019 67.6664 130.342 66.603 130.8 65.7494C131.158 65.0806 132.054 64.9046 132.804 65.0218C133.554 65.139 134.265 65.4686 135.023 65.5148C136.032 65.5763 136.994 65.132 137.981 64.9118C138.967 64.6916 140.171 64.7778 140.752 65.6058C141.497 66.6689 140.741 68.1492 141 69.4215C141.207 70.4318 143.555 71.1409 143.768 70.4577C144.258 68.8652 144.157 67.1495 143.485 65.6251C143.138 65.0023 142.862 64.3432 142.66 63.6597C142.47 62.7112 142.769 61.6929 142.455 60.7776C142.033 59.5442 140.636 58.9154 139.339 58.7877C138.041 58.6601 136.723 58.8886 135.433 58.7003C134.278 58.5316 133.159 58.0308 131.994 58.1033C130.595 58.1904 129.379 59.0916 128.409 60.1034C127.44 61.1153 126.617 62.2791 125.517 63.146C125.18 63.3779 124.869 63.6457 124.589 63.9446C124.028 64.628 123.971 65.6016 124.127 66.4719C124.283 67.3421 124.623 68.1722 124.766 69.0446C124.901 69.8645 124.859 70.7021 124.917 71.5309C124.931 72.3669 125.184 73.1814 125.646 73.8778C125.846 74.1491 126.105 74.3713 126.404 74.5273C126.703 74.6833 127.033 74.7692 127.37 74.7783C127.603 74.7837 127.8 74.5739 128.036 74.6286C128.33 74.697 128.458 74.9766 128.719 75.0964Z" fill="#D5AA77"/>
<path opacity="0.1" d="M160.834 104.669H151.049C150.304 99.2065 149.69 93.4962 149.69 93.4962L151.667 92.6301L155.685 90.4678C155.685 90.4678 155.979 91.1664 156.452 92.3558C157.463 94.8992 159.296 99.6858 160.834 104.669Z" fill="black"/>
<path d="M161.697 104.669H150.654C149.017 98.6928 147.404 92.1972 147.404 92.1972L151.606 89.1082L156.548 90.4679C156.548 90.4679 159.44 97.3533 161.697 104.669Z" fill="#575A89"/>
<path d="M239.085 51.8376H192.614V55.0133H239.085V51.8376Z" fill="#13A2D8"/>
<path d="M131.71 112.463H115.257V115.639H131.71V112.463Z" fill="#13A2D8"/>
<path d="M162.306 118.237H115.257V121.413H162.306V118.237Z" fill="#13A2D8"/>
<path d="M248.61 63.3855H181.645V66.5611H248.61V63.3855Z" fill="#F2F2F2"/>
<path d="M248.61 72.335H181.645V75.5106H248.61V72.335Z" fill="#F2F2F2"/>
<path d="M248.61 81.2844H181.645V84.4601H248.61V81.2844Z" fill="#F2F2F2"/>
<path d="M248.61 90.2339H181.645V93.4095H248.61V90.2339Z" fill="#F2F2F2"/>
<path d="M248.61 99.1836H181.645V102.359H248.61V99.1836Z" fill="#F2F2F2"/>
<path d="M248.61 108.133H181.645V111.309H248.61V108.133Z" fill="#F2F2F2"/>
<path d="M248.61 117.083H181.645V120.258H248.61V117.083Z" fill="#F2F2F2"/>
<path d="M261.518 117.512L243.212 135.821L235.518 128.125C235.274 127.881 234.984 127.687 234.665 127.555C234.346 127.423 234.004 127.355 233.658 127.355C233.313 127.355 232.971 127.423 232.652 127.555C232.333 127.687 232.043 127.881 231.799 128.125L231.522 127.712C230.495 128.739 230.771 130.818 231.799 131.845L241.781 141.83C242.158 142.206 242.668 142.418 243.2 142.418C243.732 142.418 244.242 142.207 244.619 141.831L265.235 121.232C266.263 120.205 266.636 118.322 265.609 117.295C264.582 116.267 262.544 116.485 261.518 117.512Z" fill="#57B894"/>
<path opacity="0.1" d="M261.518 117.512L243.212 135.821L235.518 128.125C235.274 127.881 234.984 127.687 234.665 127.555C234.346 127.423 234.004 127.355 233.658 127.355C233.313 127.355 232.971 127.423 232.652 127.555C232.333 127.687 232.043 127.881 231.799 128.125L231.522 127.712C230.495 128.739 230.771 130.818 231.799 131.845L241.781 141.83C242.158 142.206 242.668 142.418 243.2 142.418C243.732 142.418 244.242 142.207 244.619 141.831L265.235 121.232C266.263 120.205 266.636 118.322 265.609 117.295C264.582 116.267 262.544 116.485 261.518 117.512Z" fill="black"/>
<path d="M261.518 116.7L243.212 135.009L235.518 127.313C235.274 127.069 234.984 126.875 234.665 126.743C234.346 126.611 234.004 126.543 233.658 126.543C233.313 126.543 232.971 126.611 232.652 126.743C232.333 126.875 232.043 127.069 231.799 127.313C231.554 127.558 231.361 127.848 231.228 128.167C231.096 128.486 231.028 128.828 231.028 129.174C231.028 129.519 231.096 129.861 231.228 130.18C231.361 130.499 231.554 130.789 231.799 131.034L241.781 141.018C242.158 141.394 242.668 141.606 243.2 141.606C243.732 141.606 244.242 141.395 244.619 141.019L265.235 120.42C265.479 120.176 265.673 119.886 265.806 119.567C265.938 119.248 266.006 118.906 266.006 118.56C266.006 118.215 265.938 117.873 265.806 117.553C265.674 117.234 265.48 116.944 265.236 116.7C264.743 116.207 264.074 115.93 263.377 115.93C262.679 115.93 262.011 116.207 261.518 116.7Z" fill="#1E9A50"/>
<path opacity="0.1" d="M396.192 222.745C396.192 243.389 367.422 237.004 332.196 237.004C296.97 237.004 268.628 243.389 268.628 222.745C268.628 202.101 297.394 197.612 332.62 197.612C367.846 197.612 396.192 202.101 396.192 222.745Z" fill="black"/>
<path d="M396.192 218.889C396.192 239.533 367.422 233.147 332.196 233.147C296.97 233.147 268.628 239.533 268.628 218.889C268.628 198.245 297.394 193.755 332.62 193.755C367.846 193.755 396.192 198.245 396.192 218.889Z" fill="#4F5A7C"/>
<path d="M275.926 154.216L274.622 155.73C274.622 155.73 258.771 157.218 259.415 159.792C260.058 162.366 278.499 156.361 278.499 156.361L275.926 154.216Z" fill="#FFC1C7"/>
<path d="M304.659 152.929C304.659 152.929 287.719 158.934 278.499 156.36L282.788 164.939C282.788 164.939 304.659 164.296 308.519 160.435C312.379 156.575 304.659 152.929 304.659 152.929Z" fill="#6C63FF"/>
<path opacity="0.1" d="M304.659 152.929C304.659 152.929 287.719 158.934 278.499 156.36L282.788 164.939C282.788 164.939 304.659 164.296 308.519 160.435C312.379 156.575 304.659 152.929 304.659 152.929Z" fill="#13A2D8"/>
<path d="M293.187 106.925C299.464 106.925 304.552 101.836 304.552 95.5583C304.552 89.2805 299.464 84.1914 293.187 84.1914C286.911 84.1914 281.823 89.2805 281.823 95.5583C281.823 101.836 286.911 106.925 293.187 106.925Z" fill="#FFC1C7"/>
<path d="M302.878 106.23C303.269 106.977 303.765 107.664 304.35 108.271C305.907 109.965 307.765 111.355 309.829 112.371C303.378 113.682 296.863 114.651 290.31 115.274C291.002 112.837 290.091 110.231 288.867 108.013C287.643 105.795 286.083 103.728 285.317 101.314L292.999 101.52C294.393 101.558 295.791 101.6 297.184 101.531C298.226 101.48 299.961 100.856 300.933 101.086C302.988 101.572 301.981 104.407 302.878 106.23Z" fill="#FFC1C7"/>
<path d="M328.676 159.577L335.109 167.298C335.109 167.298 345.83 192.391 322.457 194.965C299.084 197.538 281.715 193.035 281.715 193.035C281.715 193.035 272.28 188.531 272.066 191.962C271.852 195.394 270.994 205.045 265.847 214.482L261.344 224.776C261.344 224.776 258.986 227.135 259.629 230.352C260.272 233.569 245.262 234.642 245.477 230.352C245.477 230.352 247.621 226.706 247.621 224.562C247.621 222.417 251.052 217.27 251.052 217.27L257.27 186.386C257.27 186.386 256.841 170.515 271.423 173.518C286.004 176.52 306.804 172.874 306.804 172.874L311.521 156.36L328.676 159.577Z" fill="#2F2E41"/>
<path opacity="0.1" d="M328.676 159.577L335.109 167.298C335.109 167.298 345.83 192.391 322.457 194.965C299.084 197.538 281.715 193.035 281.715 193.035C281.715 193.035 272.28 188.531 272.066 191.962C271.852 195.394 270.994 205.045 265.847 214.482L261.344 224.776C261.344 224.776 258.986 227.135 259.629 230.352C260.272 233.569 245.262 234.642 245.477 230.352C245.477 230.352 247.621 226.706 247.621 224.562C247.621 222.417 251.052 217.27 251.052 217.27L257.27 186.386C257.27 186.386 256.841 170.515 271.423 173.518C286.004 176.52 306.804 172.874 306.804 172.874L311.521 156.36L328.676 159.577Z" fill="black"/>
<path d="M304.552 159.013C304.552 159.013 324.173 151.642 335.109 167.298C335.109 167.298 337.896 191.533 326.746 192.606C315.595 193.678 301.014 193.464 297.583 189.818C294.152 186.172 272.495 175.877 272.495 175.877C272.495 175.877 261.714 170.377 259.599 177.524C257.485 184.67 257.27 186.386 257.27 186.386C257.27 186.386 246.12 194.536 241.617 196.037C241.617 196.037 238.615 200.327 236.899 200.327C235.184 200.327 224.677 202.686 225.749 194.75L243.118 178.88L260.487 161.937C260.487 161.937 265.419 154.645 278.07 158.505C286.466 161.004 294.983 163.08 303.587 164.725L304.552 159.013Z" fill="#2F2E41"/>
<path d="M258.986 229.923C258.986 229.923 263.06 240.218 259.629 241.505C256.198 242.792 248.907 241.934 248.907 241.934C248.907 241.934 240.33 240.861 238.186 241.076C236.042 241.29 227.25 239.575 228.536 236.143C229.823 232.712 236.47 233.569 236.47 233.569L242.474 230.781C242.474 230.781 243.118 228.637 244.619 229.495C246.12 230.352 250.408 233.569 258.986 229.923Z" fill="#CBCEDA"/>
<path d="M236.685 199.469C236.685 199.469 241.188 209.549 233.897 208.691C226.607 207.833 221.031 206.332 218.887 206.117C216.824 205.911 210.992 203.919 211.887 199.95C211.935 199.693 211.954 199.432 211.945 199.171C211.945 198.638 212.669 197.592 218.458 197.753C218.458 197.753 222.747 197.753 224.462 194.75C224.462 194.75 230.895 202.9 236.685 199.469Z" fill="#CBCEDA"/>
<path d="M285.361 113.681C285.361 113.681 300.8 104.03 313.665 113.681C326.531 123.332 335.109 167.298 335.109 167.298L305.303 160.65C305.303 160.65 304.016 155.503 302.301 154.645C300.585 153.787 300.371 150.141 300.371 150.141C300.371 150.141 291.15 147.353 291.794 136.629C292.437 125.906 285.361 113.681 285.361 113.681Z" fill="#13A2D8"/>
<path d="M293.295 114.11H285.361C285.361 114.11 280.643 119.472 280 132.983L277.427 143.707C277.427 143.707 272.066 156.575 275.282 158.719C278.499 160.864 284.717 160.65 286.004 156.36C287.29 152.071 296.082 127.192 296.082 127.192L293.295 114.11Z" fill="#13A2D8"/>
<path d="M291.021 80.7654C292.988 79.9586 295.14 79.7136 297.238 80.0576C299.336 80.4017 301.298 81.3213 302.904 82.7141C307.022 86.3899 307.853 92.3863 308.894 97.8078C309.935 103.229 312.03 109.267 317.138 111.357C314.836 111.664 312.498 111.596 310.217 111.155L317.937 118.075L304.932 113.835C300.851 112.505 296.564 111.157 292.337 111.909C285.335 113.154 280.461 119.737 273.735 122.05L274.483 118.403L269.971 118.368C271.052 117.568 271.936 116.532 272.556 115.339C272.343 115.081 272.081 114.867 271.784 114.712C271.488 114.557 271.163 114.463 270.83 114.436C268.949 102.702 275.915 91.1024 284.994 83.4363C286.78 81.9284 288.756 80.4801 291.063 80.1029C293.369 79.7257 296.062 80.7572 296.864 82.9527" fill="#2F2E41"/>
<path d="M94.2639 188.304C94.2639 212.991 109.748 232.966 128.883 232.966L94.2639 188.304Z" fill="#3F3D56"/>
<path d="M128.883 232.966C128.883 208.003 146.163 187.802 167.517 187.802Z" fill="#13A2D8"/>
<path d="M106.807 190.542C106.807 213.992 116.681 232.967 128.883 232.967Z" fill="#13A2D8"/>
<path d="M128.883 232.966C128.883 201.068 148.856 175.257 173.538 175.257L128.883 232.966Z" fill="#3F3D56"/>
<path d="M121.6 233.281C121.6 233.281 126.51 233.13 127.99 232.076C129.469 231.022 135.542 229.764 135.909 231.454C136.276 233.144 143.287 239.86 137.744 239.905C132.201 239.949 124.865 239.041 123.388 238.141C121.911 237.242 121.6 233.281 121.6 233.281Z" fill="#A8A8A8"/>
<path opacity="0.2" d="M137.843 239.316C132.3 239.361 124.964 238.453 123.487 237.553C122.362 236.868 121.914 234.409 121.764 233.275C121.661 233.279 121.6 233.281 121.6 233.281C121.6 233.281 121.911 237.242 123.388 238.141C124.865 239.041 132.201 239.949 137.744 239.905C139.344 239.892 139.897 239.322 139.867 238.479C139.644 238.989 139.034 239.307 137.843 239.316Z" fill="black"/>
</svg>
