<svg>
  <defs>
    <g id="terminate">
      <path d="M20,13 L18,11 L16,13 L14,11 L12,13 L10,11 L8,13 L6,11 L4.00437774,12.9956223 L4.01,4 C4.01,2.9 4.9,2 6,2 L14,2 L20,8 L20,13 Z M20,15 L20,20 C20,21.1 19.1,22 18,22 L5.99,22 C4.89,22 4,21.1 4,20 L4.00312695,14.996873 L6,13 L8,15 L10,13 L12,15 L14,13 L16,15 L18,13 L20,15 Z"/>
    </g>
    <g id="send_for_approval">
      <path d="M14,2 L20,8 L20,20 C20,21.1 19.1,22 18,22 L5.99,22 C4.89,22 4,21.1 4,20 L4.01,4 C4.01,2.9 4.9,2 6,2 L14,2 Z M16.0001528,10.5 L12.8441558,10.5 L13.3196333,8.215 L13.334301,8.055 C13.334301,7.85 13.2499618,7.66 13.1142857,7.525 L12.5850267,7 L9.29457601,10.295 C9.11000764,10.475 9,10.725 9,11 L9,16 C9,16.55 9.44980901,17 9.99984721,17 L14.500382,17 C14.9147441,17 15.2704354,16.75 15.4195569,16.39 L16.9303285,12.865 C16.9755539,12.75 17,12.63 17,12.5 L17,11.5 C17,10.95 16.550191,10.5 16.0001528,10.5 Z M8,17 L8,11 L6,11 L6,17 L8,17 Z"/>
    </g>
    <g id="change_status">
      <path d="M14,2 L20,8 L20,20 C20,21.1 19.1,22 18,22 L5.99,22 C4.89,22 4,21.1 4,20 L4.01,4 C4.01,2.9 4.9,2 6,2 L14,2 Z M11,10 L11,8 L8,11 L11,14 L11,12 L16,12 L16,10 L11,10 Z M13,17 L13,19 L16,16 L13,13 L13,15 L8,15 L8,17 L13,17 Z"/>
    </g>
    <g id="publish_without_the_approval">
      <path d="M17.9985303,12.9985303 C17.1631217,12.3715089 16.1249461,12 15,12 C12.2385763,12 10,14.2385763 10,17 C10,18.1256059 10.3719448,19.1643395 10.9996338,20 L9,20 L9,14 L5,14 L12,7 L17.9985303,12.9985303 Z M5,6 L5,4 L19,4 L19,6 L5,6 Z M11,17 C11,14.792 12.792,13 15,13 C17.208,13 19,14.792 19,17 C19,19.208 17.208,21 15,21 C12.792,21 11,19.208 11,17 Z M13,16.6 L13,17.4 L17,17.4 L17,16.6 L13,16.6 Z"/>
    </g>
    <g id="account-edit">
      <path d="M21.7,13.35L20.7,14.35L18.65,12.3L19.65,11.3C19.86,11.09 20.21,11.09 20.42,11.3L21.7,12.58C21.91,12.79 21.91,13.14 21.7,13.35M12,18.94L18.06,12.88L20.11,14.93L14.06,21H12V18.94M12,14C7.58,14 4,15.79 4,18V20H10V18.11L14,14.11C13.34,14.03 12.67,14 12,14M12,4A4,4 0 0,0 8,8A4,4 0 0,0 12,12A4,4 0 0,0 16,8A4,4 0 0,0 12,4Z"/>
    </g>
    <g id="account-minus">
      <path d="M15,14C12.33,14 7,15.33 7,18V20H23V18C23,15.33 17.67,14 15,14M1,10V12H9V10M15,12A4,4 0 0,0 19,8A4,4 0 0,0 15,4A4,4 0 0,0 11,8A4,4 0 0,0 15,12Z"/>
    </g>
    <g id="account-plus">
      <path d="M15,14C12.33,14 7,15.33 7,18V20H23V18C23,15.33 17.67,14 15,14M6,10V7H4V10H1V12H4V15H6V12H9V10M15,12A4,4 0 0,0 19,8A4,4 0 0,0 15,4A4,4 0 0,0 11,8A4,4 0 0,0 15,12Z"/>
    </g>
    <g id="sitemap">
      <path d="M9,2V8H11V11H5C3.89,11 3,11.89 3,13V16H1V22H7V16H5V13H11V16H9V22H15V16H13V13H19V16H17V22H23V16H21V13C21,11.89 20.11,11 19,11H13V8H15V2H9Z"/>
    </g>
    <g id="email-check">
      <path d="M21,13.34C20.37,13.12 19.7,13 19,13A6,6 0 0,0 13,19C13,19.34 13.03,19.67 13.08,20H3A2,2 0 0,1 1,18V6C1,4.89 1.89,4 3,4H19A2,2 0 0,1 21,6V13.34M23.5,17L18.5,22L15,18.5L16.5,17L18.5,19L22,15.5L23.5,17M3,6V8L11,13L19,8V6L11,11L3,6Z"/>
    </g>
    <g id="pin">
      <path d="M17.9025,12.4148 C17.2734,11.62544 16.5624,11.23098 15.769,11.23098 L15.769,5.07701 C16.1856,5.07701 16.5466,4.92478 16.8506,4.62033 C17.1553,4.31584 17.3077,3.9551 17.3077,3.53855 C17.3077,3.12178 17.1553,2.761253 16.8506,2.45676 C16.5466,2.152268 16.1857,2 15.769,2 L8.07697,2 C7.6602,2 7.29967,2.152268 6.99518,2.45676 C6.69065,2.761253 6.53842,3.12174 6.53842,3.53855 C6.53842,3.95527 6.69065,4.31584 6.99518,4.62033 C7.29967,4.92478 7.66032,5.07701 8.07697,5.07701 L8.07697,11.23081 C7.28368,11.23081 6.57265,11.62544 5.943579,12.4147 C5.314596,13.2041 5,14.0912 5,15.0771 C5,15.2854 5.0761549,15.4657 5.228422,15.6179 C5.380774,15.77 5.561037,15.8461 5.769378,15.8461 L10.6251,15.8461 L11.53854,21.6756 C11.57853,21.892 11.70676,22 11.9231,22 L11.93535,22 C12.03108,22 12.11363,21.966 12.18166,21.898 C12.24965,21.8298 12.29171,21.7476 12.3077,21.6515 L12.92056,15.8462 L18.0768,15.8462 C18.2851,15.8462 18.4656,15.77 18.6176,15.6179 C18.77,15.4658 18.8463,15.2855 18.8463,15.0771 C18.8464,14.0914 18.5315,13.2041 17.9025,12.4148 Z M10.76924,10.84642 C10.76924,10.95848 10.73325,11.05055 10.66105,11.12279 C10.58894,11.19494 10.49674,11.23098 10.38459,11.23098 C10.27253,11.23098 10.18029,11.19499 10.10814,11.12279 C10.03603,11.05068 10.00003,10.95848 10.00003,10.84642 L10.00003,5.46182 C10.00003,5.34967 10.03603,5.25731 10.10814,5.18537 C10.18029,5.11334 10.27253,5.07726 10.38459,5.07726 C10.49674,5.07726 10.58894,5.11321 10.66105,5.18537 C10.73321,5.25744 10.76924,5.34967 10.76924,5.46182 L10.76924,10.84642 Z"/>
    </g>
    <g id="footprint">
      <path d="M9.43217349,2.9099751 L9.9318405,3.19845798 L9.9318405,3.77542375 L9.43217349,4.06390663 L8.93250648,3.77542375 L8.93250648,3.19845798 L9.43217349,2.9099751 Z M11.2620578,2.23264024 L11.551259,2.85283412 L11.1587559,3.41338661 L10.4770517,3.35374521 L10.1878505,2.73355133 L10.5803536,2.17299885 L11.2620578,2.23264024 Z M13.1587443,1.77297549 L13.1716238,2.51084256 L12.539052,2.89093008 L11.8936006,2.53315054 L11.8807211,1.79528347 L12.5132929,1.41519595 L13.1587443,1.77297549 Z M15.4705079,1.90644703 L14.9471704,2.65385035 L14.0382315,2.57432849 L13.6526299,1.74740332 L14.1759673,1 L15.0849063,1.07952186 L15.4705079,1.90644703 Z M17.9489952,2.92400745 L16.9474674,3.5744072 L15.8834408,3.03225857 L15.820942,1.83971021 L16.8224698,1.18931047 L17.8864964,1.73145909 L17.9489952,2.92400745 Z M7.73651442,9.10242177 L8.66884087,5.59378837 L15.2199944,3.83962829 L17.1205409,5.42406031 L12.4752867,12.8896552 L13.5825793,20.7140787 L10.1741077,23 L7,20.9643557 L7.73651442,9.10242177 Z"/>
    </g>
    <g id="footprint_outline">
      <path d="M9.43217349,2.9099751 L9.9318405,3.19845798 L9.9318405,3.77542375 L9.43217349,4.06390663 L8.93250648,3.77542375 L8.93250648,3.19845798 L9.43217349,2.9099751 Z M11.2620578,2.23264024 L11.551259,2.85283412 L11.1587559,3.41338661 L10.4770517,3.35374521 L10.1878505,2.73355133 L10.5803536,2.17299885 L11.2620578,2.23264024 Z M13.1587443,1.77297549 L13.1716238,2.51084256 L12.539052,2.89093008 L11.8936006,2.53315054 L11.8807211,1.79528347 L12.5132929,1.41519595 L13.1587443,1.77297549 Z M15.4705079,1.90644703 L14.9471704,2.65385035 L14.0382315,2.57432849 L13.6526299,1.74740332 L14.1759673,1 L15.0849063,1.07952186 L15.4705079,1.90644703 Z M17.9489952,2.92400745 L16.9474674,3.5744072 L15.8834408,3.03225857 L15.820942,1.83971021 L16.8224698,1.18931047 L17.8864964,1.73145909 L17.9489952,2.92400745 Z M7.73651442,9.10242177 L8.66884087,5.59378837 L15.2199944,3.83962829 L17.1205409,5.42406031 L12.4752867,12.8896552 L13.5825793,20.7140787 L10.1741077,23 L7,20.9643557 L7.73651442,9.10242177 Z M8.73152457,9.26944419 L8.02972216,20.4413353 L10.1612086,21.7997778 L12.5095604,20.2227857 L11.4266858,12.6792279 L15.8149236,5.62726785 L14.9736698,4.93186897 L9.4878123,6.41661964 L8.73152457,9.26944419 Z"/>
    </g>
    <g id="quatrefoil_0">
      <path d="M17.002366,21.0026065 C17.002366,21.5548912 16.5546507,22.0026065 16.002366,22.0026065 L12.996766,22.0026065 L12.002366,21.0030642 L10.9954995,22.0026065 L8.00236598,22.0026065 C7.45008123,22.0026065 7.00236598,21.5548912 7.00236598,21.0026065 L7.00236598,18.0084142 L12.0025074,13.0024691 L17.002366,18.0084142 L17.002366,21.0026065 Z M16.0009579,21.0030642 L16.0009579,18.4183014 L12.0025074,14.4142914 L7.99266775,18.4183014 L7.99266775,21.0030642 L10.5827332,21.0030642 L12.0025074,19.593319 L13.4056146,21.0030642 L16.0009579,21.0030642 Z M17.002366,3.00246915 L17.002366,5.99666144 L12.0025074,11.0026065 L7.00236598,5.99666144 L7.00236598,3.00246915 C7.00236598,2.4501844 7.45008123,2.00246915 8.00236598,2.00246915 L10.9954995,2.00246915 L12.002366,3.00201138 L12.996766,2.00246915 L16.002366,2.00246915 C16.5546507,2.00246915 17.002366,2.4501844 17.002366,3.00246915 Z M16.0009579,3.00201138 L13.4056146,3.00201138 L12.0025074,4.41175662 L10.5827332,3.00201138 L7.99266775,3.00201138 L7.99266775,5.58677424 L12.0025074,9.59078424 L16.0009579,5.58677424 L16.0009579,3.00201138 Z M21.0001373,7 C21.5524221,7 22.0001373,7.44771525 22.0001373,8 L22.0001373,11.0056 L21.0005951,12 L22.0001373,13.0068665 L22.0001373,16 C22.0001373,16.5522847 21.5524221,17 21.0001373,17 L18.005945,17 L13,11.9998586 L18.005945,7 L21.0001373,7 Z M21.0005951,8.00140811 L18.4158322,8.00140811 L14.4118222,11.9998586 L18.4158322,16.0096982 L21.0005951,16.0096982 L21.0005951,13.4196328 L19.5908499,11.9998586 L21.0005951,10.5967514 L21.0005951,8.00140811 Z M3,7 L5.9941923,7 L11.0001373,11.9998586 L5.9941923,17 L3,17 C2.44771525,17 2,16.5522847 2,16 L2,13.0068665 L2.99954224,12 L2,11.0056 L2,8 C2,7.44771525 2.44771525,7 3,7 Z M2.99954224,8.00140811 L2.99954224,10.5967514 L4.40928748,11.9998586 L2.99954224,13.4196328 L2.99954224,16.0096982 L5.58430509,16.0096982 L9.58831509,11.9998586 L5.58430509,8.00140811 L2.99954224,8.00140811 Z"/>
    </g>
    <g id="quatrefoil_1">
      <path d="M3,7 L5.9941923,7 L11.0001373,11.9998586 L5.9941923,17 L3,17 C2.44771525,17 2,16.5522847 2,16 L2,13.0068665 L2.99954224,12 L2,11.0056 L2,8 C2,7.44771525 2.44771525,7 3,7 Z M17.002366,21.0026065 C17.002366,21.5548912 16.5546507,22.0026065 16.002366,22.0026065 L12.996766,22.0026065 L12.002366,21.0030642 L10.9954995,22.0026065 L8.00236598,22.0026065 C7.45008123,22.0026065 7.00236598,21.5548912 7.00236598,21.0026065 L7.00236598,18.0084142 L12.0025074,13.0024691 L17.002366,18.0084142 L17.002366,21.0026065 Z M16.0009579,21.0030642 L16.0009579,18.4183014 L12.0025074,14.4142914 L7.99266775,18.4183014 L7.99266775,21.0030642 L10.5827332,21.0030642 L12.0025074,19.593319 L13.4056146,21.0030642 L16.0009579,21.0030642 Z M17.002366,3.00246915 L17.002366,5.99666144 L12.0025074,11.0026065 L7.00236598,5.99666144 L7.00236598,3.00246915 C7.00236598,2.4501844 7.45008123,2.00246915 8.00236598,2.00246915 L10.9954995,2.00246915 L12.002366,3.00201138 L12.996766,2.00246915 L16.002366,2.00246915 C16.5546507,2.00246915 17.002366,2.4501844 17.002366,3.00246915 Z M16.0009579,3.00201138 L13.4056146,3.00201138 L12.0025074,4.41175662 L10.5827332,3.00201138 L7.99266775,3.00201138 L7.99266775,5.58677424 L12.0025074,9.59078424 L16.0009579,5.58677424 L16.0009579,3.00201138 Z M21.0001373,7 C21.5524221,7 22.0001373,7.44771525 22.0001373,8 L22.0001373,11.0056 L21.0005951,12 L22.0001373,13.0068665 L22.0001373,16 C22.0001373,16.5522847 21.5524221,17 21.0001373,17 L18.005945,17 L13,11.9998586 L18.005945,7 L21.0001373,7 Z M21.0005951,8.00140811 L18.4158322,8.00140811 L14.4118222,11.9998586 L18.4158322,16.0096982 L21.0005951,16.0096982 L21.0005951,13.4196328 L19.5908499,11.9998586 L21.0005951,10.5967514 L21.0005951,8.00140811 Z"/>
    </g>
    <g id="quatrefoil_2">
      <path d="M3,7 L5.9941923,7 L11.0001373,11.9998586 L5.9941923,17 L3,17 C2.44771525,17 2,16.5522847 2,16 L2,13.0068665 L2.99954224,12 L2,11.0056 L2,8 C2,7.44771525 2.44771525,7 3,7 Z M17.002366,3.00246915 L17.002366,5.99666144 L12.0025074,11.0026065 L7.00236598,5.99666144 L7.00236598,3.00246915 C7.00236598,2.4501844 7.45008123,2.00246915 8.00236598,2.00246915 L10.9954995,2.00246915 L12.002366,3.00201138 L12.996766,2.00246915 L16.002366,2.00246915 C16.5546507,2.00246915 17.002366,2.4501844 17.002366,3.00246915 Z M17.002366,21.0026065 C17.002366,21.5548912 16.5546507,22.0026065 16.002366,22.0026065 L12.996766,22.0026065 L12.002366,21.0030642 L10.9954995,22.0026065 L8.00236598,22.0026065 C7.45008123,22.0026065 7.00236598,21.5548912 7.00236598,21.0026065 L7.00236598,18.0084142 L12.0025074,13.0024691 L17.002366,18.0084142 L17.002366,21.0026065 Z M16.0009579,21.0030642 L16.0009579,18.4183014 L12.0025074,14.4142914 L7.99266775,18.4183014 L7.99266775,21.0030642 L10.5827332,21.0030642 L12.0025074,19.593319 L13.4056146,21.0030642 L16.0009579,21.0030642 Z M21.0001373,7 C21.5524221,7 22.0001373,7.44771525 22.0001373,8 L22.0001373,11.0056 L21.0005951,12 L22.0001373,13.0068665 L22.0001373,16 C22.0001373,16.5522847 21.5524221,17 21.0001373,17 L18.005945,17 L13,11.9998586 L18.005945,7 L21.0001373,7 Z M21.0005951,8.00140811 L18.4158322,8.00140811 L14.4118222,11.9998586 L18.4158322,16.0096982 L21.0005951,16.0096982 L21.0005951,13.4196328 L19.5908499,11.9998586 L21.0005951,10.5967514 L21.0005951,8.00140811 Z"/>
    </g>
    <g id="quatrefoil_3">
      <path d="M3,7 L5.9941923,7 L11.0001373,11.9998586 L5.9941923,17 L3,17 C2.44771525,17 2,16.5522847 2,16 L2,13.0068665 L2.99954224,12 L2,11.0056 L2,8 C2,7.44771525 2.44771525,7 3,7 Z M21.0001373,7 C21.5524221,7 22.0001373,7.44771525 22.0001373,8 L22.0001373,11.0056 L21.0005951,12 L22.0001373,13.0068665 L22.0001373,16 C22.0001373,16.5522847 21.5524221,17 21.0001373,17 L18.005945,17 L13,11.9998586 L18.005945,7 L21.0001373,7 Z M17.002366,3.00246915 L17.002366,5.99666144 L12.0025074,11.0026065 L7.00236598,5.99666144 L7.00236598,3.00246915 C7.00236598,2.4501844 7.45008123,2.00246915 8.00236598,2.00246915 L10.9954995,2.00246915 L12.002366,3.00201138 L12.996766,2.00246915 L16.002366,2.00246915 C16.5546507,2.00246915 17.002366,2.4501844 17.002366,3.00246915 Z M17.002366,21.0026065 C17.002366,21.5548912 16.5546507,22.0026065 16.002366,22.0026065 L12.996766,22.0026065 L12.002366,21.0030642 L10.9954995,22.0026065 L8.00236598,22.0026065 C7.45008123,22.0026065 7.00236598,21.5548912 7.00236598,21.0026065 L7.00236598,18.0084142 L12.0025074,13.0024691 L17.002366,18.0084142 L17.002366,21.0026065 Z M16.0009579,21.0030642 L16.0009579,18.4183014 L12.0025074,14.4142914 L7.99266775,18.4183014 L7.99266775,21.0030642 L10.5827332,21.0030642 L12.0025074,19.593319 L13.4056146,21.0030642 L16.0009579,21.0030642 Z"/>
    </g>
    <g id="quatrefoil_4">
      <path d="M3,7 L5.9941923,7 L11.0001373,11.9998586 L5.9941923,17 L3,17 C2.44771525,17 2,16.5522847 2,16 L2,13.0068665 L2.99954224,12 L2,11.0056 L2,8 C2,7.44771525 2.44771525,7 3,7 Z M21.0001373,7 C21.5524221,7 22.0001373,7.44771525 22.0001373,8 L22.0001373,11.0056 L21.0005951,12 L22.0001373,13.0068665 L22.0001373,16 C22.0001373,16.5522847 21.5524221,17 21.0001373,17 L18.005945,17 L13,11.9998586 L18.005945,7 L21.0001373,7 Z M17.0015488,21.000597 C17.0015488,21.5528818 16.5538336,22.000597 16.0015488,22.000597 L12.9959489,22.000597 L12.0015488,21.0010548 L10.9946824,22.000597 L8.00154883,22.000597 C7.44926408,22.000597 7.00154883,21.5528818 7.00154883,21.000597 L7.00154883,18.0064047 L12.0016902,13.0004597 L17.0015488,18.0064047 L17.0015488,21.000597 Z M17.0015488,3.00045971 L17.0015488,5.994652 L12.0016902,11.000597 L7.00154883,5.994652 L7.00154883,3.00045971 C7.00154883,2.44817496 7.44926408,2.00045971 8.00154883,2.00045971 L10.9946824,2.00045971 L12.0015488,3.00000194 L12.9959489,2.00045971 L16.0015488,2.00045971 C16.5538336,2.00045971 17.0015488,2.44817496 17.0015488,3.00045971 Z"/>
    </g>
    <g id="traveler-account">
      <path d="M12,19.2 C9.5,19.2 7.29,17.92 6,16 C6.03,14 10,12.9 12,12.9 C14,12.9 17.97,14 18,16 C16.71,17.92 14.5,19.2 12,19.2 Z M12,5 C13.6568542,5 15,6.34314575 15,8 C15,9.65685425 13.6568542,11 12,11 C10.3431458,11 9,9.65685425 9,8 C9,6.34314575 10.3431458,5 12,5 Z M12,2 C6.4771525,2 2,6.4771525 2,12 C2,14.6521649 3.0535684,17.195704 4.92893219,19.0710678 C6.26296158,20.4050972 7.93509488,21.3232893 9.74392341,21.7422179 C9.74392341,21.7422179 10.4959489,22.4948119 12,24 C13.5079339,22.4939114 14.2619009,21.7408671 14.2619009,21.7408671 C16.0684945,21.3213176 17.7384704,20.4036653 19.0710678,19.0710678 C20.9464316,17.195704 22,14.6521649 22,12 C22,6.47 17.5,2 12,2 Z" />
    </g>
  </defs>
</svg>
